<?xml version="1.0" ?>
<svg xmlns="http://www.w3.org/2000/svg" xmlns:ev="http://www.w3.org/2001/xml-events" xmlns:xlink="http://www.w3.org/1999/xlink" baseProfile="full" height="600px" version="1.1" viewBox="-0.15297675 -0.15147675 0.3044535 0.3044535" width="600px">
	<defs/>
	<path d="M -0.096,-0.123 L -0.0945,-0.126 L -0.0945,-0.123" fill="none" stroke="black" stroke-width="0.002"/>
	<path d="M 0.11549999999999999,-0.12 L 0.11549999999999999,-0.123 L 0.11699999999999999,-0.12 L 0.12,-0.123 L 0.1185,-0.126 L 0.1215,-0.123 L 0.123,-0.126 L 0.123,-0.123 L 0.11699999999999999,-0.12" fill="none" stroke="black" stroke-width="0.002"/>
	<path d="M 0.10500000000000001,-0.12 L 0.10950000000000001,-0.126 L 0.10650000000000001,-0.12" fill="none" stroke="black" stroke-width="0.002"/>
	<path d="M -0.08399999999999999,-0.1185 L -0.087,-0.1245 L -0.08399999999999999,-0.123" fill="none" stroke="black" stroke-width="0.002"/>
	<path d="M -0.099,-0.1185 L -0.10200000000000001,-0.1215 L -0.099,-0.12" fill="none" stroke="black" stroke-width="0.002"/>
	<path d="M 0.0975,-0.11699999999999999 L 0.10200000000000001,-0.12 L 0.0975,-0.12" fill="none" stroke="black" stroke-width="0.002"/>
	<path d="M -0.087,-0.11399999999999999 L -0.0915,-0.11699999999999999 L -0.087,-0.11549999999999999" fill="none" stroke="black" stroke-width="0.002"/>
	<path d="M 0.0975,-0.11249999999999999 L 0.0975,-0.12 L 0.10350000000000001,-0.126 L 0.099,-0.11549999999999999 L 0.10500000000000001,-0.11399999999999999 L 0.099,-0.11399999999999999" fill="none" stroke="black" stroke-width="0.002"/>
	<path d="M 0.07950000000000002,-0.11249999999999999 L 0.08399999999999999,-0.11549999999999999 L 0.08099999999999999,-0.1215 L 0.087,-0.126 L 0.08249999999999999,-0.12 L 0.093,-0.11549999999999999 L 0.08549999999999999,-0.11699999999999999 L 0.08549999999999999,-0.11249999999999999 L 0.0915,-0.11249999999999999 L 0.08249999999999999,-0.11249999999999999" fill="none" stroke="black" stroke-width="0.002"/>
	<path d="M -0.1005,-0.11100000000000002 L -0.108,-0.1245 L -0.1005,-0.11399999999999999" fill="none" stroke="black" stroke-width="0.002"/>
	<path d="M -0.1095,-0.11100000000000002 L -0.117,-0.11699999999999999 L -0.1215,-0.11549999999999999 L -0.1245,-0.1185 L -0.117,-0.1185 L -0.111,-0.11249999999999999" fill="none" stroke="black" stroke-width="0.002"/>
	<path d="M 0.12,-0.10650000000000001 L 0.1185,-0.11249999999999999 L 0.1245,-0.11699999999999999 L 0.1185,-0.11100000000000002 L 0.1215,-0.10650000000000001 L 0.126,-0.10650000000000001" fill="none" stroke="black" stroke-width="0.002"/>
	<path d="M -0.087,-0.10650000000000001 L -0.0825,-0.10500000000000001 L -0.08549999999999999,-0.10800000000000001" fill="none" stroke="black" stroke-width="0.002"/>
	<path d="M -0.087,-0.10500000000000001 L -0.09,-0.10650000000000001 L -0.08549999999999999,-0.10800000000000001 L -0.093,-0.11399999999999999 L -0.096,-0.11249999999999999 L -0.0915,-0.11399999999999999 L -0.081,-0.10650000000000001 L -0.0795,-0.11100000000000002 L -0.0825,-0.11399999999999999 L -0.0795,-0.11100000000000002 L -0.0825,-0.10500000000000001" fill="none" stroke="black" stroke-width="0.002"/>
	<path d="M 0.0975,-0.10350000000000001 L 0.099,-0.10350000000000001" fill="none" stroke="black" stroke-width="0.002"/>
	<path d="M -0.10200000000000001,-0.1005 L -0.108,-0.10650000000000001 L -0.10200000000000001,-0.10200000000000001" fill="none" stroke="black" stroke-width="0.002"/>
	<path d="M -0.1065,-0.099 L -0.111,-0.10350000000000001 L -0.111,-0.10650000000000001 L -0.1065,-0.1005" fill="none" stroke="black" stroke-width="0.002"/>
	<path d="M 0.0915,-0.0975 L 0.1005,-0.1005 L 0.093,-0.099" fill="none" stroke="black" stroke-width="0.002"/>
	<path d="M -0.08549999999999999,-0.096 L -0.0915,-0.10350000000000001 L -0.08399999999999999,-0.096" fill="none" stroke="black" stroke-width="0.002"/>
	<path d="M -0.087,-0.093 L -0.08399999999999999,-0.093" fill="none" stroke="black" stroke-width="0.002"/>
	<path d="M -0.07500000000000001,-0.087 L -0.07350000000000001,-0.0885" fill="none" stroke="black" stroke-width="0.002"/>
	<path d="M -0.078,-0.087 L -0.0795,-0.0885" fill="none" stroke="black" stroke-width="0.002"/>
	<path d="M 0.07800000000000001,-0.08549999999999999 L 0.07650000000000001,-0.09 L 0.08099999999999999,-0.099 L 0.07500000000000001,-0.093 L 0.07650000000000001,-0.0975 L 0.07200000000000001,-0.099 L 0.07650000000000001,-0.0975 L 0.07800000000000001,-0.10500000000000001 L 0.08249999999999999,-0.0975 L 0.08399999999999999,-0.1005 L 0.07650000000000001,-0.087" fill="none" stroke="black" stroke-width="0.002"/>
	<path d="M -0.07500000000000001,-0.08399999999999999 L -0.07350000000000001,-0.0885 L -0.078,-0.096 L -0.07500000000000001,-0.0975 L -0.0795,-0.1005 L -0.078,-0.10350000000000001 L -0.0765,-0.099 L -0.07200000000000001,-0.10200000000000001 L -0.07200000000000001,-0.11249999999999999 L -0.0795,-0.11549999999999999 L -0.0795,-0.123 L -0.078,-0.11549999999999999 L -0.07200000000000001,-0.11699999999999999 L -0.07500000000000001,-0.1185 L -0.07200000000000001,-0.123 L -0.07200000000000001,-0.1005 L -0.07500000000000001,-0.099 L -0.07200000000000001,-0.0915 L -0.07200000000000001,-0.096 L -0.0765,-0.096 L -0.07200000000000001,-0.087" fill="none" stroke="black" stroke-width="0.002"/>
	<path d="M 0.123,-0.07950000000000002 L 0.126,-0.08249999999999999" fill="none" stroke="black" stroke-width="0.002"/>
	<path d="M -0.081,-0.07800000000000001 L -0.08549999999999999,-0.0885 L -0.09,-0.09 L -0.081,-0.08099999999999999" fill="none" stroke="black" stroke-width="0.002"/>
	<path d="M 0.07800000000000001,-0.07650000000000001 L 0.08549999999999999,-0.087 L 0.08249999999999999,-0.07950000000000002 L 0.08099999999999999,-0.08249999999999999 L 0.07800000000000001,-0.07800000000000001" fill="none" stroke="black" stroke-width="0.002"/>
	<path d="M -0.028499999999999998,-0.07500000000000001 L -0.0345,-0.07650000000000001 L -0.03,-0.07800000000000001 L -0.028499999999999998,-0.07500000000000001 L 0.023999999999999994,-0.07800000000000001 L -0.0165,-0.07500000000000001" fill="none" stroke="black" stroke-width="0.002"/>
	<path d="M -0.03,-0.069 L 0.0030000000000000027,-0.07200000000000001 L -0.028499999999999998,-0.07050000000000001" fill="none" stroke="black" stroke-width="0.002"/>
	<path d="M -0.008999999999999994,-0.0645 L -0.011999999999999997,-0.0675 L 0.015000000000000013,-0.0645 L 0.022499999999999992,-0.07050000000000001 L 0.0315,-0.07050000000000001 L 0.022499999999999992,-0.07050000000000001 L 0.015000000000000013,-0.0645 L -0.007500000000000007,-0.066" fill="none" stroke="black" stroke-width="0.002"/>
	<path d="M 0.07800000000000001,-0.0615 L 0.0915,-0.0945 L 0.07950000000000002,-0.0615" fill="none" stroke="black" stroke-width="0.002"/>
	<path d="M 0.07650000000000001,-0.04500000000000001 L 0.07050000000000001,-0.07050000000000001 L 0.07200000000000001,-0.07800000000000001 L 0.0645,-0.08399999999999999 L 0.058499999999999996,-0.10650000000000001 L 0.048000000000000015,-0.123 L 0.056999999999999995,-0.11100000000000002 L 0.0645,-0.08549999999999999 L 0.069,-0.08249999999999999 L 0.07200000000000001,-0.08549999999999999 L 0.0675,-0.0885 L 0.0675,-0.126 L 0.066,-0.1185 L 0.07200000000000001,-0.11100000000000002 L 0.07050000000000001,-0.10800000000000001 L 0.07650000000000001,-0.11100000000000002 L 0.07200000000000001,-0.11549999999999999 L 0.07950000000000002,-0.1185 L 0.07650000000000001,-0.11100000000000002 L 0.069,-0.10650000000000001 L 0.07050000000000001,-0.0945 L 0.0675,-0.09 L 0.07200000000000001,-0.08549999999999999 L 0.07050000000000001,-0.07050000000000001 L 0.07650000000000001,-0.048000000000000015" fill="none" stroke="black" stroke-width="0.002"/>
	<path d="M 0.022499999999999992,-0.037500000000000006 L 0.016500000000000015,-0.03900000000000001 L 0.01050000000000001,-0.048000000000000015 L 0.017999999999999988,-0.03900000000000001 L 0.022499999999999992,-0.03900000000000001" fill="none" stroke="black" stroke-width="0.002"/>
	<path d="M -0.013499999999999998,-0.0315 L -0.0165,-0.036000000000000004 L -0.011999999999999997,-0.0315 L -0.006000000000000005,-0.033 L -0.013499999999999998,-0.04350000000000001 L -0.006000000000000005,-0.0315" fill="none" stroke="black" stroke-width="0.002"/>
	<path d="M 0.07950000000000002,-0.025499999999999995 L 0.07950000000000002,-0.04500000000000001 L 0.12,-0.07500000000000001 L 0.126,-0.07500000000000001 L 0.0915,-0.055499999999999994 L 0.07950000000000002,-0.04350000000000001 L 0.08099999999999999,-0.025499999999999995" fill="none" stroke="black" stroke-width="0.002"/>
	<path d="M 0.08249999999999999,-0.015000000000000013 L 0.08249999999999999,-0.01949999999999999 L 0.087,-0.015000000000000013" fill="none" stroke="black" stroke-width="0.002"/>
	<path d="M 0.0645,-0.004500000000000004 L 0.069,-0.007500000000000007 L 0.069,-0.004500000000000004" fill="none" stroke="black" stroke-width="0.002"/>
	<path d="M 0.01050000000000001,-0.0015000000000000013 L 0.017999999999999988,-0.017999999999999988 L 0.01200000000000001,-0.022499999999999992 L -0.0015000000000000013,-0.01200000000000001 L 0.007500000000000007,-0.01949999999999999 L 0.006000000000000005,-0.022499999999999992 L -0.0015000000000000013,-0.02099999999999999 L 0.013500000000000012,-0.022499999999999992 L 0.017999999999999988,-0.017999999999999988 L 0.022499999999999992,-0.025499999999999995 L 0.01949999999999999,-0.028499999999999998 L 0.016500000000000015,-0.025499999999999995 L 0.017999999999999988,-0.028499999999999998 L 0.022499999999999992,-0.026999999999999996 L 0.01200000000000001,-0.0030000000000000027" fill="none" stroke="black" stroke-width="0.002"/>
	<path d="M -0.099,0.011999999999999997 L -0.099,0.007500000000000007" fill="none" stroke="black" stroke-width="0.002"/>
	<path d="M 0.006000000000000005,0.015 L 0.0030000000000000027,0.013499999999999998 L 0.006000000000000005,0.015 L 0.009000000000000008,0.008999999999999994 L 0.007500000000000007,0.015" fill="none" stroke="black" stroke-width="0.002"/>
	<path d="M 0.07050000000000001,0.021000000000000005 L 0.0615,0.011999999999999997 L 0.07200000000000001,0.021000000000000005" fill="none" stroke="black" stroke-width="0.002"/>
	<path d="M 0.056999999999999995,0.021000000000000005 L 0.058499999999999996,0.021000000000000005" fill="none" stroke="black" stroke-width="0.002"/>
	<path d="M 0.04949999999999999,0.025499999999999995 L 0.04200000000000001,0.0165 L 0.036000000000000004,0.018000000000000002 L 0.04350000000000001,0.0165 L 0.04949999999999999,0.023999999999999994" fill="none" stroke="black" stroke-width="0.002"/>
	<path d="M -0.051000000000000004,0.025499999999999995 L -0.054000000000000006,0.022500000000000006 L -0.0495,0.018000000000000002 L -0.052500000000000005,0.022500000000000006 L -0.0495,0.025499999999999995 L -0.03900000000000001,0.015 L -0.0315,0.023999999999999994 L -0.03900000000000001,0.015 L -0.048,0.025499999999999995" fill="none" stroke="black" stroke-width="0.002"/>
	<path d="M 0.069,0.026999999999999996 L 0.056999999999999995,0.015 L 0.055499999999999994,0.008999999999999994 L 0.058499999999999996,0.0165 L 0.069,0.025499999999999995" fill="none" stroke="black" stroke-width="0.002"/>
	<path d="M -0.025499999999999995,0.026999999999999996 L -0.0165,0.018000000000000002 L -0.018000000000000002,0.015 L -0.022500000000000006,0.0165 L -0.015,0.0165 L -0.023999999999999994,0.026999999999999996" fill="none" stroke="black" stroke-width="0.002"/>
	<path d="M -0.10200000000000001,0.026999999999999996 L -0.10200000000000001,0.025499999999999995" fill="none" stroke="black" stroke-width="0.002"/>
	<path d="M 0.0315,0.03 L 0.023999999999999994,0.023999999999999994 L 0.0315,0.03 L 0.05249999999999999,0.03 L 0.0615,0.023999999999999994 L 0.05249999999999999,0.03" fill="none" stroke="black" stroke-width="0.002"/>
	<path d="M -0.054000000000000006,0.03 L -0.06,0.025499999999999995 L -0.054000000000000006,0.013499999999999998 L -0.058499999999999996,0.023999999999999994 L -0.055499999999999994,0.028499999999999998 L -0.0345,0.03" fill="none" stroke="black" stroke-width="0.002"/>
	<path d="M -0.054000000000000006,0.03900000000000001 L -0.0315,0.036000000000000004 L -0.052500000000000005,0.03900000000000001" fill="none" stroke="black" stroke-width="0.002"/>
	<path d="M 0.016500000000000015,0.041999999999999996 L 0.013500000000000012,0.03900000000000001 L 0.02099999999999999,0.041999999999999996" fill="none" stroke="black" stroke-width="0.002"/>
	<path d="M -0.0165,0.041999999999999996 L -0.015,0.033 L -0.015,0.040499999999999994" fill="none" stroke="black" stroke-width="0.002"/>
	<path d="M -0.0495,0.045 L -0.033,0.045 L -0.022500000000000006,0.040499999999999994 L -0.037500000000000006,0.045" fill="none" stroke="black" stroke-width="0.002"/>
	<path d="M 0.0345,0.0465 L 0.023999999999999994,0.041999999999999996 L 0.0345,0.0465 L 0.04949999999999999,0.0465" fill="none" stroke="black" stroke-width="0.002"/>
	<path d="M 0.04949999999999999,0.051000000000000004 L 0.046500000000000014,0.0495 L 0.05099999999999999,0.051000000000000004 L 0.055499999999999994,0.045 L 0.066,0.040499999999999994 L 0.069,0.03 L 0.0675,0.040499999999999994 L 0.05099999999999999,0.051000000000000004" fill="none" stroke="black" stroke-width="0.002"/>
	<path d="M -0.051000000000000004,0.051000000000000004 L -0.0645,0.040499999999999994 L -0.0645,0.0315 L -0.0645,0.03900000000000001 L -0.0495,0.051000000000000004" fill="none" stroke="black" stroke-width="0.002"/>
	<path d="M -0.066,0.052500000000000005 L -0.0675,0.045 L -0.07350000000000001,0.03900000000000001 L -0.0645,0.052500000000000005" fill="none" stroke="black" stroke-width="0.002"/>
	<path d="M -0.0675,0.081 L -0.0765,0.056999999999999995 L -0.0885,0.0015000000000000013 L -0.08549999999999999,-0.01200000000000001 L -0.0885,-0.013500000000000012 L -0.0975,-0.006000000000000005 L -0.0975,0.0015000000000000013 L -0.0975,-0.006000000000000005 L -0.0915,-0.01200000000000001 L -0.0945,-0.015000000000000013 L -0.08549999999999999,-0.01949999999999999 L -0.0915,-0.023999999999999994 L -0.08549999999999999,-0.026999999999999996 L -0.087,-0.03 L -0.08399999999999999,-0.026999999999999996 L -0.0825,-0.033 L -0.087,-0.0345 L -0.0915,-0.03 L -0.1005,-0.013500000000000012 L -0.1065,0.0030000000000000027 L -0.108,0.025499999999999995 L -0.1005,0.03 L -0.093,0.021000000000000005 L -0.09,0.010499999999999995 L -0.093,0.0030000000000000027 L -0.0885,0.011999999999999997 L -0.093,0.015 L -0.093,0.022500000000000006 L -0.099,0.03 L -0.10500000000000001,0.03 L -0.108,0.025499999999999995 L -0.1065,0.0030000000000000027 L -0.096,-0.023999999999999994 L -0.0885,-0.0345 L -0.081,-0.0345 L -0.0795,-0.04200000000000001 L -0.093,-0.066 L -0.1275,-0.10350000000000001 L -0.093,-0.0675 L -0.0795,-0.04350000000000001 L -0.0765,-0.058499999999999996 L -0.08399999999999999,-0.066 L -0.0885,-0.07950000000000002 L -0.08549999999999999,-0.069 L -0.0795,-0.063 L -0.07500000000000001,-0.0675 L -0.081,-0.07500000000000001 L -0.07350000000000001,-0.07800000000000001 L -0.07500000000000001,-0.08099999999999999 L -0.07200000000000001,-0.08249999999999999 L -0.0675,-0.07950000000000002 L -0.0615,-0.10650000000000001 L -0.052500000000000005,-0.126 L -0.07200000000000001,-0.069 L -0.07050000000000001,-0.07950000000000002 L -0.0795,-0.07500000000000001 L -0.07350000000000001,-0.066 L -0.0795,-0.063 L -0.0765,-0.056999999999999995 L -0.0825,-0.025499999999999995 L -0.0885,-0.023999999999999994 L -0.08399999999999999,-0.017999999999999988 L -0.0945,-0.015000000000000013 L -0.0915,-0.01200000000000001 L -0.08549999999999999,-0.013500000000000012 L -0.0885,0.0015000000000000013 L -0.081,0.03900000000000001 L -0.066,0.081" fill="none" stroke="black" stroke-width="0.002"/>
	<path d="M 0.063,0.0825 L 0.069,0.0675 L 0.069,0.054000000000000006 L 0.08249999999999999,0.0165 L 0.08249999999999999,-0.01050000000000001 L 0.09,-0.004500000000000004 L 0.0885,0.010499999999999995 L 0.08549999999999999,0.011999999999999997 L 0.09,-0.0030000000000000027 L 0.08399999999999999,-0.01050000000000001 L 0.08099999999999999,-0.007500000000000007 L 0.08399999999999999,-0.0015000000000000013 L 0.08249999999999999,0.015 L 0.0885,0.025499999999999995 L 0.08399999999999999,0.0165 L 0.08099999999999999,0.019500000000000003 L 0.069,0.054000000000000006 L 0.0645,0.081" fill="none" stroke="black" stroke-width="0.002"/>
	<path d="M -0.081,0.093 L -0.081,0.0825 L -0.07350000000000001,0.08549999999999999 L -0.078,0.0825 L -0.0825,0.08549999999999999 L -0.0795,0.093" fill="none" stroke="black" stroke-width="0.002"/>
	<path d="M 0.099,0.1275 L 0.11249999999999999,0.10500000000000001 L 0.11249999999999999,0.08549999999999999 L 0.10200000000000001,0.056999999999999995 L 0.099,0.037500000000000006 L 0.093,0.033 L 0.0945,0.03 L 0.096,0.0345 L 0.099,0.0315 L 0.0975,0.008999999999999994 L 0.0945,0.006000000000000005 L 0.09,0.019500000000000003 L 0.0885,0.0165 L 0.0945,0.006000000000000005 L 0.0945,-0.004500000000000004 L 0.0885,-0.023999999999999994 L 0.08549999999999999,-0.026999999999999996 L 0.08399999999999999,-0.023999999999999994 L 0.087,-0.028499999999999998 L 0.08399999999999999,-0.0315 L 0.0945,-0.004500000000000004 L 0.0945,0.006000000000000005 L 0.099,0.015 L 0.0975,0.036000000000000004 L 0.11249999999999999,0.08549999999999999 L 0.11249999999999999,0.10500000000000001 L 0.1005,0.126" fill="none" stroke="black" stroke-width="0.002"/>
	<path d="M -0.096,0.1275 L -0.1095,0.096 L -0.114,0.07050000000000001 L -0.1095,0.0315 L -0.114,0.055499999999999994 L -0.1125,0.08399999999999999 L -0.10500000000000001,0.1095 L -0.096,0.126" fill="none" stroke="black" stroke-width="0.002"/>
</svg>
