<?xml version="1.0" encoding="utf-8" ?>
<svg baseProfile="full" height="408.00000000000006mm" version="1.1" width="408.00000000000006mm" xmlns="http://www.w3.org/2000/svg" xmlns:ev="http://www.w3.org/2001/xml-events" xmlns:xlink="http://www.w3.org/1999/xlink"><defs /><line stroke="black" stroke-width="0.002" x1="-0.03" x2="-0.028499999999999998" y1="-0.174" y2="-0.1755" /><line stroke="black" stroke-width="0.002" x1="-0.04500000000000001" x2="-0.03900000000000001" y1="-0.16049999999999998" y2="-0.16949999999999998" /><line stroke="black" stroke-width="0.002" x1="-0.03900000000000001" x2="-0.04350000000000001" y1="-0.16949999999999998" y2="-0.16049999999999998" /><line stroke="black" stroke-width="0.002" x1="0.07650000000000001" x2="0.07200000000000001" y1="-0.14700000000000002" y2="-0.15299999999999997" /><line stroke="black" stroke-width="0.002" x1="0.07200000000000001" x2="0.07800000000000001" y1="-0.15299999999999997" y2="-0.14700000000000002" /><line stroke="black" stroke-width="0.002" x1="0.16799999999999998" x2="0.1785" y1="-0.14400000000000002" y2="-0.14700000000000002" /><line stroke="black" stroke-width="0.002" x1="0.1785" x2="0.18" y1="-0.14700000000000002" y2="-0.16049999999999998" /><line stroke="black" stroke-width="0.002" x1="0.18" x2="0.138" y1="-0.16049999999999998" y2="-0.2025" /><line stroke="black" stroke-width="0.002" x1="0.138" x2="0.177" y1="-0.2025" y2="-0.16649999999999998" /><line stroke="black" stroke-width="0.002" x1="0.177" x2="0.18" y1="-0.16649999999999998" y2="-0.16049999999999998" /><line stroke="black" stroke-width="0.002" x1="0.18" x2="0.1785" y1="-0.16049999999999998" y2="-0.14700000000000002" /><line stroke="black" stroke-width="0.002" x1="0.1785" x2="0.177" y1="-0.14700000000000002" y2="-0.14400000000000002" /><line stroke="black" stroke-width="0.002" x1="0.177" x2="0.16949999999999998" y1="-0.14400000000000002" y2="-0.14400000000000002" /><line stroke="black" stroke-width="0.002" x1="-0.05550000000000002" x2="-0.05550000000000002" y1="-0.14400000000000002" y2="-0.16499999999999998" /><line stroke="black" stroke-width="0.002" x1="-0.05550000000000002" x2="-0.04500000000000001" y1="-0.16499999999999998" y2="-0.1935" /><line stroke="black" stroke-width="0.002" x1="-0.04500000000000001" x2="-0.04500000000000001" y1="-0.1935" y2="-0.2025" /><line stroke="black" stroke-width="0.002" x1="-0.04500000000000001" x2="-0.04500000000000001" y1="-0.2025" y2="-0.1935" /><line stroke="black" stroke-width="0.002" x1="-0.04500000000000001" x2="-0.05550000000000002" y1="-0.1935" y2="-0.16499999999999998" /><line stroke="black" stroke-width="0.002" x1="-0.05550000000000002" x2="-0.05550000000000002" y1="-0.16499999999999998" y2="-0.15299999999999997" /><line stroke="black" stroke-width="0.002" x1="-0.05550000000000002" x2="-0.05100000000000002" y1="-0.15299999999999997" y2="-0.15299999999999997" /><line stroke="black" stroke-width="0.002" x1="-0.05100000000000002" x2="-0.05700000000000002" y1="-0.15299999999999997" y2="-0.14849999999999997" /><line stroke="black" stroke-width="0.002" x1="-0.05700000000000002" x2="-0.05550000000000002" y1="-0.14849999999999997" y2="-0.14550000000000002" /><line stroke="black" stroke-width="0.002" x1="0.011999999999999983" x2="0.01949999999999999" y1="-0.123" y2="-0.126" /><line stroke="black" stroke-width="0.002" x1="0.01949999999999999" x2="0.013499999999999984" y1="-0.126" y2="-0.123" /><line stroke="black" stroke-width="0.002" x1="-0.0030000000000000027" x2="-0.013500000000000012" y1="-0.12" y2="-0.126" /><line stroke="black" stroke-width="0.002" x1="-0.013500000000000012" x2="-0.0030000000000000027" y1="-0.126" y2="-0.12" /><line stroke="black" stroke-width="0.002" x1="-0.0030000000000000027" x2="0.0030000000000000027" y1="-0.12" y2="-0.1245" /><line stroke="black" stroke-width="0.002" x1="0.0030000000000000027" x2="-0.0015000000000000013" y1="-0.1245" y2="-0.1215" /><line stroke="black" stroke-width="0.002" x1="0.10799999999999998" x2="0.08849999999999997" y1="-0.11699999999999999" y2="-0.14400000000000002" /><line stroke="black" stroke-width="0.002" x1="0.08849999999999997" x2="0.10799999999999998" y1="-0.14400000000000002" y2="-0.1185" /><line stroke="black" stroke-width="0.002" x1="0.028499999999999998" x2="0.010499999999999982" y1="-0.11549999999999999" y2="-0.12" /><line stroke="black" stroke-width="0.002" x1="0.010499999999999982" x2="0.03" y1="-0.12" y2="-0.11549999999999999" /><line stroke="black" stroke-width="0.002" x1="0.11399999999999999" x2="0.11549999999999999" y1="-0.11249999999999999" y2="-0.11699999999999999" /><line stroke="black" stroke-width="0.002" x1="0.11549999999999999" x2="0.11099999999999999" y1="-0.11699999999999999" y2="-0.123" /><line stroke="black" stroke-width="0.002" x1="0.11099999999999999" x2="0.11099999999999999" y1="-0.123" y2="-0.138" /><line stroke="black" stroke-width="0.002" x1="0.11099999999999999" x2="0.10799999999999998" y1="-0.138" y2="-0.14100000000000001" /><line stroke="black" stroke-width="0.002" x1="0.10799999999999998" x2="0.11549999999999999" y1="-0.14100000000000001" y2="-0.11249999999999999" /><line stroke="black" stroke-width="0.002" x1="0.025499999999999995" x2="0.005999999999999978" y1="-0.10949999999999999" y2="-0.11399999999999999" /><line stroke="black" stroke-width="0.002" x1="0.005999999999999978" x2="0.025499999999999995" y1="-0.11399999999999999" y2="-0.11099999999999999" /><line stroke="black" stroke-width="0.002" x1="0.07800000000000001" x2="0.07650000000000001" y1="-0.10649999999999998" y2="-0.11249999999999999" /><line stroke="black" stroke-width="0.002" x1="0.07650000000000001" x2="0.08100000000000002" y1="-0.11249999999999999" y2="-0.11699999999999999" /><line stroke="black" stroke-width="0.002" x1="0.08100000000000002" x2="0.07650000000000001" y1="-0.11699999999999999" y2="-0.11249999999999999" /><line stroke="black" stroke-width="0.002" x1="0.07650000000000001" x2="0.07800000000000001" y1="-0.11249999999999999" y2="-0.10799999999999998" /><line stroke="black" stroke-width="0.002" x1="0.04799999999999999" x2="0.03899999999999998" y1="-0.09899999999999998" y2="-0.10499999999999998" /><line stroke="black" stroke-width="0.002" x1="0.03899999999999998" x2="0.04799999999999999" y1="-0.10499999999999998" y2="-0.09899999999999998" /><line stroke="black" stroke-width="0.002" x1="0.04799999999999999" x2="0.05099999999999999" y1="-0.09899999999999998" y2="-0.10499999999999998" /><line stroke="black" stroke-width="0.002" x1="0.05099999999999999" x2="0.04949999999999999" y1="-0.10499999999999998" y2="-0.10049999999999998" /><line stroke="black" stroke-width="0.002" x1="0.07200000000000001" x2="0.07800000000000001" y1="-0.09599999999999997" y2="-0.10349999999999998" /><line stroke="black" stroke-width="0.002" x1="0.07800000000000001" x2="0.08100000000000002" y1="-0.10349999999999998" y2="-0.10349999999999998" /><line stroke="black" stroke-width="0.002" x1="0.08100000000000002" x2="0.07350000000000001" y1="-0.10349999999999998" y2="-0.09599999999999997" /><line stroke="black" stroke-width="0.002" x1="-0.03" x2="-0.036000000000000004" y1="-0.09299999999999997" y2="-0.09599999999999997" /><line stroke="black" stroke-width="0.002" x1="-0.036000000000000004" x2="-0.03900000000000001" y1="-0.09599999999999997" y2="-0.09449999999999997" /><line stroke="black" stroke-width="0.002" x1="-0.03900000000000001" x2="-0.028499999999999998" y1="-0.09449999999999997" y2="-0.09299999999999997" /><line stroke="black" stroke-width="0.002" x1="-0.028499999999999998" x2="-0.016500000000000015" y1="-0.09299999999999997" y2="-0.09599999999999997" /><line stroke="black" stroke-width="0.002" x1="-0.016500000000000015" x2="-0.028499999999999998" y1="-0.09599999999999997" y2="-0.09299999999999997" /><line stroke="black" stroke-width="0.002" x1="0.03" x2="0.010499999999999982" y1="-0.08400000000000002" y2="-0.09149999999999997" /><line stroke="black" stroke-width="0.002" x1="0.010499999999999982" x2="-0.02100000000000002" y1="-0.09149999999999997" y2="-0.08699999999999997" /><line stroke="black" stroke-width="0.002" x1="-0.02100000000000002" x2="0.010499999999999982" y1="-0.08699999999999997" y2="-0.09149999999999997" /><line stroke="black" stroke-width="0.002" x1="0.010499999999999982" x2="0.03" y1="-0.09149999999999997" y2="-0.08400000000000002" /><line stroke="black" stroke-width="0.002" x1="0.03" x2="0.055499999999999994" y1="-0.08400000000000002" y2="-0.08699999999999997" /><line stroke="black" stroke-width="0.002" x1="0.055499999999999994" x2="0.05249999999999999" y1="-0.08699999999999997" y2="-0.08400000000000002" /><line stroke="black" stroke-width="0.002" x1="0.05249999999999999" x2="0.0315" y1="-0.08400000000000002" y2="-0.08400000000000002" /><line stroke="black" stroke-width="0.002" x1="-0.08700000000000001" x2="-0.069" y1="-0.07950000000000002" y2="-0.11399999999999999" /><line stroke="black" stroke-width="0.002" x1="-0.069" x2="-0.07050000000000001" y1="-0.11399999999999999" y2="-0.129" /><line stroke="black" stroke-width="0.002" x1="-0.07050000000000001" x2="-0.0615" y1="-0.129" y2="-0.14999999999999997" /><line stroke="black" stroke-width="0.002" x1="-0.0615" x2="-0.05550000000000002" y1="-0.14999999999999997" y2="-0.2025" /><line stroke="black" stroke-width="0.002" x1="-0.05550000000000002" x2="-0.0615" y1="-0.2025" y2="-0.14999999999999997" /><line stroke="black" stroke-width="0.002" x1="-0.0615" x2="-0.07050000000000001" y1="-0.14999999999999997" y2="-0.129" /><line stroke="black" stroke-width="0.002" x1="-0.07050000000000001" x2="-0.069" y1="-0.129" y2="-0.11249999999999999" /><line stroke="black" stroke-width="0.002" x1="-0.069" x2="-0.0855" y1="-0.11249999999999999" y2="-0.08100000000000002" /><line stroke="black" stroke-width="0.002" x1="0.0345" x2="0.026999999999999996" y1="-0.07500000000000001" y2="-0.07800000000000001" /><line stroke="black" stroke-width="0.002" x1="0.026999999999999996" x2="0.03899999999999998" y1="-0.07800000000000001" y2="-0.07500000000000001" /><line stroke="black" stroke-width="0.002" x1="0.03899999999999998" x2="0.04949999999999999" y1="-0.07500000000000001" y2="-0.08100000000000002" /><line stroke="black" stroke-width="0.002" x1="0.04949999999999999" x2="0.035999999999999976" y1="-0.08100000000000002" y2="-0.07500000000000001" /><line stroke="black" stroke-width="0.002" x1="0.06" x2="0.066" y1="-0.07050000000000001" y2="-0.07500000000000001" /><line stroke="black" stroke-width="0.002" x1="0.066" x2="0.0675" y1="-0.07500000000000001" y2="-0.08699999999999997" /><line stroke="black" stroke-width="0.002" x1="0.0675" x2="0.066" y1="-0.08699999999999997" y2="-0.07350000000000001" /><line stroke="black" stroke-width="0.002" x1="0.066" x2="0.0615" y1="-0.07350000000000001" y2="-0.07050000000000001" /><line stroke="black" stroke-width="0.002" x1="0.017999999999999988" x2="0.005999999999999978" y1="-0.069" y2="-0.07800000000000001" /><line stroke="black" stroke-width="0.002" x1="0.005999999999999978" x2="0.010499999999999982" y1="-0.07800000000000001" y2="-0.07200000000000001" /><line stroke="black" stroke-width="0.002" x1="0.010499999999999982" x2="0.01949999999999999" y1="-0.07200000000000001" y2="-0.069" /><line stroke="black" stroke-width="0.002" x1="-0.07950000000000002" x2="-0.08100000000000002" y1="-0.063" y2="-0.07200000000000001" /><line stroke="black" stroke-width="0.002" x1="-0.08100000000000002" x2="-0.069" y1="-0.07200000000000001" y2="-0.07800000000000001" /><line stroke="black" stroke-width="0.002" x1="-0.069" x2="-0.0645" y1="-0.07800000000000001" y2="-0.10949999999999999" /><line stroke="black" stroke-width="0.002" x1="-0.0645" x2="-0.05550000000000002" y1="-0.10949999999999999" y2="-0.1275" /><line stroke="black" stroke-width="0.002" x1="-0.05550000000000002" x2="-0.05550000000000002" y1="-0.1275" y2="-0.135" /><line stroke="black" stroke-width="0.002" x1="-0.05550000000000002" x2="-0.06" y1="-0.135" y2="-0.138" /><line stroke="black" stroke-width="0.002" x1="-0.06" x2="-0.05100000000000002" y1="-0.138" y2="-0.14100000000000001" /><line stroke="black" stroke-width="0.002" x1="-0.05100000000000002" x2="-0.036000000000000004" y1="-0.14100000000000001" y2="-0.16199999999999998" /><line stroke="black" stroke-width="0.002" x1="-0.036000000000000004" x2="-0.048000000000000015" y1="-0.16199999999999998" y2="-0.14849999999999997" /><line stroke="black" stroke-width="0.002" x1="-0.048000000000000015" x2="-0.048000000000000015" y1="-0.14849999999999997" y2="-0.14250000000000002" /><line stroke="black" stroke-width="0.002" x1="-0.048000000000000015" x2="-0.05700000000000002" y1="-0.14250000000000002" y2="-0.138" /><line stroke="black" stroke-width="0.002" x1="-0.05700000000000002" x2="-0.05550000000000002" y1="-0.138" y2="-0.1275" /><line stroke="black" stroke-width="0.002" x1="-0.05550000000000002" x2="-0.0645" y1="-0.1275" y2="-0.10949999999999999" /><line stroke="black" stroke-width="0.002" x1="-0.0645" x2="-0.069" y1="-0.10949999999999999" y2="-0.07650000000000001" /><line stroke="black" stroke-width="0.002" x1="-0.069" x2="-0.08100000000000002" y1="-0.07650000000000001" y2="-0.07050000000000001" /><line stroke="black" stroke-width="0.002" x1="-0.08100000000000002" x2="-0.07950000000000002" y1="-0.07050000000000001" y2="-0.0645" /><line stroke="black" stroke-width="0.002" x1="-0.09450000000000001" x2="-0.09600000000000002" y1="-0.04349999999999998" y2="-0.05099999999999999" /><line stroke="black" stroke-width="0.002" x1="-0.09600000000000002" x2="-0.09150000000000001" y1="-0.05099999999999999" y2="-0.055499999999999994" /><line stroke="black" stroke-width="0.002" x1="-0.09150000000000001" x2="-0.09450000000000001" y1="-0.055499999999999994" y2="-0.044999999999999984" /><line stroke="black" stroke-width="0.002" x1="-0.09000000000000001" x2="-0.08400000000000002" y1="-0.03899999999999998" y2="-0.056999999999999995" /><line stroke="black" stroke-width="0.002" x1="-0.08400000000000002" x2="-0.07950000000000002" y1="-0.056999999999999995" y2="-0.058499999999999996" /><line stroke="black" stroke-width="0.002" x1="-0.07950000000000002" x2="-0.08400000000000002" y1="-0.058499999999999996" y2="-0.055499999999999994" /><line stroke="black" stroke-width="0.002" x1="-0.08400000000000002" x2="-0.08850000000000001" y1="-0.055499999999999994" y2="-0.04049999999999998" /><line stroke="black" stroke-width="0.002" x1="0.03899999999999998" x2="0.03" y1="-0.033" y2="-0.03899999999999998" /><line stroke="black" stroke-width="0.002" x1="0.03" x2="0.023999999999999994" y1="-0.03899999999999998" y2="-0.05249999999999999" /><line stroke="black" stroke-width="0.002" x1="0.023999999999999994" x2="0.033" y1="-0.05249999999999999" y2="-0.056999999999999995" /><line stroke="black" stroke-width="0.002" x1="0.033" x2="0.035999999999999976" y1="-0.056999999999999995" y2="-0.063" /><line stroke="black" stroke-width="0.002" x1="0.035999999999999976" x2="0.07050000000000001" y1="-0.063" y2="-0.0675" /><line stroke="black" stroke-width="0.002" x1="0.07050000000000001" x2="0.03899999999999998" y1="-0.0675" y2="-0.063" /><line stroke="black" stroke-width="0.002" x1="0.03899999999999998" x2="0.025499999999999995" y1="-0.063" y2="-0.05249999999999999" /><line stroke="black" stroke-width="0.002" x1="0.025499999999999995" x2="0.025499999999999995" y1="-0.05249999999999999" y2="-0.046499999999999986" /><line stroke="black" stroke-width="0.002" x1="0.025499999999999995" x2="0.03899999999999998" y1="-0.046499999999999986" y2="-0.033" /><line stroke="black" stroke-width="0.002" x1="0.03899999999999998" x2="0.05249999999999999" y1="-0.033" y2="-0.04349999999999998" /><line stroke="black" stroke-width="0.002" x1="0.05249999999999999" x2="0.04949999999999999" y1="-0.04349999999999998" y2="-0.03749999999999998" /><line stroke="black" stroke-width="0.002" x1="0.04949999999999999" x2="0.04049999999999998" y1="-0.03749999999999998" y2="-0.0345" /><line stroke="black" stroke-width="0.002" x1="0.004499999999999976" x2="-0.0030000000000000027" y1="-0.026999999999999996" y2="-0.03899999999999998" /><line stroke="black" stroke-width="0.002" x1="-0.0030000000000000027" x2="0.005999999999999978" y1="-0.03899999999999998" y2="-0.026999999999999996" /><line stroke="black" stroke-width="0.002" x1="-0.02100000000000002" x2="-0.016500000000000015" y1="-0.026999999999999996" y2="-0.0315" /><line stroke="black" stroke-width="0.002" x1="-0.016500000000000015" x2="-0.018000000000000016" y1="-0.0315" y2="-0.035999999999999976" /><line stroke="black" stroke-width="0.002" x1="-0.018000000000000016" x2="-0.016500000000000015" y1="-0.035999999999999976" y2="-0.03" /><line stroke="black" stroke-width="0.002" x1="-0.016500000000000015" x2="-0.019500000000000017" y1="-0.03" y2="-0.028499999999999998" /><line stroke="black" stroke-width="0.002" x1="-0.11550000000000002" x2="-0.11550000000000002" y1="-0.025499999999999995" y2="-0.026999999999999996" /><line stroke="black" stroke-width="0.002" x1="0.135" x2="0.132" y1="-0.016499999999999987" y2="-0.022499999999999992" /><line stroke="black" stroke-width="0.002" x1="0.132" x2="0.135" y1="-0.022499999999999992" y2="-0.017999999999999988" /><line stroke="black" stroke-width="0.002" x1="0.005999999999999978" x2="0.011999999999999983" y1="-0.014999999999999986" y2="-0.02099999999999999" /><line stroke="black" stroke-width="0.002" x1="0.011999999999999983" x2="0.007499999999999979" y1="-0.02099999999999999" y2="-0.014999999999999986" /><line stroke="black" stroke-width="0.002" x1="-0.11550000000000002" x2="-0.11550000000000002" y1="-0.013499999999999984" y2="-0.014999999999999986" /><line stroke="black" stroke-width="0.002" x1="0.1365" x2="0.1395" y1="-0.00899999999999998" y2="-0.022499999999999992" /><line stroke="black" stroke-width="0.002" x1="0.1395" x2="0.129" y1="-0.022499999999999992" y2="-0.033" /><line stroke="black" stroke-width="0.002" x1="0.129" x2="0.132" y1="-0.033" y2="-0.04799999999999999" /><line stroke="black" stroke-width="0.002" x1="0.132" x2="0.1305" y1="-0.04799999999999999" y2="-0.069" /><line stroke="black" stroke-width="0.002" x1="0.1305" x2="0.1215" y1="-0.069" y2="-0.09599999999999997" /><line stroke="black" stroke-width="0.002" x1="0.1215" x2="0.126" y1="-0.09599999999999997" y2="-0.123" /><line stroke="black" stroke-width="0.002" x1="0.126" x2="0.1335" y1="-0.123" y2="-0.1365" /><line stroke="black" stroke-width="0.002" x1="0.1335" x2="0.16049999999999998" y1="-0.1365" y2="-0.14550000000000002" /><line stroke="black" stroke-width="0.002" x1="0.16049999999999998" x2="0.1725" y1="-0.14550000000000002" y2="-0.15899999999999997" /><line stroke="black" stroke-width="0.002" x1="0.1725" x2="0.1725" y1="-0.15899999999999997" y2="-0.16349999999999998" /><line stroke="black" stroke-width="0.002" x1="0.1725" x2="0.17099999999999999" y1="-0.16349999999999998" y2="-0.15299999999999997" /><line stroke="black" stroke-width="0.002" x1="0.17099999999999999" x2="0.16349999999999998" y1="-0.15299999999999997" y2="-0.14700000000000002" /><line stroke="black" stroke-width="0.002" x1="0.16349999999999998" x2="0.135" y1="-0.14700000000000002" y2="-0.1365" /><line stroke="black" stroke-width="0.002" x1="0.135" x2="0.126" y1="-0.1365" y2="-0.123" /><line stroke="black" stroke-width="0.002" x1="0.126" x2="0.1215" y1="-0.123" y2="-0.09599999999999997" /><line stroke="black" stroke-width="0.002" x1="0.1215" x2="0.1305" y1="-0.09599999999999997" y2="-0.069" /><line stroke="black" stroke-width="0.002" x1="0.1305" x2="0.132" y1="-0.069" y2="-0.04799999999999999" /><line stroke="black" stroke-width="0.002" x1="0.132" x2="0.129" y1="-0.04799999999999999" y2="-0.03899999999999998" /><line stroke="black" stroke-width="0.002" x1="0.129" x2="0.1395" y1="-0.03899999999999998" y2="-0.023999999999999994" /><line stroke="black" stroke-width="0.002" x1="0.1395" x2="0.1365" y1="-0.023999999999999994" y2="-0.010499999999999982" /><line stroke="black" stroke-width="0.002" x1="-0.01200000000000001" x2="0.005999999999999978" y1="-0.00899999999999998" y2="-0.023999999999999994" /><line stroke="black" stroke-width="0.002" x1="0.005999999999999978" x2="0.004499999999999976" y1="-0.023999999999999994" y2="-0.01949999999999999" /><line stroke="black" stroke-width="0.002" x1="0.004499999999999976" x2="-0.0030000000000000027" y1="-0.01949999999999999" y2="-0.017999999999999988" /><line stroke="black" stroke-width="0.002" x1="-0.0030000000000000027" x2="-0.007500000000000007" y1="-0.017999999999999988" y2="-0.013499999999999984" /><line stroke="black" stroke-width="0.002" x1="-0.007500000000000007" x2="-0.006000000000000005" y1="-0.013499999999999984" y2="-0.010499999999999982" /><line stroke="black" stroke-width="0.002" x1="-0.006000000000000005" x2="-0.01050000000000001" y1="-0.010499999999999982" y2="-0.00899999999999998" /><line stroke="black" stroke-width="0.002" x1="-0.10650000000000001" x2="-0.10200000000000001" y1="-0.005999999999999978" y2="-0.02099999999999999" /><line stroke="black" stroke-width="0.002" x1="-0.10200000000000001" x2="-0.09300000000000001" y1="-0.02099999999999999" y2="-0.0345" /><line stroke="black" stroke-width="0.002" x1="-0.09300000000000001" x2="-0.09600000000000002" y1="-0.0345" y2="-0.04049999999999998" /><line stroke="black" stroke-width="0.002" x1="-0.09600000000000002" x2="-0.09300000000000001" y1="-0.04049999999999998" y2="-0.0345" /><line stroke="black" stroke-width="0.002" x1="-0.09300000000000001" x2="-0.10650000000000001" y1="-0.0345" y2="-0.007499999999999979" /><line stroke="black" stroke-width="0.002" x1="-0.006000000000000005" x2="0.0030000000000000027" y1="-0.004499999999999976" y2="-0.014999999999999986" /><line stroke="black" stroke-width="0.002" x1="0.0030000000000000027" x2="-0.004500000000000004" y1="-0.014999999999999986" y2="-0.004499999999999976" /><line stroke="black" stroke-width="0.002" x1="-0.0030000000000000027" x2="0.0030000000000000027" y1="0.0015000000000000013" y2="-0.00899999999999998" /><line stroke="black" stroke-width="0.002" x1="0.0030000000000000027" x2="-0.0015000000000000013" y1="-0.00899999999999998" y2="-0.0" /><line stroke="black" stroke-width="0.002" x1="0.01949999999999999" x2="0.02099999999999999" y1="0.01200000000000001" y2="0.0015000000000000013" /><line stroke="black" stroke-width="0.002" x1="0.02099999999999999" x2="0.03749999999999998" y1="0.0015000000000000013" y2="-0.022499999999999992" /><line stroke="black" stroke-width="0.002" x1="0.03749999999999998" x2="0.0315" y1="-0.022499999999999992" y2="-0.026999999999999996" /><line stroke="black" stroke-width="0.002" x1="0.0315" x2="0.01949999999999999" y1="-0.026999999999999996" y2="-0.025499999999999995" /><line stroke="black" stroke-width="0.002" x1="0.01949999999999999" x2="0.013499999999999984" y1="-0.025499999999999995" y2="-0.028499999999999998" /><line stroke="black" stroke-width="0.002" x1="0.013499999999999984" x2="0.0015000000000000013" y1="-0.028499999999999998" y2="-0.044999999999999984" /><line stroke="black" stroke-width="0.002" x1="0.0015000000000000013" x2="-0.009000000000000008" y1="-0.044999999999999984" y2="-0.04349999999999998" /><line stroke="black" stroke-width="0.002" x1="-0.009000000000000008" x2="0.0030000000000000027" y1="-0.04349999999999998" y2="-0.044999999999999984" /><line stroke="black" stroke-width="0.002" x1="0.0030000000000000027" x2="0.004499999999999976" y1="-0.044999999999999984" y2="-0.03899999999999998" /><line stroke="black" stroke-width="0.002" x1="0.004499999999999976" x2="0.01949999999999999" y1="-0.03899999999999998" y2="-0.025499999999999995" /><line stroke="black" stroke-width="0.002" x1="0.01949999999999999" x2="0.028499999999999998" y1="-0.025499999999999995" y2="-0.026999999999999996" /><line stroke="black" stroke-width="0.002" x1="0.028499999999999998" x2="0.02099999999999999" y1="-0.026999999999999996" y2="-0.0345" /><line stroke="black" stroke-width="0.002" x1="0.02099999999999999" x2="0.016499999999999987" y1="-0.0345" y2="-0.033" /><line stroke="black" stroke-width="0.002" x1="0.016499999999999987" x2="0.025499999999999995" y1="-0.033" y2="-0.033" /><line stroke="black" stroke-width="0.002" x1="0.025499999999999995" x2="0.03" y1="-0.033" y2="-0.026999999999999996" /><line stroke="black" stroke-width="0.002" x1="0.03" x2="0.035999999999999976" y1="-0.026999999999999996" y2="-0.025499999999999995" /><line stroke="black" stroke-width="0.002" x1="0.035999999999999976" x2="0.035999999999999976" y1="-0.025499999999999995" y2="-0.016499999999999987" /><line stroke="black" stroke-width="0.002" x1="0.035999999999999976" x2="0.025499999999999995" y1="-0.016499999999999987" y2="-0.0030000000000000027" /><line stroke="black" stroke-width="0.002" x1="0.025499999999999995" x2="0.02099999999999999" y1="-0.0030000000000000027" y2="0.01050000000000001" /><line stroke="black" stroke-width="0.002" x1="0.007499999999999979" x2="0.014999999999999986" y1="0.013500000000000012" y2="-0.0" /><line stroke="black" stroke-width="0.002" x1="0.014999999999999986" x2="0.007499999999999979" y1="-0.0" y2="0.01200000000000001" /><line stroke="black" stroke-width="0.002" x1="-0.117" x2="-0.08700000000000001" y1="0.013500000000000012" y2="-0.10049999999999998" /><line stroke="black" stroke-width="0.002" x1="-0.08700000000000001" x2="-0.07650000000000001" y1="-0.10049999999999998" y2="-0.1185" /><line stroke="black" stroke-width="0.002" x1="-0.07650000000000001" x2="-0.07200000000000001" y1="-0.1185" y2="-0.12" /><line stroke="black" stroke-width="0.002" x1="-0.07200000000000001" x2="-0.08100000000000002" y1="-0.12" y2="-0.11099999999999999" /><line stroke="black" stroke-width="0.002" x1="-0.08100000000000002" x2="-0.08850000000000001" y1="-0.11099999999999999" y2="-0.09599999999999997" /><line stroke="black" stroke-width="0.002" x1="-0.08850000000000001" x2="-0.117" y1="-0.09599999999999997" y2="0.01200000000000001" /><line stroke="black" stroke-width="0.002" x1="0.07650000000000001" x2="0.055499999999999994" y1="0.03900000000000001" y2="0.033" /><line stroke="black" stroke-width="0.002" x1="0.055499999999999994" x2="0.07500000000000001" y1="0.033" y2="0.037500000000000006" /><line stroke="black" stroke-width="0.002" x1="-0.069" x2="-0.07350000000000001" y1="0.03900000000000001" y2="0.037500000000000006" /><line stroke="black" stroke-width="0.002" x1="-0.07350000000000001" x2="-0.07350000000000001" y1="0.037500000000000006" y2="0.033" /><line stroke="black" stroke-width="0.002" x1="-0.07350000000000001" x2="-0.0645" y1="0.033" y2="0.0315" /><line stroke="black" stroke-width="0.002" x1="-0.0645" x2="-0.07350000000000001" y1="0.0315" y2="0.036000000000000004" /><line stroke="black" stroke-width="0.002" x1="-0.07350000000000001" x2="-0.0675" y1="0.036000000000000004" y2="0.037500000000000006" /><line stroke="black" stroke-width="0.002" x1="-0.05700000000000002" x2="-0.058500000000000024" y1="0.04050000000000001" y2="0.037500000000000006" /><line stroke="black" stroke-width="0.002" x1="-0.058500000000000024" x2="-0.05250000000000002" y1="0.037500000000000006" y2="0.037500000000000006" /><line stroke="black" stroke-width="0.002" x1="-0.05250000000000002" x2="-0.05550000000000002" y1="0.037500000000000006" y2="0.033" /><line stroke="black" stroke-width="0.002" x1="-0.05550000000000002" x2="-0.05250000000000002" y1="0.033" y2="0.036000000000000004" /><line stroke="black" stroke-width="0.002" x1="-0.05250000000000002" x2="-0.05550000000000002" y1="0.036000000000000004" y2="0.03900000000000001" /><line stroke="black" stroke-width="0.002" x1="0.09299999999999997" x2="0.08699999999999997" y1="0.04200000000000001" y2="0.037500000000000006" /><line stroke="black" stroke-width="0.002" x1="0.08699999999999997" x2="0.08699999999999997" y1="0.037500000000000006" y2="0.0315" /><line stroke="black" stroke-width="0.002" x1="0.08699999999999997" x2="0.07500000000000001" y1="0.0315" y2="0.02250000000000002" /><line stroke="black" stroke-width="0.002" x1="0.07500000000000001" x2="0.08549999999999996" y1="0.02250000000000002" y2="0.028499999999999998" /><line stroke="black" stroke-width="0.002" x1="0.08549999999999996" x2="0.08699999999999997" y1="0.028499999999999998" y2="0.036000000000000004" /><line stroke="black" stroke-width="0.002" x1="0.08699999999999997" x2="0.09449999999999997" y1="0.036000000000000004" y2="0.04200000000000001" /><line stroke="black" stroke-width="0.002" x1="-0.08250000000000002" x2="-0.08850000000000001" y1="0.04200000000000001" y2="0.03900000000000001" /><line stroke="black" stroke-width="0.002" x1="-0.08850000000000001" x2="-0.08100000000000002" y1="0.03900000000000001" y2="0.04200000000000001" /><line stroke="black" stroke-width="0.002" x1="0.174" x2="0.177" y1="0.04350000000000001" y2="0.03900000000000001" /><line stroke="black" stroke-width="0.002" x1="0.177" x2="0.16499999999999998" y1="0.03900000000000001" y2="0.0315" /><line stroke="black" stroke-width="0.002" x1="0.16499999999999998" x2="0.16949999999999998" y1="0.0315" y2="0.027000000000000024" /><line stroke="black" stroke-width="0.002" x1="0.16949999999999998" x2="0.16049999999999998" y1="0.027000000000000024" y2="0.015000000000000013" /><line stroke="black" stroke-width="0.002" x1="0.16049999999999998" x2="0.17099999999999999" y1="0.015000000000000013" y2="0.025500000000000023" /><line stroke="black" stroke-width="0.002" x1="0.17099999999999999" x2="0.16649999999999998" y1="0.025500000000000023" y2="0.0315" /><line stroke="black" stroke-width="0.002" x1="0.16649999999999998" x2="0.18" y1="0.0315" y2="0.03900000000000001" /><line stroke="black" stroke-width="0.002" x1="0.18" x2="0.174" y1="0.03900000000000001" y2="0.04200000000000001" /><line stroke="black" stroke-width="0.002" x1="-0.004500000000000004" x2="0.0030000000000000027" y1="0.046500000000000014" y2="0.046500000000000014" /><line stroke="black" stroke-width="0.002" x1="0.0030000000000000027" x2="0.014999999999999986" y1="0.046500000000000014" y2="0.0345" /><line stroke="black" stroke-width="0.002" x1="0.014999999999999986" x2="0.025499999999999995" y1="0.0345" y2="0.01050000000000001" /><line stroke="black" stroke-width="0.002" x1="0.025499999999999995" x2="0.014999999999999986" y1="0.01050000000000001" y2="0.036000000000000004" /><line stroke="black" stroke-width="0.002" x1="0.014999999999999986" x2="0.004499999999999976" y1="0.036000000000000004" y2="0.046500000000000014" /><line stroke="black" stroke-width="0.002" x1="0.004499999999999976" x2="-0.0030000000000000027" y1="0.046500000000000014" y2="0.046500000000000014" /><line stroke="black" stroke-width="0.002" x1="0.132" x2="0.1335" y1="0.048000000000000015" y2="0.046500000000000014" /><line stroke="black" stroke-width="0.002" x1="0.07500000000000001" x2="0.0675" y1="0.048000000000000015" y2="0.04050000000000001" /><line stroke="black" stroke-width="0.002" x1="0.0675" x2="0.05399999999999999" y1="0.04050000000000001" y2="0.04200000000000001" /><line stroke="black" stroke-width="0.002" x1="0.05399999999999999" x2="0.0675" y1="0.04200000000000001" y2="0.04050000000000001" /><line stroke="black" stroke-width="0.002" x1="0.0675" x2="0.07650000000000001" y1="0.04050000000000001" y2="0.048000000000000015" /><line stroke="black" stroke-width="0.002" x1="-0.165" x2="-0.15000000000000002" y1="0.048000000000000015" y2="0.027000000000000024" /><line stroke="black" stroke-width="0.002" x1="-0.15000000000000002" x2="-0.15000000000000002" y1="0.027000000000000024" y2="0.018000000000000016" /><line stroke="black" stroke-width="0.002" x1="-0.15000000000000002" x2="-0.14550000000000002" y1="0.018000000000000016" y2="0.01200000000000001" /><line stroke="black" stroke-width="0.002" x1="-0.14550000000000002" x2="-0.15000000000000002" y1="0.01200000000000001" y2="0.019500000000000017" /><line stroke="black" stroke-width="0.002" x1="-0.15000000000000002" x2="-0.14850000000000002" y1="0.019500000000000017" y2="0.02400000000000002" /><line stroke="black" stroke-width="0.002" x1="-0.14850000000000002" x2="-0.14550000000000002" y1="0.02400000000000002" y2="0.02250000000000002" /><line stroke="black" stroke-width="0.002" x1="-0.14550000000000002" x2="-0.1635" y1="0.02250000000000002" y2="0.046500000000000014" /><line stroke="black" stroke-width="0.002" x1="0.04199999999999998" x2="0.046499999999999986" y1="0.049500000000000016" y2="0.04200000000000001" /><line stroke="black" stroke-width="0.002" x1="0.046499999999999986" x2="0.04349999999999998" y1="0.04200000000000001" y2="0.03900000000000001" /><line stroke="black" stroke-width="0.002" x1="0.04349999999999998" x2="0.0345" y1="0.03900000000000001" y2="0.04200000000000001" /><line stroke="black" stroke-width="0.002" x1="0.0345" x2="0.044999999999999984" y1="0.04200000000000001" y2="0.03900000000000001" /><line stroke="black" stroke-width="0.002" x1="0.044999999999999984" x2="0.04349999999999998" y1="0.03900000000000001" y2="0.048000000000000015" /><line stroke="black" stroke-width="0.002" x1="-0.007500000000000007" x2="-0.019500000000000017" y1="0.049500000000000016" y2="0.036000000000000004" /><line stroke="black" stroke-width="0.002" x1="-0.019500000000000017" x2="-0.02250000000000002" y1="0.036000000000000004" y2="0.02250000000000002" /><line stroke="black" stroke-width="0.002" x1="-0.02250000000000002" x2="-0.019500000000000017" y1="0.02250000000000002" y2="0.036000000000000004" /><line stroke="black" stroke-width="0.002" x1="-0.019500000000000017" x2="-0.007500000000000007" y1="0.036000000000000004" y2="0.048000000000000015" /><line stroke="black" stroke-width="0.002" x1="0.07800000000000001" x2="0.08999999999999997" y1="0.05250000000000002" y2="0.048000000000000015" /><line stroke="black" stroke-width="0.002" x1="0.08999999999999997" x2="0.08549999999999996" y1="0.048000000000000015" y2="0.05250000000000002" /><line stroke="black" stroke-width="0.002" x1="0.08549999999999996" x2="0.07950000000000002" y1="0.05250000000000002" y2="0.05250000000000002" /><line stroke="black" stroke-width="0.002" x1="0.06" x2="0.04799999999999999" y1="0.05550000000000002" y2="0.05400000000000002" /><line stroke="black" stroke-width="0.002" x1="0.04799999999999999" x2="0.06" y1="0.05400000000000002" y2="0.05550000000000002" /><line stroke="black" stroke-width="0.002" x1="0.06" x2="0.0675" y1="0.05550000000000002" y2="0.049500000000000016" /><line stroke="black" stroke-width="0.002" x1="0.0675" x2="0.066" y1="0.049500000000000016" y2="0.046500000000000014" /><line stroke="black" stroke-width="0.002" x1="0.066" x2="0.055499999999999994" y1="0.046500000000000014" y2="0.04500000000000001" /><line stroke="black" stroke-width="0.002" x1="0.055499999999999994" x2="0.069" y1="0.04500000000000001" y2="0.048000000000000015" /><line stroke="black" stroke-width="0.002" x1="0.069" x2="0.0645" y1="0.048000000000000015" y2="0.05250000000000002" /><line stroke="black" stroke-width="0.002" x1="0.0645" x2="0.0675" y1="0.05250000000000002" y2="0.05550000000000002" /><line stroke="black" stroke-width="0.002" x1="0.0675" x2="0.0615" y1="0.05550000000000002" y2="0.05400000000000002" /><line stroke="black" stroke-width="0.002" x1="0.15299999999999997" x2="0.16049999999999998" y1="0.058500000000000024" y2="0.05250000000000002" /><line stroke="black" stroke-width="0.002" x1="0.16049999999999998" x2="0.16949999999999998" y1="0.05250000000000002" y2="0.05100000000000002" /><line stroke="black" stroke-width="0.002" x1="0.16949999999999998" x2="0.15449999999999997" y1="0.05100000000000002" y2="0.05700000000000002" /><line stroke="black" stroke-width="0.002" x1="0.07200000000000001" x2="0.08549999999999996" y1="0.0645" y2="0.06" /><line stroke="black" stroke-width="0.002" x1="0.08549999999999996" x2="0.08849999999999997" y1="0.06" y2="0.05550000000000002" /><line stroke="black" stroke-width="0.002" x1="0.08849999999999997" x2="0.08699999999999997" y1="0.05550000000000002" y2="0.06" /><line stroke="black" stroke-width="0.002" x1="0.08699999999999997" x2="0.07350000000000001" y1="0.06" y2="0.063" /><line stroke="black" stroke-width="0.002" x1="-0.09150000000000001" x2="-0.10200000000000001" y1="0.0645" y2="0.06" /><line stroke="black" stroke-width="0.002" x1="-0.10200000000000001" x2="-0.09300000000000001" y1="0.06" y2="0.063" /><line stroke="black" stroke-width="0.002" x1="0.123" x2="0.129" y1="0.069" y2="0.058500000000000024" /><line stroke="black" stroke-width="0.002" x1="0.129" x2="0.14100000000000001" y1="0.058500000000000024" y2="0.05100000000000002" /><line stroke="black" stroke-width="0.002" x1="0.14100000000000001" x2="0.1245" y1="0.05100000000000002" y2="0.0675" /><line stroke="black" stroke-width="0.002" x1="0.10049999999999998" x2="0.10199999999999998" y1="0.07800000000000001" y2="0.069" /><line stroke="black" stroke-width="0.002" x1="0.10199999999999998" x2="0.10199999999999998" y1="0.069" y2="0.07650000000000001" /><line stroke="black" stroke-width="0.002" x1="0.05399999999999999" x2="0.0345" y1="0.07800000000000001" y2="0.07350000000000001" /><line stroke="black" stroke-width="0.002" x1="0.0345" x2="0.0315" y1="0.07350000000000001" y2="0.07050000000000001" /><line stroke="black" stroke-width="0.002" x1="0.0315" x2="0.03899999999999998" y1="0.07050000000000001" y2="0.07500000000000001" /><line stroke="black" stroke-width="0.002" x1="0.03899999999999998" x2="0.05249999999999999" y1="0.07500000000000001" y2="0.07650000000000001" /><line stroke="black" stroke-width="0.002" x1="0.12" x2="0.1185" y1="0.08400000000000002" y2="0.07800000000000001" /><line stroke="black" stroke-width="0.002" x1="0.1185" x2="0.138" y1="0.07800000000000001" y2="0.063" /><line stroke="black" stroke-width="0.002" x1="0.138" x2="0.14400000000000002" y1="0.063" y2="0.066" /><line stroke="black" stroke-width="0.002" x1="0.14400000000000002" x2="0.15449999999999997" y1="0.066" y2="0.063" /><line stroke="black" stroke-width="0.002" x1="0.15449999999999997" x2="0.14250000000000002" y1="0.063" y2="0.066" /><line stroke="black" stroke-width="0.002" x1="0.14250000000000002" x2="0.1365" y1="0.066" y2="0.07200000000000001" /><line stroke="black" stroke-width="0.002" x1="0.1365" x2="0.14250000000000002" y1="0.07200000000000001" y2="0.0645" /><line stroke="black" stroke-width="0.002" x1="0.14250000000000002" x2="0.1395" y1="0.0645" y2="0.063" /><line stroke="black" stroke-width="0.002" x1="0.1395" x2="0.132" y1="0.063" y2="0.07200000000000001" /><line stroke="black" stroke-width="0.002" x1="0.132" x2="0.12" y1="0.07200000000000001" y2="0.07800000000000001" /><line stroke="black" stroke-width="0.002" x1="0.12" x2="0.11699999999999999" y1="0.07800000000000001" y2="0.08100000000000002" /><line stroke="black" stroke-width="0.002" x1="0.11699999999999999" x2="0.12" y1="0.08100000000000002" y2="0.08250000000000002" /><line stroke="black" stroke-width="0.002" x1="-0.201" x2="-0.20400000000000001" y1="0.08400000000000002" y2="0.08250000000000002" /><line stroke="black" stroke-width="0.002" x1="-0.20400000000000001" x2="-0.198" y1="0.08250000000000002" y2="0.08400000000000002" /><line stroke="black" stroke-width="0.002" x1="-0.198" x2="-0.1935" y1="0.08400000000000002" y2="0.08100000000000002" /><line stroke="black" stroke-width="0.002" x1="-0.1935" x2="-0.18450000000000003" y1="0.08100000000000002" y2="0.0615" /><line stroke="black" stroke-width="0.002" x1="-0.18450000000000003" x2="-0.18000000000000002" y1="0.0615" y2="0.04050000000000001" /><line stroke="black" stroke-width="0.002" x1="-0.18000000000000002" x2="-0.17400000000000002" y1="0.04050000000000001" y2="0.036000000000000004" /><line stroke="black" stroke-width="0.002" x1="-0.17400000000000002" x2="-0.18150000000000002" y1="0.036000000000000004" y2="0.04500000000000001" /><line stroke="black" stroke-width="0.002" x1="-0.18150000000000002" x2="-0.18300000000000002" y1="0.04500000000000001" y2="0.06" /><line stroke="black" stroke-width="0.002" x1="-0.18300000000000002" x2="-0.1935" y1="0.06" y2="0.08250000000000002" /><line stroke="black" stroke-width="0.002" x1="-0.1935" x2="-0.1995" y1="0.08250000000000002" y2="0.08400000000000002" /><line stroke="black" stroke-width="0.002" x1="0.135" x2="0.132" y1="0.1005" y2="0.09600000000000002" /><line stroke="black" stroke-width="0.002" x1="0.132" x2="0.1365" y1="0.09600000000000002" y2="0.1005" /><line stroke="black" stroke-width="0.002" x1="0.1365" x2="0.1395" y1="0.1005" y2="0.09900000000000002" /><line stroke="black" stroke-width="0.002" x1="0.1395" x2="0.14849999999999997" y1="0.09900000000000002" y2="0.09000000000000001" /><line stroke="black" stroke-width="0.002" x1="0.14849999999999997" x2="0.14999999999999997" y1="0.09000000000000001" y2="0.08100000000000002" /><line stroke="black" stroke-width="0.002" x1="0.14999999999999997" x2="0.1875" y1="0.08100000000000002" y2="0.07500000000000001" /><line stroke="black" stroke-width="0.002" x1="0.1875" x2="0.15299999999999997" y1="0.07500000000000001" y2="0.08250000000000002" /><line stroke="black" stroke-width="0.002" x1="0.15299999999999997" x2="0.14700000000000002" y1="0.08250000000000002" y2="0.09300000000000001" /><line stroke="black" stroke-width="0.002" x1="0.14700000000000002" x2="0.1365" y1="0.09300000000000001" y2="0.1005" /><line stroke="black" stroke-width="0.002" x1="0.1245" x2="0.10949999999999999" y1="0.12000000000000001" y2="0.1005" /><line stroke="black" stroke-width="0.002" x1="0.10949999999999999" x2="0.126" y1="0.1005" y2="0.12000000000000001" /><line stroke="black" stroke-width="0.002" x1="-0.18150000000000002" x2="-0.1875" y1="0.15150000000000002" y2="0.12450000000000001" /><line stroke="black" stroke-width="0.002" x1="-0.1875" x2="-0.1995" y1="0.12450000000000001" y2="0.11100000000000002" /><line stroke="black" stroke-width="0.002" x1="-0.1995" x2="-0.1875" y1="0.11100000000000002" y2="0.12450000000000001" /><line stroke="black" stroke-width="0.002" x1="-0.1875" x2="-0.18150000000000002" y1="0.12450000000000001" y2="0.15000000000000002" /><line stroke="black" stroke-width="0.002" x1="-0.0615" x2="-0.07500000000000001" y1="0.171" y2="0.15750000000000003" /><line stroke="black" stroke-width="0.002" x1="-0.07500000000000001" x2="-0.06" y1="0.15750000000000003" y2="0.171" /><line stroke="black" stroke-width="0.002" x1="-0.05100000000000002" x2="-0.037500000000000006" y1="0.18150000000000002" y2="0.15600000000000003" /><line stroke="black" stroke-width="0.002" x1="-0.037500000000000006" x2="-0.049500000000000016" y1="0.15600000000000003" y2="0.18000000000000002" /><line stroke="black" stroke-width="0.002" x1="-0.04500000000000001" x2="-0.0345" y1="0.1875" y2="0.1695" /><line stroke="black" stroke-width="0.002" x1="-0.0345" x2="-0.036000000000000004" y1="0.1695" y2="0.1665" /><line stroke="black" stroke-width="0.002" x1="-0.036000000000000004" x2="-0.033" y1="0.1665" y2="0.168" /><line stroke="black" stroke-width="0.002" x1="-0.033" x2="-0.04350000000000001" y1="0.168" y2="0.186" /><line stroke="black" stroke-width="0.002" x1="-0.0345" x2="-0.02400000000000002" y1="0.189" y2="0.1665" /><line stroke="black" stroke-width="0.002" x1="-0.02400000000000002" x2="-0.033" y1="0.1665" y2="0.1875" /><line stroke="black" stroke-width="0.002" x1="-0.0645" x2="-0.0675" y1="0.189" y2="0.18000000000000002" /><line stroke="black" stroke-width="0.002" x1="-0.0675" x2="-0.07500000000000001" y1="0.18000000000000002" y2="0.18000000000000002" /><line stroke="black" stroke-width="0.002" x1="-0.07500000000000001" x2="-0.066" y1="0.18000000000000002" y2="0.18000000000000002" /><line stroke="black" stroke-width="0.002" x1="-0.066" x2="-0.063" y1="0.18000000000000002" y2="0.18300000000000002" /><line stroke="black" stroke-width="0.002" x1="-0.063" x2="-0.0645" y1="0.18300000000000002" y2="0.1875" /><line stroke="black" stroke-width="0.002" x1="0.1305" x2="0.1275" y1="0.195" y2="0.1935" /><line stroke="black" stroke-width="0.002" x1="0.1275" x2="0.1395" y1="0.1935" y2="0.17400000000000002" /><line stroke="black" stroke-width="0.002" x1="0.1395" x2="0.1365" y1="0.17400000000000002" y2="0.1365" /><line stroke="black" stroke-width="0.002" x1="0.1365" x2="0.14700000000000002" y1="0.1365" y2="0.117" /><line stroke="black" stroke-width="0.002" x1="0.14700000000000002" x2="0.1365" y1="0.117" y2="0.1365" /><line stroke="black" stroke-width="0.002" x1="0.1365" x2="0.1395" y1="0.1365" y2="0.17400000000000002" /><line stroke="black" stroke-width="0.002" x1="0.1395" x2="0.1305" y1="0.17400000000000002" y2="0.1935" /><line stroke="black" stroke-width="0.002" x1="-0.02400000000000002" x2="0.0" y1="0.195" y2="0.168" /><line stroke="black" stroke-width="0.002" x1="0.0" x2="-0.02250000000000002" y1="0.168" y2="0.195" /><line stroke="black" stroke-width="0.002" x1="-0.019500000000000017" x2="-0.0015000000000000013" y1="0.1995" y2="0.186" /><line stroke="black" stroke-width="0.002" x1="-0.0015000000000000013" x2="0.004499999999999976" y1="0.186" y2="0.17700000000000002" /><line stroke="black" stroke-width="0.002" x1="0.004499999999999976" x2="0.0" y1="0.17700000000000002" y2="0.186" /><line stroke="black" stroke-width="0.002" x1="0.0" x2="-0.018000000000000016" y1="0.186" y2="0.198" /><line stroke="black" stroke-width="0.002" x1="0.08699999999999997" x2="0.08549999999999996" y1="0.20400000000000001" y2="0.201" /><line stroke="black" stroke-width="0.002" x1="0.08549999999999996" x2="0.09149999999999997" y1="0.201" y2="0.198" /><line stroke="black" stroke-width="0.002" x1="0.09149999999999997" x2="0.09449999999999997" y1="0.198" y2="0.1875" /><line stroke="black" stroke-width="0.002" x1="0.09449999999999997" x2="0.09749999999999998" y1="0.1875" y2="0.1875" /><line stroke="black" stroke-width="0.002" x1="0.09749999999999998" x2="0.08699999999999997" y1="0.1875" y2="0.2025" /><line stroke="black" stroke-width="0.002" x1="0.0015000000000000013" x2="-0.0015000000000000013" y1="0.20400000000000001" y2="0.2025" /><line stroke="black" stroke-width="0.002" x1="-0.0015000000000000013" x2="0.02099999999999999" y1="0.2025" y2="0.186" /><line stroke="black" stroke-width="0.002" x1="0.02099999999999999" x2="0.026999999999999996" y1="0.186" y2="0.192" /><line stroke="black" stroke-width="0.002" x1="0.026999999999999996" x2="0.035999999999999976" y1="0.192" y2="0.192" /><line stroke="black" stroke-width="0.002" x1="0.035999999999999976" x2="0.035999999999999976" y1="0.192" y2="0.195" /><line stroke="black" stroke-width="0.002" x1="0.035999999999999976" x2="0.02099999999999999" y1="0.195" y2="0.189" /><line stroke="black" stroke-width="0.002" x1="0.02099999999999999" x2="0.0" y1="0.189" y2="0.2025" /><line stroke="black" stroke-width="0.002" x1="-0.06" x2="-0.07050000000000001" y1="0.20400000000000001" y2="0.1905" /><line stroke="black" stroke-width="0.002" x1="-0.07050000000000001" x2="-0.05700000000000002" y1="0.1905" y2="0.201" /><line stroke="black" stroke-width="0.002" x1="-0.05700000000000002" x2="-0.06" y1="0.201" y2="0.2025" /><line stroke="black" stroke-width="0.002" x1="-0.17400000000000002" x2="-0.18150000000000002" y1="0.20400000000000001" y2="0.15450000000000003" /><line stroke="black" stroke-width="0.002" x1="-0.18150000000000002" x2="-0.17550000000000002" y1="0.15450000000000003" y2="0.18150000000000002" /><line stroke="black" stroke-width="0.002" x1="-0.17550000000000002" x2="-0.17550000000000002" y1="0.18150000000000002" y2="0.2025" /></svg>