<?xml version="1.0" ?>
<svg xmlns="http://www.w3.org/2000/svg" xmlns:ev="http://www.w3.org/2001/xml-events" xmlns:xlink="http://www.w3.org/1999/xlink" baseProfile="full" height="600px" version="1.1" viewBox="-0.16648800000000002 -0.16498800000000002 0.33147600000000005 0.33147600000000005" width="600px">
	<defs/>
	<path d="M 0.11174999999999999,-0.12975 L 0.10724999999999998,-0.13125 L 0.11624999999999999,-0.13725 L 0.11775,-0.13275 L 0.11624999999999999,-0.13575 L 0.11024999999999999,-0.13125 L 0.11324999999999999,-0.12975" fill="none" stroke="black" stroke-width="0.002"/>
	<path d="M -0.11025000000000001,-0.12375 L -0.10875000000000001,-0.13425 L -0.11475000000000002,-0.13275 L -0.11925000000000001,-0.13575 L -0.10875000000000001,-0.13425 L -0.11025000000000001,-0.12525" fill="none" stroke="black" stroke-width="0.002"/>
	<path d="M 0.09675,-0.12225 L 0.10424999999999998,-0.12825 L 0.09825,-0.12225" fill="none" stroke="black" stroke-width="0.002"/>
	<path d="M 0.07124999999999998,-0.10874999999999999 L 0.06825,-0.12525 L 0.06225,-0.13275 L 0.06225,-0.13725 L 0.06825,-0.12675 L 0.07124999999999998,-0.11174999999999999" fill="none" stroke="black" stroke-width="0.002"/>
	<path d="M 0.07574999999999998,-0.10724999999999998 L 0.07574999999999998,-0.13725" fill="none" stroke="black" stroke-width="0.002"/>
	<path d="M -0.07725000000000001,-0.10424999999999998 L -0.07125000000000001,-0.12975 L -0.07575000000000001,-0.10574999999999998" fill="none" stroke="black" stroke-width="0.002"/>
	<path d="M 0.026249999999999996,-0.09825 L 0.015749999999999986,-0.10274999999999998 L 0.026249999999999996,-0.09975" fill="none" stroke="black" stroke-width="0.002"/>
	<path d="M 0.03375,-0.07574999999999998 L 0.03375,-0.08024999999999999 L 0.023249999999999993,-0.08925 L 0.00824999999999998,-0.09075 L -0.0037500000000000033,-0.08775 L 0.0037500000000000033,-0.09075 L 0.023249999999999993,-0.08925 L 0.03824999999999998,-0.07574999999999998" fill="none" stroke="black" stroke-width="0.002"/>
	<path d="M 0.03375,-0.06974999999999998 L 0.015749999999999986,-0.07574999999999998 L -0.012750000000000011,-0.07574999999999998 L -0.024750000000000008,-0.08324999999999999 L -0.012750000000000011,-0.07574999999999998 L 0.015749999999999986,-0.07574999999999998 L 0.03375,-0.06974999999999998 L 0.05024999999999999,-0.07274999999999998 L 0.04124999999999998,-0.06974999999999998" fill="none" stroke="black" stroke-width="0.002"/>
	<path d="M 0.024749999999999994,-0.05174999999999999 L 0.0037500000000000033,-0.05474999999999999 L 0.023249999999999993,-0.05324999999999999" fill="none" stroke="black" stroke-width="0.002"/>
	<path d="M 0.03974999999999998,-0.045749999999999985 L 0.05474999999999999,-0.05024999999999999 L 0.06375,-0.06825 L 0.05925,-0.06375 L 0.057749999999999996,-0.05174999999999999 L 0.045749999999999985,-0.045749999999999985" fill="none" stroke="black" stroke-width="0.002"/>
	<path d="M -0.01125000000000001,-0.044249999999999984 L -0.012750000000000011,-0.045749999999999985" fill="none" stroke="black" stroke-width="0.002"/>
	<path d="M 0.03375,-0.04274999999999998 L 0.03824999999999998,-0.04274999999999998" fill="none" stroke="black" stroke-width="0.002"/>
	<path d="M -0.005250000000000005,-0.04274999999999998 L -0.01125000000000001,-0.04874999999999999 L -0.02775000000000001,-0.05474999999999999 L -0.036750000000000005,-0.06974999999999998 L -0.02625000000000001,-0.05474999999999999 L -0.009750000000000009,-0.04874999999999999 L -0.006750000000000006,-0.044249999999999984" fill="none" stroke="black" stroke-width="0.002"/>
	<path d="M 0.09975,-0.035250000000000004 L 0.09225,-0.07874999999999999 L 0.08324999999999999,-0.08925 L 0.08024999999999999,-0.09975 L 0.13275,-0.13725 L 0.13725,-0.13725 L 0.08024999999999999,-0.09975 L 0.08024999999999999,-0.09525 L 0.09225,-0.08024999999999999 L 0.09975,-0.045749999999999985" fill="none" stroke="black" stroke-width="0.002"/>
	<path d="M -0.10875000000000001,-0.035250000000000004 L -0.12075000000000001,-0.05174999999999999 L -0.13275,-0.056249999999999994 L -0.13875,-0.05474999999999999 L -0.13275,-0.056249999999999994 L -0.11925000000000001,-0.05174999999999999 L -0.10725000000000001,-0.035250000000000004 L -0.09525,-0.06225 L -0.08925000000000001,-0.09075 L -0.11475000000000002,-0.12375 L -0.13125,-0.13575 L -0.12825,-0.13725 L -0.08925000000000001,-0.09375 L -0.08925000000000001,-0.08174999999999999 L -0.10575000000000001,-0.035250000000000004" fill="none" stroke="black" stroke-width="0.002"/>
	<path d="M 0.029249999999999998,-0.029249999999999998 L 0.01874999999999999,-0.036750000000000005 L 0.027749999999999997,-0.03824999999999998 L 0.03075,-0.04274999999999998 L 0.03225,-0.03974999999999998 L 0.023249999999999993,-0.035250000000000004 L 0.029249999999999998,-0.029249999999999998 L 0.03225,-0.03225" fill="none" stroke="black" stroke-width="0.002"/>
	<path d="M 0.09975,-0.02024999999999999 L 0.09975,-0.029249999999999998" fill="none" stroke="black" stroke-width="0.002"/>
	<path d="M 0.023249999999999993,-0.017249999999999988 L 0.027749999999999997,-0.023249999999999993 L 0.02024999999999999,-0.026249999999999996 L 0.02024999999999999,-0.02024999999999999" fill="none" stroke="black" stroke-width="0.002"/>
	<path d="M -0.008250000000000007,-0.01874999999999999 L -0.012750000000000011,-0.024749999999999994 L -0.005250000000000005,-0.03075 L -0.01125000000000001,-0.023249999999999993 L -0.0037500000000000033,-0.02024999999999999 L 0.009749999999999981,-0.029249999999999998 L -0.006750000000000006,-0.02024999999999999" fill="none" stroke="black" stroke-width="0.002"/>
	<path d="M 0.02174999999999999,-0.017249999999999988 L 0.017249999999999988,-0.023249999999999993 L 0.01874999999999999,-0.026249999999999996 L 0.029249999999999998,-0.023249999999999993 L 0.024749999999999994,-0.017249999999999988" fill="none" stroke="black" stroke-width="0.002"/>
	<path d="M 0.03075,-0.005250000000000005 L 0.036750000000000005,-0.011249999999999982 L 0.04124999999999998,-0.011249999999999982 L 0.03225,-0.005250000000000005" fill="none" stroke="black" stroke-width="0.002"/>
	<path d="M 0.11925,0.002250000000000002 L 0.10274999999999998,-0.005250000000000005 L 0.09825,-0.0037500000000000033 L 0.10574999999999998,-0.005250000000000005 L 0.12075,0.002250000000000002" fill="none" stroke="black" stroke-width="0.002"/>
	<path d="M -0.0007500000000000007,0.0037500000000000033 L -0.006750000000000006,-0.006749999999999978 L -0.0007500000000000007,-0.0007500000000000007" fill="none" stroke="black" stroke-width="0.002"/>
	<path d="M 0.10124999999999998,0.014250000000000013 L 0.10274999999999998,0.008250000000000007 L 0.11024999999999999,0.006750000000000006 L 0.10574999999999998,0.009750000000000009 L 0.10574999999999998,0.014250000000000013 L 0.10424999999999998,0.008250000000000007 L 0.10124999999999998,0.012750000000000011" fill="none" stroke="black" stroke-width="0.002"/>
	<path d="M -0.05775000000000001,0.020250000000000004 L -0.051750000000000004,0.015750000000000014 L -0.05475000000000001,0.012750000000000011 L -0.05925000000000001,0.015750000000000014 L -0.05925000000000001,0.020250000000000004" fill="none" stroke="black" stroke-width="0.002"/>
	<path d="M -0.05625000000000001,0.021750000000000005 L -0.062250000000000014,0.018750000000000017 L -0.05775000000000001,0.012750000000000011 L -0.051750000000000004,0.015750000000000014 L -0.05475000000000001,0.021750000000000005" fill="none" stroke="black" stroke-width="0.002"/>
	<path d="M 0.13575,0.023250000000000007 L 0.13275,0.012750000000000011 L 0.11474999999999999,0.008250000000000007 L 0.11024999999999999,0.012750000000000011 L 0.11925,0.015750000000000014 L 0.11174999999999999,0.014250000000000013 L 0.11174999999999999,0.009750000000000009 L 0.13725,0.012750000000000011 L 0.13725,0.021750000000000005" fill="none" stroke="black" stroke-width="0.002"/>
	<path d="M 0.11775,0.024750000000000008 L 0.12675,0.024750000000000008" fill="none" stroke="black" stroke-width="0.002"/>
	<path d="M 0.009749999999999981,0.030750000000000013 L 0.023249999999999993,-0.005250000000000005 L 0.02024999999999999,-0.00824999999999998 L 0.015749999999999986,-0.0007500000000000007 L 0.01874999999999999,-0.00824999999999998 L 0.023249999999999993,-0.005250000000000005 L 0.011249999999999982,0.030750000000000013" fill="none" stroke="black" stroke-width="0.002"/>
	<path d="M -0.0037500000000000033,0.030750000000000013 L -0.01125000000000001,0.005250000000000005 L -0.002250000000000002,0.030750000000000013" fill="none" stroke="black" stroke-width="0.002"/>
	<path d="M 0.12675,0.032250000000000015 L 0.10724999999999998,0.024750000000000008 L 0.10574999999999998,0.018750000000000017 L 0.10874999999999999,0.024750000000000008 L 0.12675,0.030750000000000013" fill="none" stroke="black" stroke-width="0.002"/>
	<path d="M 0.09075,0.035250000000000004 L 0.08324999999999999,0.017250000000000015 L 0.08625,-0.0037500000000000033 L 0.09675,-0.014249999999999985 L 0.09225,-0.03375 L 0.08625,-0.00824999999999998 L 0.08925,-0.03225 L 0.09225,-0.03375 L 0.08925,-0.036750000000000005 L 0.08925,-0.05024999999999999 L 0.08925,-0.03824999999999998 L 0.09375,-0.035250000000000004 L 0.09675,-0.012749999999999984 L 0.08625,-0.002250000000000002 L 0.08324999999999999,0.017250000000000015 L 0.09075,0.030750000000000013" fill="none" stroke="black" stroke-width="0.002"/>
	<path d="M 0.04874999999999999,0.036750000000000005 L 0.05474999999999999,0.033750000000000016 L 0.04874999999999999,0.02775000000000001 L 0.045749999999999985,0.033750000000000016" fill="none" stroke="black" stroke-width="0.002"/>
	<path d="M 0.047249999999999986,0.036750000000000005 L 0.047249999999999986,0.02775000000000001 L 0.05324999999999999,0.030750000000000013 L 0.05324999999999999,0.036750000000000005" fill="none" stroke="black" stroke-width="0.002"/>
	<path d="M 0.044249999999999984,0.04275000000000001 L 0.029249999999999998,0.03975000000000001 L 0.04274999999999998,0.04125000000000001" fill="none" stroke="black" stroke-width="0.002"/>
	<path d="M 0.035250000000000004,0.05625000000000001 L 0.06525,0.05475000000000001 L 0.07724999999999999,0.033750000000000016 L 0.07874999999999999,0.021750000000000005 L 0.08474999999999999,0.02775000000000001 L 0.08625,0.038250000000000006 L 0.08024999999999999,0.021750000000000005 L 0.07724999999999999,0.035250000000000004 L 0.06375,0.05625000000000001" fill="none" stroke="black" stroke-width="0.002"/>
	<path d="M 0.04274999999999998,0.09525 L 0.047249999999999986,0.08325000000000002 L 0.056249999999999994,0.07575000000000001 L 0.04274999999999998,0.09375000000000001" fill="none" stroke="black" stroke-width="0.002"/>
	<path d="M -0.13575,0.11325000000000002 L -0.13875,0.11025000000000001 L -0.13575,0.10875000000000001 L -0.13725,0.10125 L -0.13725,0.11175000000000002" fill="none" stroke="black" stroke-width="0.002"/>
	<path d="M 0.07724999999999999,0.13875 L 0.08174999999999999,0.12525 L 0.12975,0.08025000000000002 L 0.13575,0.05475000000000001 L 0.12975,0.08175000000000002 L 0.09975,0.10725000000000001 L 0.08174999999999999,0.12675 L 0.07724999999999999,0.13725" fill="none" stroke="black" stroke-width="0.002"/>
</svg>
