<?xml version="1.0" ?>
<svg xmlns="http://www.w3.org/2000/svg" xmlns:ev="http://www.w3.org/2001/xml-events" xmlns:xlink="http://www.w3.org/1999/xlink" baseProfile="full" height="600px" version="1.1" viewBox="-0.12791925 -0.14246925000000002 0.2378385 0.28643850000000004" width="499px">
	<defs/>
	<path d="M 0.046500000000000014,-0.1005 L 0.04050000000000001,-0.10800000000000001 L 0.04350000000000001,-0.11100000000000002 L 0.04500000000000001,-0.10200000000000001" fill="none" stroke="black" stroke-width="0.002"/>
	<path d="M 0.013500000000000012,-0.096 L 0.016500000000000015,-0.099" fill="none" stroke="black" stroke-width="0.002"/>
	<path d="M -0.0675,-0.0945 L -0.0675,-0.099" fill="none" stroke="black" stroke-width="0.002"/>
	<path d="M -0.066,-0.08700000000000002 L -0.06149999999999999,-0.0915" fill="none" stroke="black" stroke-width="0.002"/>
	<path d="M -0.01949999999999999,-0.08400000000000002 L 0.004500000000000004,-0.08400000000000002 L 0.018000000000000016,-0.0885 L 0.019500000000000017,-0.0915 L 0.004500000000000004,-0.08400000000000002 L -0.017999999999999988,-0.08550000000000002" fill="none" stroke="black" stroke-width="0.002"/>
	<path d="M 0.046500000000000014,-0.069 L 0.049500000000000016,-0.07050000000000001 L 0.048000000000000015,-0.07350000000000001 L 0.05100000000000002,-0.069" fill="none" stroke="black" stroke-width="0.002"/>
	<path d="M -0.03,-0.05400000000000002 L -0.03749999999999999,-0.058499999999999996 L -0.03899999999999999,-0.0645 L -0.03599999999999999,-0.066 L -0.011999999999999997,-0.06 L 0.016500000000000015,-0.0615 L 0.03,-0.07050000000000001 L 0.016500000000000015,-0.0615 L -0.011999999999999997,-0.06 L -0.03449999999999999,-0.066 L -0.03899999999999999,-0.0615 L -0.0315,-0.05550000000000002" fill="none" stroke="black" stroke-width="0.002"/>
	<path d="M -0.0885,-0.048000000000000015 L -0.09,-0.05100000000000002 L -0.087,-0.048000000000000015" fill="none" stroke="black" stroke-width="0.002"/>
	<path d="M 0.007500000000000007,-0.046500000000000014 L 0.0030000000000000027,-0.05100000000000002 L -0.010499999999999995,-0.049500000000000016 L -0.0315,-0.058499999999999996 L -0.010499999999999995,-0.049500000000000016 L 0.0030000000000000027,-0.05100000000000002 L 0.009000000000000008,-0.048000000000000015 L 0.02100000000000002,-0.056999999999999995 L 0.036000000000000004,-0.06 L 0.036000000000000004,-0.07050000000000001 L 0.037500000000000006,-0.0615 L 0.033,-0.056999999999999995 L 0.02250000000000002,-0.056999999999999995 L 0.01050000000000001,-0.049500000000000016" fill="none" stroke="black" stroke-width="0.002"/>
	<path d="M 0.018000000000000016,-0.04350000000000001 L 0.026999999999999996,-0.049500000000000016 L 0.02100000000000002,-0.04350000000000001" fill="none" stroke="black" stroke-width="0.002"/>
	<path d="M -0.0945,-0.036000000000000004 L -0.09,-0.037500000000000006 L -0.0945,-0.03900000000000001" fill="none" stroke="black" stroke-width="0.002"/>
	<path d="M -0.0915,-0.018000000000000016 L -0.096,-0.026999999999999996 L -0.0945,-0.036000000000000004 L -0.09899999999999999,-0.033 L -0.0915,-0.04350000000000001 L -0.093,-0.046500000000000014 L -0.09,-0.04500000000000001 L -0.093,-0.04200000000000001 L -0.09,-0.036000000000000004 L -0.096,-0.0315 L -0.096,-0.026999999999999996 L -0.09,-0.018000000000000016" fill="none" stroke="black" stroke-width="0.002"/>
	<path d="M -0.023999999999999994,-0.016500000000000015 L -0.025499999999999995,-0.02400000000000002 L -0.017999999999999988,-0.033 L -0.008999999999999994,-0.026999999999999996 L -0.017999999999999988,-0.0315 L -0.025499999999999995,-0.02400000000000002 L -0.023999999999999994,-0.019500000000000017" fill="none" stroke="black" stroke-width="0.002"/>
	<path d="M 0.006000000000000005,-0.015000000000000013 L 0.004500000000000004,-0.02250000000000002 L 0.01050000000000001,-0.0315 L 0.0,-0.0345 L 0.01200000000000001,-0.04050000000000001 L 0.006000000000000005,-0.036000000000000004 L 0.013500000000000012,-0.0315 L 0.026999999999999996,-0.036000000000000004 L 0.0315,-0.04500000000000001 L 0.028499999999999998,-0.036000000000000004 L 0.007500000000000007,-0.028499999999999998 L 0.004500000000000004,-0.02100000000000002 L 0.006000000000000005,-0.015000000000000013 L 0.01050000000000001,-0.018000000000000016 L 0.007500000000000007,-0.015000000000000013" fill="none" stroke="black" stroke-width="0.002"/>
	<path d="M -0.011999999999999997,-0.015000000000000013 L -0.016499999999999987,-0.019500000000000017 L -0.015,-0.02250000000000002 L -0.008999999999999994,-0.015000000000000013 L -0.0059999999999999915,-0.018000000000000016 L -0.008999999999999994,-0.02400000000000002 L -0.00449999999999999,-0.018000000000000016 L -0.007499999999999993,-0.015000000000000013" fill="none" stroke="black" stroke-width="0.002"/>
	<path d="M 0.07950000000000002,-0.007500000000000007 L 0.07800000000000001,-0.009000000000000008" fill="none" stroke="black" stroke-width="0.002"/>
	<path d="M -0.00449999999999999,-0.006000000000000005 L -0.002999999999999989,-0.007500000000000007" fill="none" stroke="black" stroke-width="0.002"/>
	<path d="M 0.07950000000000002,0.002999999999999989 L 0.07500000000000001,-0.006000000000000005 L 0.07950000000000002,-0.0" fill="none" stroke="black" stroke-width="0.002"/>
	<path d="M -0.096,0.00449999999999999 L -0.0945,0.002999999999999989" fill="none" stroke="black" stroke-width="0.002"/>
	<path d="M 0.007500000000000007,0.0059999999999999915 L 0.019500000000000017,-0.018000000000000016 L 0.016500000000000015,-0.01050000000000001 L 0.019500000000000017,-0.007500000000000007 L 0.007500000000000007,0.00449999999999999" fill="none" stroke="black" stroke-width="0.002"/>
	<path d="M -0.09899999999999999,0.013499999999999998 L -0.0975,0.011999999999999997" fill="none" stroke="black" stroke-width="0.002"/>
	<path d="M 0.02100000000000002,0.016499999999999987 L 0.019500000000000017,0.015" fill="none" stroke="black" stroke-width="0.002"/>
	<path d="M 0.0030000000000000027,0.016499999999999987 L 0.0015000000000000013,0.007499999999999993 L -0.002999999999999989,0.00449999999999999 L 0.015000000000000013,-0.016500000000000015 L 0.01200000000000001,-0.025499999999999995 L 0.015000000000000013,-0.015000000000000013 L -0.002999999999999989,0.00449999999999999 L 0.0015000000000000013,0.00449999999999999 L 0.0030000000000000027,0.013499999999999998" fill="none" stroke="black" stroke-width="0.002"/>
	<path d="M -0.04949999999999999,0.01949999999999999 L -0.056999999999999995,0.016499999999999987 L -0.04949999999999999,0.016499999999999987" fill="none" stroke="black" stroke-width="0.002"/>
	<path d="M 0.025499999999999995,0.02099999999999999 L 0.03,0.013499999999999998 L 0.037500000000000006,0.013499999999999998 L 0.04200000000000001,0.01949999999999999 L 0.04500000000000001,0.017999999999999988 L 0.04050000000000001,0.01949999999999999 L 0.036000000000000004,0.013499999999999998 L 0.0315,0.013499999999999998 L 0.026999999999999996,0.01949999999999999" fill="none" stroke="black" stroke-width="0.002"/>
	<path d="M -0.0465,0.02099999999999999 L -0.0435,0.015 L -0.03449999999999999,0.015 L -0.0315,0.02099999999999999 L -0.03599999999999999,0.015 L -0.041999999999999996,0.015 L -0.0465,0.01949999999999999" fill="none" stroke="black" stroke-width="0.002"/>
	<path d="M 0.025499999999999995,0.026999999999999996 L 0.037500000000000006,0.026999999999999996 L 0.048000000000000015,0.022499999999999992 L 0.049500000000000016,0.016499999999999987 L 0.04200000000000001,0.010499999999999995 L 0.046500000000000014,0.010499999999999995 L 0.04500000000000001,-0.0 L 0.056999999999999995,-0.006000000000000005 L 0.058499999999999996,-0.01050000000000001 L 0.058499999999999996,-0.006000000000000005 L 0.04500000000000001,0.0014999999999999875 L 0.05100000000000002,0.01949999999999999 L 0.048000000000000015,0.023999999999999994 L 0.037500000000000006,0.026999999999999996" fill="none" stroke="black" stroke-width="0.002"/>
	<path d="M -0.03899999999999999,0.028499999999999998 L -0.05249999999999999,0.025499999999999995 L -0.056999999999999995,0.02099999999999999 L -0.03749999999999999,0.028499999999999998 L -0.026999999999999996,0.025499999999999995 L -0.02099999999999999,0.016499999999999987 L -0.025499999999999995,0.016499999999999987 L -0.028499999999999998,0.02099999999999999 L -0.03,0.016499999999999987 L -0.017999999999999988,0.017999999999999988 L -0.023999999999999994,0.023999999999999994 L -0.03749999999999999,0.028499999999999998" fill="none" stroke="black" stroke-width="0.002"/>
	<path d="M 0.046500000000000014,0.03299999999999999 L 0.049500000000000016,0.03299999999999999" fill="none" stroke="black" stroke-width="0.002"/>
	<path d="M 0.07800000000000001,0.03599999999999999 L 0.07800000000000001,0.011999999999999997 L 0.07950000000000002,0.025499999999999995 L 0.07650000000000001,0.03449999999999999 L 0.07950000000000002,0.03599999999999999" fill="none" stroke="black" stroke-width="0.002"/>
	<path d="M -0.03599999999999999,0.03599999999999999 L -0.05099999999999999,0.03299999999999999 L -0.03449999999999999,0.03449999999999999" fill="none" stroke="black" stroke-width="0.002"/>
	<path d="M -0.1035,0.03599999999999999 L -0.1035,0.025499999999999995" fill="none" stroke="black" stroke-width="0.002"/>
	<path d="M 0.04500000000000001,0.040499999999999994 L 0.05400000000000002,0.03449999999999999 L 0.05550000000000002,0.02099999999999999 L 0.05400000000000002,0.03599999999999999 L 0.046500000000000014,0.040499999999999994" fill="none" stroke="black" stroke-width="0.002"/>
	<path d="M 0.02400000000000002,0.045 L 0.013500000000000012,0.041999999999999996 L 0.004500000000000004,0.03299999999999999 L 0.009000000000000008,0.0315 L 0.007500000000000007,0.022499999999999992 L 0.015000000000000013,0.0059999999999999915 L 0.03900000000000001,-0.016500000000000015 L 0.015000000000000013,0.007499999999999993 L 0.007500000000000007,0.022499999999999992 L 0.007500000000000007,0.03299999999999999 L 0.015000000000000013,0.041999999999999996 L 0.036000000000000004,0.045" fill="none" stroke="black" stroke-width="0.002"/>
	<path d="M -0.041999999999999996,0.045 L -0.055499999999999994,0.041999999999999996 L -0.063,0.0315 L -0.05399999999999999,0.041999999999999996 L -0.041999999999999996,0.045 L -0.025499999999999995,0.0435 L -0.011999999999999997,0.03449999999999999 L -0.025499999999999995,0.0435 L -0.040499999999999994,0.0435" fill="none" stroke="black" stroke-width="0.002"/>
	<path d="M 0.08250000000000002,0.04799999999999999 L 0.08400000000000002,0.0435 L 0.08400000000000002,0.04799999999999999" fill="none" stroke="black" stroke-width="0.002"/>
	<path d="M 0.048000000000000015,0.04949999999999999 L 0.049500000000000016,0.04949999999999999" fill="none" stroke="black" stroke-width="0.002"/>
	<path d="M 0.015000000000000013,0.058499999999999996 L 0.0315,0.055499999999999994 L 0.046500000000000014,0.0435 L 0.033,0.055499999999999994 L 0.016500000000000015,0.056999999999999995" fill="none" stroke="black" stroke-width="0.002"/>
	<path d="M -0.06,0.06149999999999999 L -0.06899999999999999,0.055499999999999994 L -0.08249999999999999,0.008999999999999994 L -0.08399999999999999,-0.015000000000000013 L -0.0885,-0.02250000000000002 L -0.08249999999999999,-0.036000000000000004 L -0.08249999999999999,-0.05100000000000002 L -0.08249999999999999,-0.036000000000000004 L -0.08549999999999999,-0.02400000000000002 L -0.0885,-0.02400000000000002 L -0.08399999999999999,-0.016500000000000015 L -0.08249999999999999,0.008999999999999994 L -0.072,0.0435 L -0.0675,0.04799999999999999 L -0.06899999999999999,0.055499999999999994 L -0.0645,0.06 L -0.055499999999999994,0.06149999999999999" fill="none" stroke="black" stroke-width="0.002"/>
	<path d="M 0.05550000000000002,0.0645 L 0.05550000000000002,0.04799999999999999 L 0.07050000000000001,0.002999999999999989 L 0.069,-0.033 L 0.07650000000000001,-0.033 L 0.07800000000000001,-0.036000000000000004 L 0.07200000000000001,-0.05250000000000002 L 0.066,-0.048000000000000015 L 0.07050000000000001,-0.04500000000000001 L 0.0675,-0.04200000000000001 L 0.07200000000000001,-0.04050000000000001 L 0.069,-0.036000000000000004 L 0.07050000000000001,-0.03900000000000001 L 0.0675,-0.04050000000000001 L 0.066,-0.048000000000000015 L 0.069,-0.05250000000000002 L 0.06,-0.08400000000000002 L 0.05100000000000002,-0.10200000000000001 L 0.05100000000000002,-0.11850000000000002 L 0.05400000000000002,-0.11700000000000002 L 0.049500000000000016,-0.11250000000000002 L 0.05100000000000002,-0.10200000000000001 L 0.056999999999999995,-0.093 L 0.066,-0.056999999999999995 L 0.07350000000000001,-0.05250000000000002 L 0.08100000000000002,-0.026999999999999996 L 0.07350000000000001,-0.01050000000000001 L 0.08100000000000002,-0.026999999999999996 L 0.07800000000000001,-0.0345 L 0.069,-0.0315 L 0.07200000000000001,-0.02400000000000002 L 0.07650000000000001,-0.028499999999999998 L 0.07350000000000001,-0.016500000000000015 L 0.07500000000000001,-0.02250000000000002 L 0.07050000000000001,-0.02250000000000002 L 0.07050000000000001,0.002999999999999989 L 0.05400000000000002,0.058499999999999996 L 0.058499999999999996,0.0645" fill="none" stroke="black" stroke-width="0.002"/>
	<path d="M -0.026999999999999996,0.06899999999999999 L -0.05099999999999999,0.06149999999999999 L -0.023999999999999994,0.06899999999999999" fill="none" stroke="black" stroke-width="0.002"/>
	<path d="M 0.07200000000000001,0.07649999999999998 L 0.07050000000000001,0.072 L 0.07350000000000001,0.0735 L 0.08100000000000002,0.066 L 0.07500000000000001,0.0735" fill="none" stroke="black" stroke-width="0.002"/>
	<path d="M -0.0735,0.07949999999999999 L -0.0885,0.063 L -0.102,0.03899999999999999 L -0.07799999999999999,0.075 L -0.06899999999999999,0.07949999999999999" fill="none" stroke="black" stroke-width="0.002"/>
	<path d="M 0.033,0.08399999999999999 L 0.02250000000000002,0.08099999999999999 L 0.0345,0.08399999999999999" fill="none" stroke="black" stroke-width="0.002"/>
	<path d="M 0.048000000000000015,0.087 L 0.07500000000000001,0.04799999999999999 L 0.07350000000000001,0.03749999999999999 L 0.0675,0.0315 L 0.069,0.023999999999999994 L 0.0675,0.03 L 0.07650000000000001,0.0465 L 0.049500000000000016,0.08549999999999999" fill="none" stroke="black" stroke-width="0.002"/>
	<path d="M 0.036000000000000004,0.087 L 0.037500000000000006,0.08549999999999999" fill="none" stroke="black" stroke-width="0.002"/>
	<path d="M 0.037500000000000006,0.0885 L 0.046500000000000014,0.072 L 0.05250000000000002,0.06899999999999999 L 0.04350000000000001,0.07649999999999998 L 0.04050000000000001,0.08549999999999999" fill="none" stroke="black" stroke-width="0.002"/>
	<path d="M -0.0735,0.0975 L -0.072,0.0975" fill="none" stroke="black" stroke-width="0.002"/>
	<path d="M 0.04200000000000001,0.09899999999999999 L 0.04500000000000001,0.0915 L 0.04350000000000001,0.087 L 0.04500000000000001,0.093 L 0.04200000000000001,0.0975" fill="none" stroke="black" stroke-width="0.002"/>
	<path d="M 0.01050000000000001,0.10049999999999999 L 0.02250000000000002,0.096 L 0.015000000000000013,0.10049999999999999" fill="none" stroke="black" stroke-width="0.002"/>
	<path d="M 0.0015000000000000013,0.10049999999999999 L 0.009000000000000008,0.093 L 0.02400000000000002,0.0885 L 0.006000000000000005,0.096" fill="none" stroke="black" stroke-width="0.002"/>
	<path d="M 0.007500000000000007,0.1035 L 0.007500000000000007,0.102" fill="none" stroke="black" stroke-width="0.002"/>
	<path d="M 0.016500000000000015,0.11099999999999999 L 0.025499999999999995,0.10049999999999999 L 0.016500000000000015,0.1095" fill="none" stroke="black" stroke-width="0.002"/>
	<path d="M -0.02099999999999999,0.11549999999999999 L -0.00449999999999999,0.1095 L 0.004500000000000004,0.11099999999999999 L 0.007500000000000007,0.1065 L 0.006000000000000005,0.11099999999999999 L -0.00449999999999999,0.1095 L -0.017999999999999988,0.11549999999999999" fill="none" stroke="black" stroke-width="0.002"/>
	<path d="M 0.019500000000000017,0.11699999999999999 L 0.009000000000000008,0.11249999999999999 L 0.019500000000000017,0.11549999999999999 L 0.0345,0.09899999999999999 L 0.019500000000000017,0.11549999999999999" fill="none" stroke="black" stroke-width="0.002"/>
	<path d="M -0.03899999999999999,0.11699999999999999 L -0.06899999999999999,0.11099999999999999 L -0.087,0.087 L -0.08549999999999999,0.072 L -0.087,0.08549999999999999 L -0.0705,0.1095 L -0.03899999999999999,0.11699999999999999 L -0.03,0.11099999999999999 L -0.02099999999999999,0.11099999999999999 L -0.03,0.11099999999999999 L -0.03749999999999999,0.11699999999999999" fill="none" stroke="black" stroke-width="0.002"/>
	<path d="M 0.02400000000000002,0.1185 L 0.026999999999999996,0.11399999999999999 L 0.03900000000000001,0.1095 L 0.04500000000000001,0.10049999999999999 L 0.04200000000000001,0.108 L 0.03,0.11249999999999999" fill="none" stroke="black" stroke-width="0.002"/>
	<path d="M 0.04200000000000001,0.12 L 0.049500000000000016,0.1065 L 0.07650000000000001,0.08549999999999999 L 0.09,0.0645 L 0.08250000000000002,-0.02100000000000002 L 0.09,0.0645 L 0.07650000000000001,0.087 L 0.05400000000000002,0.1035 L 0.04200000000000001,0.1185" fill="none" stroke="black" stroke-width="0.002"/>
	<path d="M -0.08249999999999999,0.12 L -0.0945,0.093 L -0.0945,0.0675 L -0.108,0.03299999999999999 L -0.10049999999999999,0.008999999999999994 L -0.10049999999999999,0.002999999999999989 L -0.1065,-0.004500000000000004 L -0.1035,-0.037500000000000006 L -0.093,-0.05400000000000002 L -0.08249999999999999,-0.05400000000000002 L -0.07949999999999999,-0.056999999999999995 L -0.07949999999999999,-0.069 L -0.072,-0.093 L -0.072,-0.11850000000000002 L -0.072,-0.093 L -0.07949999999999999,-0.069 L -0.07949999999999999,-0.05550000000000002 L -0.0885,-0.05550000000000002 L -0.096,-0.049500000000000016 L -0.1065,-0.02400000000000002 L -0.1065,-0.004500000000000004 L -0.09899999999999999,0.002999999999999989 L -0.108,0.03299999999999999 L -0.0945,0.0675 L -0.0945,0.093 L -0.08249999999999999,0.1185" fill="none" stroke="black" stroke-width="0.002"/>
</svg>
