<?xml version="1.0" ?>
<svg xmlns="http://www.w3.org/2000/svg" xmlns:ev="http://www.w3.org/2001/xml-events" xmlns:xlink="http://www.w3.org/1999/xlink" baseProfile="full" height="600px" version="1.1" viewBox="-0.1809 -0.1794 0.3603 0.3603" width="600px">
	<defs/>
	<path d="M -0.13125,-0.14625 L -0.13125,-0.14925 L -0.12975,-0.14625" fill="none" stroke="black" stroke-width="0.002"/>
	<path d="M 0.11625000000000002,-0.14325 L 0.11775000000000002,-0.14475" fill="none" stroke="black" stroke-width="0.002"/>
	<path d="M 0.11175000000000002,-0.14175 L 0.11325000000000002,-0.14925 L 0.11325000000000002,-0.14175" fill="none" stroke="black" stroke-width="0.002"/>
	<path d="M -0.11324999999999999,-0.14175 L -0.11624999999999999,-0.14325 L -0.11324999999999999,-0.14925 L -0.11474999999999999,-0.14475 L -0.11174999999999999,-0.14175" fill="none" stroke="black" stroke-width="0.002"/>
	<path d="M -0.12825,-0.14175 L -0.13424999999999998,-0.14325 L -0.13724999999999998,-0.14925 L -0.12825,-0.14175 L -0.12375,-0.14925 L -0.12675,-0.14325" fill="none" stroke="black" stroke-width="0.002"/>
	<path d="M -0.13125,-0.13125000000000003 L -0.13574999999999998,-0.14024999999999999 L -0.12975,-0.13125000000000003" fill="none" stroke="black" stroke-width="0.002"/>
	<path d="M -0.13574999999999998,-0.12975000000000003 L -0.14325,-0.14475 L -0.14625,-0.14175 L -0.14475,-0.13275000000000003 L -0.14925,-0.14775 L -0.14625,-0.14175 L -0.14325,-0.14475 L -0.14475,-0.14925 L -0.13574999999999998,-0.13125000000000003" fill="none" stroke="black" stroke-width="0.002"/>
	<path d="M -0.12525,-0.12825000000000003 L -0.12225,-0.12825000000000003 L -0.12525,-0.12975000000000003" fill="none" stroke="black" stroke-width="0.002"/>
	<path d="M 0.12975000000000003,-0.12525000000000003 L 0.14625,-0.13275000000000003 L 0.14175,-0.12825000000000003 L 0.13125000000000003,-0.12675000000000003" fill="none" stroke="black" stroke-width="0.002"/>
	<path d="M 0.12525000000000003,-0.12375000000000003 L 0.12375000000000003,-0.12675000000000003 L 0.13125000000000003,-0.13125000000000003 L 0.12525000000000003,-0.12675000000000003" fill="none" stroke="black" stroke-width="0.002"/>
	<path d="M -0.06974999999999999,-0.12075000000000002 L -0.06824999999999999,-0.12825000000000003 L -0.05474999999999999,-0.14175 L -0.06824999999999999,-0.12675000000000003 L -0.06824999999999999,-0.12075000000000002" fill="none" stroke="black" stroke-width="0.002"/>
	<path d="M 0.11775000000000002,-0.11925000000000002 L 0.11475000000000002,-0.12225000000000003 L 0.12375000000000003,-0.14775 L 0.11625000000000002,-0.12375000000000003 L 0.11775000000000002,-0.12075000000000002 L 0.12225000000000003,-0.12225000000000003 L 0.11925000000000002,-0.12075000000000002" fill="none" stroke="black" stroke-width="0.002"/>
	<path d="M -0.08024999999999999,-0.11475000000000002 L -0.08024999999999999,-0.13725000000000004" fill="none" stroke="black" stroke-width="0.002"/>
	<path d="M -0.002250000000000002,-0.10575000000000001 L 0.014250000000000013,-0.10575000000000001" fill="none" stroke="black" stroke-width="0.002"/>
	<path d="M -0.10575,-0.10575000000000001 L -0.10425,-0.11625000000000002 L -0.11174999999999999,-0.11925000000000002 L -0.11624999999999999,-0.13575000000000004 L -0.12225,-0.14024999999999999 L -0.12675,-0.13575000000000004 L -0.12225,-0.13125000000000003 L -0.12225,-0.12675000000000003 L -0.12525,-0.12675000000000003 L -0.12675,-0.13725000000000004 L -0.12375,-0.14024999999999999 L -0.11775,-0.13874999999999998 L -0.11174999999999999,-0.12075000000000002 L -0.10425,-0.11625000000000002 L -0.10425,-0.10575000000000001" fill="none" stroke="black" stroke-width="0.002"/>
	<path d="M -0.10124999999999999,-0.10125 L -0.09974999999999999,-0.10275000000000001" fill="none" stroke="black" stroke-width="0.002"/>
	<path d="M -0.02174999999999999,-0.09975 L -0.015749999999999986,-0.10725000000000001 L -0.006749999999999978,-0.10875000000000001 L -0.012749999999999984,-0.10725000000000001 L -0.014249999999999985,-0.10275000000000001 L -0.015749999999999986,-0.10725000000000001 L -0.02024999999999999,-0.10125" fill="none" stroke="black" stroke-width="0.002"/>
	<path d="M 0.09375,-0.09225 L 0.10125,-0.10125 L 0.11025000000000001,-0.13725000000000004 L 0.11475000000000002,-0.13874999999999998 L 0.10725000000000001,-0.13125000000000003 L 0.11025000000000001,-0.12675000000000003 L 0.10575000000000001,-0.12225000000000003 L 0.09975,-0.09825" fill="none" stroke="black" stroke-width="0.002"/>
	<path d="M 0.012750000000000011,-0.08775000000000002 L 0.008250000000000007,-0.09375 L -0.009749999999999981,-0.09375 L -0.014249999999999985,-0.08925 L -0.015749999999999986,-0.09225 L -0.02174999999999999,-0.08925 L -0.009749999999999981,-0.09375 L 0.008250000000000007,-0.09375 L 0.014250000000000013,-0.09225 L 0.012750000000000011,-0.08925 L 0.015750000000000014,-0.08775000000000002" fill="none" stroke="black" stroke-width="0.002"/>
	<path d="M 0.09075,-0.08625000000000002 L 0.09075,-0.08775000000000002" fill="none" stroke="black" stroke-width="0.002"/>
	<path d="M -0.015749999999999986,-0.08325000000000002 L -0.014249999999999985,-0.08325000000000002" fill="none" stroke="black" stroke-width="0.002"/>
	<path d="M -0.023249999999999993,-0.08175000000000002 L -0.023249999999999993,-0.08625000000000002 L -0.017249999999999988,-0.08775000000000002 L -0.023249999999999993,-0.08475000000000002" fill="none" stroke="black" stroke-width="0.002"/>
	<path d="M -0.04425,-0.06825 L -0.03674999999999999,-0.07875000000000001 L -0.027749999999999997,-0.07575000000000001 L 0.017250000000000015,-0.07725000000000001 L 0.015750000000000014,-0.08325000000000002 L 0.02175000000000002,-0.07575000000000001 L 0.029249999999999998,-0.07875000000000001 L 0.038250000000000006,-0.07725000000000001 L -0.005250000000000005,-0.07875000000000001 L -0.027749999999999997,-0.07575000000000001 L -0.03674999999999999,-0.07875000000000001 L -0.04425,-0.07125000000000001" fill="none" stroke="black" stroke-width="0.002"/>
	<path d="M -0.10425,-0.06675 L -0.09675,-0.07575000000000001 L -0.09974999999999999,-0.07725000000000001 L -0.08775,-0.07425000000000001 L -0.09675,-0.07575000000000001 L -0.10275,-0.06825" fill="none" stroke="black" stroke-width="0.002"/>
	<path d="M 0.009750000000000009,-0.06375 L 0.0037500000000000033,-0.07125000000000001 L 0.009750000000000009,-0.06675" fill="none" stroke="black" stroke-width="0.002"/>
	<path d="M 0.11025000000000001,-0.057749999999999996 L 0.10875000000000001,-0.06375 L 0.11175000000000002,-0.057749999999999996" fill="none" stroke="black" stroke-width="0.002"/>
	<path d="M -0.09075,-0.057749999999999996 L -0.08775,-0.07125000000000001 L -0.09075,-0.06225" fill="none" stroke="black" stroke-width="0.002"/>
	<path d="M -0.09825,-0.057749999999999996 L -0.10124999999999999,-0.05925 L -0.09675,-0.05925" fill="none" stroke="black" stroke-width="0.002"/>
	<path d="M -0.11474999999999999,-0.05475000000000002 L -0.11474999999999999,-0.06075 L -0.11624999999999999,-0.05625000000000002 L -0.11324999999999999,-0.05475000000000002" fill="none" stroke="black" stroke-width="0.002"/>
	<path d="M 0.038250000000000006,-0.05325000000000002 L 0.048750000000000016,-0.06075 L 0.048750000000000016,-0.06825 L 0.05475000000000002,-0.07275000000000001 L 0.048750000000000016,-0.06825 L 0.05175000000000002,-0.06525 L 0.047250000000000014,-0.057749999999999996 L 0.03975000000000001,-0.05475000000000002" fill="none" stroke="black" stroke-width="0.002"/>
	<path d="M 0.03075,-0.05325000000000002 L 0.03375,-0.05325000000000002" fill="none" stroke="black" stroke-width="0.002"/>
	<path d="M 0.0037500000000000033,-0.05325000000000002 L 0.0037500000000000033,-0.05475000000000002" fill="none" stroke="black" stroke-width="0.002"/>
	<path d="M -0.0007500000000000007,-0.05325000000000002 L -0.0037500000000000033,-0.05925 L -0.017249999999999988,-0.05925 L -0.005250000000000005,-0.06375 L -0.002250000000000002,-0.06975 L -0.0037500000000000033,-0.06525 L 0.0037500000000000033,-0.06225 L -0.005250000000000005,-0.06375 L -0.014249999999999985,-0.06225 L -0.014249999999999985,-0.05925 L 0.015750000000000014,-0.06075 L -0.0007500000000000007,-0.05925 L -0.0007500000000000007,-0.05625000000000002" fill="none" stroke="black" stroke-width="0.002"/>
	<path d="M 0.008250000000000007,-0.04275000000000001 L 0.020250000000000018,-0.04425000000000001 L 0.027749999999999997,-0.05325000000000002 L 0.03075,-0.05025000000000002 L 0.02175000000000002,-0.04425000000000001 L 0.009750000000000009,-0.04425000000000001" fill="none" stroke="black" stroke-width="0.002"/>
	<path d="M -0.011249999999999982,-0.04275000000000001 L -0.014249999999999985,-0.04575000000000001 L -0.009749999999999981,-0.04275000000000001" fill="none" stroke="black" stroke-width="0.002"/>
	<path d="M -0.02024999999999999,-0.04275000000000001 L -0.027749999999999997,-0.05175000000000002 L -0.03824999999999999,-0.05175000000000002 L -0.05024999999999999,-0.05925 L -0.03824999999999999,-0.05175000000000002 L -0.026249999999999996,-0.05175000000000002 L -0.01874999999999999,-0.04275000000000001" fill="none" stroke="black" stroke-width="0.002"/>
	<path d="M 0.12825000000000003,-0.03975000000000001 L 0.13125000000000003,-0.04425000000000001 L 0.12825000000000003,-0.047250000000000014 L 0.12525000000000003,-0.04275000000000001" fill="none" stroke="black" stroke-width="0.002"/>
	<path d="M -0.09825,-0.04125000000000001 L -0.09675,-0.04275000000000001" fill="none" stroke="black" stroke-width="0.002"/>
	<path d="M 0.09825,-0.03375 L 0.09825,-0.038250000000000006" fill="none" stroke="black" stroke-width="0.002"/>
	<path d="M 0.03075,-0.029249999999999998 L 0.017250000000000015,-0.038250000000000006 L 0.018750000000000017,-0.04125000000000001 L 0.03075,-0.03075" fill="none" stroke="black" stroke-width="0.002"/>
	<path d="M -0.14625,-0.027749999999999997 L -0.14775,-0.03075 L -0.15075,-0.029249999999999998 L -0.14475,-0.027749999999999997" fill="none" stroke="black" stroke-width="0.002"/>
	<path d="M -0.10724999999999998,-0.026249999999999996 L -0.10425,-0.038250000000000006 L -0.10874999999999999,-0.03975000000000001 L -0.10425,-0.038250000000000006 L -0.10724999999999998,-0.029249999999999998 L -0.10124999999999999,-0.03225 L -0.10575,-0.027749999999999997" fill="none" stroke="black" stroke-width="0.002"/>
	<path d="M 0.014250000000000013,-0.02325000000000002 L 0.01125000000000001,-0.026249999999999996 L 0.015750000000000014,-0.02325000000000002 L 0.027749999999999997,-0.026249999999999996 L 0.024750000000000022,-0.02325000000000002" fill="none" stroke="black" stroke-width="0.002"/>
	<path d="M 0.008250000000000007,-0.02325000000000002 L 0.0037500000000000033,-0.03225 L -0.0007500000000000007,-0.03075 L 0.005250000000000005,-0.03375 L 0.008250000000000007,-0.027749999999999997" fill="none" stroke="black" stroke-width="0.002"/>
	<path d="M -0.11624999999999999,-0.02325000000000002 L -0.11474999999999999,-0.029249999999999998 L -0.12075,-0.03075 L -0.11624999999999999,-0.035250000000000004 L -0.12225,-0.03375 L -0.13274999999999998,-0.03975000000000001 L -0.15075,-0.036750000000000005 L -0.13574999999999998,-0.038250000000000006 L -0.13125,-0.05175000000000002 L -0.12075,-0.06225 L -0.10874999999999999,-0.06825 L -0.11174999999999999,-0.07425000000000001 L -0.09375,-0.08625000000000002 L -0.12675,-0.12075000000000002 L -0.14775,-0.13125000000000003 L -0.12525,-0.12075000000000002 L -0.09375,-0.08625000000000002 L -0.09075,-0.08775000000000002 L -0.09375,-0.09225 L -0.09075,-0.09375 L -0.08775,-0.10875000000000001 L -0.09375,-0.09075 L -0.08625,-0.08175000000000002 L -0.08474999999999999,-0.08625000000000002 L -0.08775,-0.07725000000000001 L -0.08625,-0.08025000000000002 L -0.09075,-0.08625000000000002 L -0.10275,-0.08025000000000002 L -0.11024999999999999,-0.07425000000000001 L -0.10724999999999998,-0.06825 L -0.12525,-0.057749999999999996 L -0.13274999999999998,-0.048750000000000016 L -0.13424999999999998,-0.04125000000000001 L -0.13125,-0.038250000000000006 L -0.12525,-0.05025000000000002 L -0.12975,-0.03975000000000001 L -0.12075,-0.03375 L -0.09825,-0.05025000000000002 L -0.09974999999999999,-0.05475000000000002 L -0.10425,-0.05475000000000002 L -0.12075,-0.04275000000000001 L -0.12075,-0.05625000000000002 L -0.11925,-0.04275000000000001 L -0.10874999999999999,-0.05325000000000002 L -0.09825,-0.05475000000000002 L -0.09525,-0.05025000000000002 L -0.11775,-0.036750000000000005 L -0.11474999999999999,-0.035250000000000004 L -0.11624999999999999,-0.027749999999999997" fill="none" stroke="black" stroke-width="0.002"/>
	<path d="M -0.15075,-0.02175000000000002 L -0.14325,-0.02325000000000002 L -0.13874999999999998,-0.03375 L -0.13574999999999998,-0.03225 L -0.14625,-0.02175000000000002" fill="none" stroke="black" stroke-width="0.002"/>
	<path d="M -0.017249999999999988,-0.020250000000000018 L -0.023249999999999993,-0.02325000000000002 L -0.014249999999999985,-0.029249999999999998 L -0.02024999999999999,-0.02325000000000002 L -0.017249999999999988,-0.020250000000000018 L -0.012749999999999984,-0.02175000000000002 L -0.0037500000000000033,-0.03375 L -0.014249999999999985,-0.020250000000000018" fill="none" stroke="black" stroke-width="0.002"/>
	<path d="M -0.009749999999999981,-0.017250000000000015 L -0.00824999999999998,-0.018750000000000017" fill="none" stroke="black" stroke-width="0.002"/>
	<path d="M 0.14925,-0.01125000000000001 L 0.12825000000000003,-0.017250000000000015 L 0.10275000000000001,-0.014250000000000013 L 0.10275000000000001,-0.036750000000000005 L 0.09225,-0.05475000000000002 L 0.09075,-0.07425000000000001 L 0.09675,-0.07425000000000001 L 0.09225,-0.07125000000000001 L 0.09525,-0.047250000000000014 L 0.10125,-0.04125000000000001 L 0.10125,-0.05175000000000002 L 0.10425000000000001,-0.04575000000000001 L 0.11025000000000001,-0.048750000000000016 L 0.10125,-0.04125000000000001 L 0.10425000000000001,-0.035250000000000004 L 0.11025000000000001,-0.04125000000000001 L 0.12825000000000003,-0.047250000000000014 L 0.12375000000000003,-0.05025000000000002 L 0.11325000000000002,-0.047250000000000014 L 0.11775000000000002,-0.06225 L 0.10425000000000001,-0.06825 L 0.10425000000000001,-0.07425000000000001 L 0.09825,-0.07725000000000001 L 0.10275000000000001,-0.07875000000000001 L 0.09975,-0.08175000000000002 L 0.09525,-0.07875000000000001 L 0.09075,-0.08325000000000002 L 0.08775000000000002,-0.08175000000000002 L 0.07575000000000001,-0.13275000000000003 L 0.06975,-0.14475 L 0.07575000000000001,-0.13275000000000003 L 0.08325000000000002,-0.09375 L 0.08925,-0.08325000000000002 L 0.09375,-0.08475000000000002 L 0.11475000000000002,-0.11475000000000002 L 0.13125000000000003,-0.12225000000000003 L 0.14925,-0.12525000000000003 L 0.13125000000000003,-0.12225000000000003 L 0.11625000000000002,-0.11475000000000002 L 0.09225,-0.08175000000000002 L 0.09375,-0.07875000000000001 L 0.10125,-0.08175000000000002 L 0.10425000000000001,-0.06975 L 0.11775000000000002,-0.06375 L 0.11475000000000002,-0.05025000000000002 L 0.12825000000000003,-0.048750000000000016 L 0.13125000000000003,-0.04425000000000001 L 0.12975000000000003,-0.03975000000000001 L 0.11775000000000002,-0.04425000000000001 L 0.10425000000000001,-0.035250000000000004 L 0.10125,-0.03075 L 0.10275000000000001,-0.015750000000000014 L 0.12825000000000003,-0.017250000000000015 L 0.14775,-0.012750000000000011" fill="none" stroke="black" stroke-width="0.002"/>
	<path d="M 0.11925000000000002,-0.01125000000000001 L 0.12975000000000003,-0.01125000000000001" fill="none" stroke="black" stroke-width="0.002"/>
	<path d="M -0.13574999999999998,-0.01125000000000001 L -0.15075,-0.014250000000000013 L -0.13724999999999998,-0.012750000000000011" fill="none" stroke="black" stroke-width="0.002"/>
	<path d="M 0.02325000000000002,-0.009750000000000009 L 0.027749999999999997,-0.020250000000000018 L 0.027749999999999997,-0.014250000000000013" fill="none" stroke="black" stroke-width="0.002"/>
	<path d="M -0.11775,-0.009750000000000009 L -0.11775,-0.017250000000000015 L -0.12375,-0.024750000000000022 L -0.12525,-0.017250000000000015 L -0.12825,-0.018750000000000017 L -0.12975,-0.015750000000000014 L -0.12375,-0.024750000000000022 L -0.12825,-0.03075 L -0.13574999999999998,-0.02325000000000002 L -0.13274999999999998,-0.03075 L -0.12675,-0.03075 L -0.11775,-0.017250000000000015" fill="none" stroke="black" stroke-width="0.002"/>
	<path d="M 0.09975,-0.008250000000000007 L 0.09675,-0.01125000000000001 L 0.09975,-0.012750000000000011 L 0.10125,-0.008250000000000007 L 0.11175000000000002,-0.01125000000000001 L 0.10275000000000001,-0.008250000000000007" fill="none" stroke="black" stroke-width="0.002"/>
	<path d="M 0.14024999999999999,-0.006750000000000006 L 0.13275000000000003,-0.009750000000000009 L 0.14024999999999999,-0.009750000000000009" fill="none" stroke="black" stroke-width="0.002"/>
	<path d="M 0.13425000000000004,-0.005250000000000005 L 0.13125000000000003,-0.006750000000000006 L 0.13425000000000004,-0.006750000000000006" fill="none" stroke="black" stroke-width="0.002"/>
	<path d="M -0.026249999999999996,-0.0037500000000000033 L -0.027749999999999997,-0.026249999999999996 L -0.01874999999999999,-0.03975000000000001 L -0.017249999999999988,-0.036750000000000005 L -0.027749999999999997,-0.02325000000000002 L -0.027749999999999997,-0.005250000000000005" fill="none" stroke="black" stroke-width="0.002"/>
	<path d="M -0.12375,-0.0037500000000000033 L -0.13574999999999998,-0.018750000000000017 L -0.12225,-0.0037500000000000033 L -0.11925,-0.005250000000000005 L -0.12225,-0.01125000000000001 L -0.11925,-0.0037500000000000033" fill="none" stroke="black" stroke-width="0.002"/>
	<path d="M 0.12825000000000003,-0.0007500000000000007 L 0.13874999999999998,-0.0037500000000000033 L 0.14925,-0.002250000000000002 L 0.14024999999999999,-0.0037500000000000033 L 0.13275000000000003,-0.0007500000000000007" fill="none" stroke="black" stroke-width="0.002"/>
	<path d="M -0.005250000000000005,0.0007500000000000007 L -0.00824999999999998,-0.006750000000000006 L -0.006749999999999978,-0.01125000000000001 L -0.00824999999999998,-0.006750000000000006 L -0.005250000000000005,-0.0037500000000000033" fill="none" stroke="black" stroke-width="0.002"/>
	<path d="M -0.12825,0.0037500000000000033 L -0.12975,-0.0007500000000000007 L -0.13874999999999998,-0.005250000000000005 L -0.14625,-0.0037500000000000033 L -0.15075,-0.009750000000000009 L -0.14775,-0.009750000000000009 L -0.14625,-0.0037500000000000033 L -0.13874999999999998,-0.005250000000000005 L -0.12825,-0.0007500000000000007" fill="none" stroke="black" stroke-width="0.002"/>
	<path d="M -0.0037500000000000033,0.006749999999999978 L -0.005250000000000005,0.0037500000000000033 L -0.011249999999999982,0.005250000000000005 L -0.012749999999999984,-0.0037500000000000033 L -0.02024999999999999,-0.008250000000000007 L -0.015749999999999986,-0.006750000000000006 L -0.011249999999999982,-0.012750000000000011 L -0.012749999999999984,-0.015750000000000014 L -0.012749999999999984,0.0007500000000000007 L -0.0037500000000000033,0.0037500000000000033" fill="none" stroke="black" stroke-width="0.002"/>
	<path d="M 0.14175,0.009749999999999981 L 0.13275000000000003,0.006749999999999978 L 0.13725000000000004,0.00824999999999998 L 0.13725000000000004,0.002250000000000002 L 0.12375000000000003,0.002250000000000002 L 0.12225000000000003,-0.0007500000000000007 L 0.12525000000000003,-0.002250000000000002 L 0.12075000000000002,-0.005250000000000005 L 0.12675000000000003,-0.006750000000000006 L 0.12375000000000003,-0.005250000000000005 L 0.12375000000000003,0.002250000000000002 L 0.13874999999999998,0.002250000000000002 L 0.14024999999999999,0.00824999999999998 L 0.14925,0.009749999999999981 L 0.14325,0.00824999999999998" fill="none" stroke="black" stroke-width="0.002"/>
	<path d="M -0.00824999999999998,0.009749999999999981 L -0.00824999999999998,0.006749999999999978" fill="none" stroke="black" stroke-width="0.002"/>
	<path d="M 0.12675000000000003,0.012749999999999984 L 0.11925000000000002,0.00824999999999998 L 0.11925000000000002,0.002250000000000002 L 0.12225000000000003,0.009749999999999981 L 0.13425000000000004,0.012749999999999984" fill="none" stroke="black" stroke-width="0.002"/>
	<path d="M -0.14325,0.012749999999999984 L -0.15075,0.009749999999999981 L -0.13874999999999998,0.012749999999999984 L -0.13874999999999998,0.00824999999999998 L -0.15075,0.005250000000000005 L -0.13274999999999998,0.0037500000000000033 L -0.14925,-0.0007500000000000007 L -0.13125,0.0037500000000000033 L -0.13874999999999998,0.006749999999999978 L -0.13724999999999998,0.012749999999999984" fill="none" stroke="black" stroke-width="0.002"/>
	<path d="M 0.08925,0.014249999999999985 L 0.09675,-0.0007500000000000007 L 0.09975,0.0007500000000000007 L 0.09075,0.014249999999999985" fill="none" stroke="black" stroke-width="0.002"/>
	<path d="M 0.035250000000000004,0.014249999999999985 L 0.04425000000000001,0.012749999999999984 L 0.04275000000000001,0.00824999999999998 L 0.06825,0.014249999999999985 L 0.05625000000000002,0.009749999999999981 L 0.036750000000000005,0.014249999999999985" fill="none" stroke="black" stroke-width="0.002"/>
	<path d="M 0.012750000000000011,0.015749999999999986 L 0.01125000000000001,0.005250000000000005 L 0.015750000000000014,-0.006750000000000006 L 0.009750000000000009,-0.012750000000000011 L 0.015750000000000014,-0.006750000000000006 L 0.017250000000000015,-0.01125000000000001 L 0.020250000000000018,-0.009750000000000009 L 0.015750000000000014,-0.006750000000000006 L 0.01125000000000001,0.014249999999999985" fill="none" stroke="black" stroke-width="0.002"/>
	<path d="M -0.06524999999999999,0.017249999999999988 L -0.04575,0.009749999999999981 L -0.03224999999999999,0.015749999999999986 L -0.047249999999999986,0.011249999999999982 L -0.06374999999999999,0.017249999999999988" fill="none" stroke="black" stroke-width="0.002"/>
	<path d="M -0.005250000000000005,0.01874999999999999 L -0.005250000000000005,0.009749999999999981 L -0.0037500000000000033,0.017249999999999988" fill="none" stroke="black" stroke-width="0.002"/>
	<path d="M 0.06975,0.023249999999999993 L 0.06675,0.017249999999999988 L 0.07125000000000001,0.023249999999999993 L 0.07575000000000001,0.023249999999999993" fill="none" stroke="black" stroke-width="0.002"/>
	<path d="M -0.07125,0.026249999999999996 L -0.06225,0.02024999999999999 L -0.06824999999999999,0.026249999999999996" fill="none" stroke="black" stroke-width="0.002"/>
	<path d="M 0.057749999999999996,0.027749999999999997 L 0.05325000000000002,0.02024999999999999 L 0.057749999999999996,0.026249999999999996 L 0.06075,0.024749999999999994 L 0.05925,0.02174999999999999 L 0.05925,0.026249999999999996" fill="none" stroke="black" stroke-width="0.002"/>
	<path d="M 0.03375,0.029249999999999998 L 0.03075,0.027749999999999997 L 0.036750000000000005,0.02174999999999999 L 0.03375,0.027749999999999997" fill="none" stroke="black" stroke-width="0.002"/>
	<path d="M -0.05174999999999999,0.03075 L -0.04874999999999999,0.026249999999999996 L -0.05174999999999999,0.023249999999999993 L -0.05474999999999999,0.027749999999999997" fill="none" stroke="black" stroke-width="0.002"/>
	<path d="M 0.036750000000000005,0.03075 L 0.04275000000000001,0.02174999999999999 L 0.038250000000000006,0.03075" fill="none" stroke="black" stroke-width="0.002"/>
	<path d="M -0.03224999999999999,0.03224999999999999 L -0.029249999999999998,0.024749999999999994 L -0.027749999999999997,0.03075 L -0.03075,0.026249999999999996 L -0.03075,0.03224999999999999" fill="none" stroke="black" stroke-width="0.002"/>
	<path d="M -0.05174999999999999,0.03224999999999999 L -0.057749999999999996,0.029249999999999998 L -0.056249999999999994,0.026249999999999996 L -0.05324999999999999,0.023249999999999993 L -0.04874999999999999,0.026249999999999996 L -0.042749999999999996,0.02024999999999999 L -0.05024999999999999,0.03075" fill="none" stroke="black" stroke-width="0.002"/>
	<path d="M 0.03975000000000001,0.03674999999999999 L 0.05475000000000002,0.03374999999999999 L 0.06225,0.03524999999999999 L 0.04125000000000001,0.03674999999999999" fill="none" stroke="black" stroke-width="0.002"/>
	<path d="M -0.10275,0.03674999999999999 L -0.12525,0.023249999999999993 L -0.11324999999999999,0.027749999999999997 L -0.10275,0.03674999999999999 L -0.09825,0.03524999999999999 L -0.11174999999999999,0.023249999999999993 L -0.12525,0.017249999999999988 L -0.14475,0.015749999999999986 L -0.11324999999999999,0.02174999999999999 L -0.09675,0.03374999999999999 L -0.09825,0.03674999999999999" fill="none" stroke="black" stroke-width="0.002"/>
	<path d="M -0.039749999999999994,0.03824999999999999 L -0.04874999999999999,0.03524999999999999 L -0.03824999999999999,0.03824999999999999" fill="none" stroke="black" stroke-width="0.002"/>
	<path d="M -0.11775,0.03824999999999999 L -0.10874999999999999,0.03824999999999999 L -0.12225,0.029249999999999998 L -0.12675,0.03524999999999999 L -0.11925,0.03824999999999999" fill="none" stroke="black" stroke-width="0.002"/>
	<path d="M -0.11624999999999999,0.039749999999999994 L -0.13574999999999998,0.03374999999999999 L -0.12825,0.03524999999999999 L -0.12525,0.029249999999999998 L -0.10874999999999999,0.03674999999999999 L -0.10874999999999999,0.039749999999999994" fill="none" stroke="black" stroke-width="0.002"/>
	<path d="M 0.009750000000000009,0.042749999999999996 L 0.006750000000000006,0.041249999999999995 L 0.01125000000000001,0.03824999999999999 L 0.02175000000000002,0.006749999999999978 L 0.009750000000000009,0.039749999999999994" fill="none" stroke="black" stroke-width="0.002"/>
	<path d="M 0.0007500000000000007,0.042749999999999996 L -0.009749999999999981,0.024749999999999994 L -0.00824999999999998,0.014249999999999985 L -0.009749999999999981,0.01874999999999999 L -0.002250000000000002,0.039749999999999994" fill="none" stroke="black" stroke-width="0.002"/>
	<path d="M -0.15075,0.042749999999999996 L -0.14625,0.039749999999999994 L -0.15075,0.03524999999999999 L -0.14625,0.03674999999999999 L -0.14925,0.041249999999999995" fill="none" stroke="black" stroke-width="0.002"/>
	<path d="M 0.03975000000000001,0.05024999999999999 L 0.07875000000000001,0.047249999999999986 L 0.07725000000000001,0.05024999999999999 L 0.04125000000000001,0.05024999999999999" fill="none" stroke="black" stroke-width="0.002"/>
	<path d="M 0.10425000000000001,0.05174999999999999 L 0.10725000000000001,0.04874999999999999" fill="none" stroke="black" stroke-width="0.002"/>
	<path d="M -0.09225,0.05174999999999999 L -0.09075,0.05024999999999999" fill="none" stroke="black" stroke-width="0.002"/>
	<path d="M -0.11775,0.05474999999999999 L -0.12825,0.05024999999999999 L -0.11925,0.05324999999999999" fill="none" stroke="black" stroke-width="0.002"/>
	<path d="M 0.14475,0.057749999999999996 L 0.14625,0.039749999999999994 L 0.13575000000000004,0.03674999999999999 L 0.13125000000000003,0.029249999999999998 L 0.13275000000000003,0.024749999999999994 L 0.13874999999999998,0.023249999999999993 L 0.13575000000000004,0.015749999999999986 L 0.14475,0.012749999999999984 L 0.14925,0.012749999999999984 L 0.13874999999999998,0.017249999999999988 L 0.14625,0.02024999999999999 L 0.13874999999999998,0.01874999999999999 L 0.13725000000000004,0.02174999999999999 L 0.14024999999999999,0.02174999999999999 L 0.14625,0.03224999999999999 L 0.13874999999999998,0.023249999999999993 L 0.13275000000000003,0.029249999999999998 L 0.13725000000000004,0.03674999999999999 L 0.14925,0.03824999999999999 L 0.14475,0.05024999999999999 L 0.14925,0.05324999999999999 L 0.14475,0.056249999999999994 L 0.14775,0.057749999999999996" fill="none" stroke="black" stroke-width="0.002"/>
	<path d="M -0.10425,0.05925 L -0.10124999999999999,0.06075 L -0.09225,0.05174999999999999 L -0.10275,0.04874999999999999 L -0.11024999999999999,0.05174999999999999 L -0.10425,0.05474999999999999" fill="none" stroke="black" stroke-width="0.002"/>
	<path d="M -0.10425,0.06075 L -0.10874999999999999,0.05925 L -0.10425,0.05474999999999999 L -0.11174999999999999,0.05174999999999999 L -0.10575,0.04874999999999999 L -0.08474999999999999,0.05024999999999999 L -0.10124999999999999,0.06075" fill="none" stroke="black" stroke-width="0.002"/>
	<path d="M -0.024749999999999994,0.06225 L -0.012749999999999984,0.056249999999999994 L -0.012749999999999984,0.05174999999999999 L -0.00824999999999998,0.04874999999999999 L -0.011249999999999982,0.056249999999999994 L -0.023249999999999993,0.06225" fill="none" stroke="black" stroke-width="0.002"/>
	<path d="M -0.12825,0.06225 L -0.13724999999999998,0.05324999999999999 L -0.13424999999999998,0.05024999999999999 L -0.13125,0.05174999999999999 L -0.13424999999999998,0.05024999999999999 L -0.13574999999999998,0.05324999999999999 L -0.12675,0.06225 L -0.12225,0.057749999999999996 L -0.12675,0.06225" fill="none" stroke="black" stroke-width="0.002"/>
	<path d="M -0.15075,0.06225 L -0.14775,0.05324999999999999 L -0.15075,0.05174999999999999 L -0.14475,0.05174999999999999 L -0.14024999999999999,0.03374999999999999 L -0.14775,0.024749999999999994 L -0.14024999999999999,0.03224999999999999 L -0.13574999999999998,0.026249999999999996 L -0.13874999999999998,0.024749999999999994 L -0.13574999999999998,0.026249999999999996 L -0.14325,0.041249999999999995 L -0.13874999999999998,0.047249999999999986 L -0.14475,0.047249999999999986 L -0.14475,0.056249999999999994 L -0.14625,0.05324999999999999 L -0.14925,0.05474999999999999 L -0.14925,0.06225" fill="none" stroke="black" stroke-width="0.002"/>
	<path d="M 0.13725000000000004,0.06824999999999999 L 0.14325,0.06524999999999999 L 0.14775,0.06524999999999999 L 0.14024999999999999,0.06824999999999999" fill="none" stroke="black" stroke-width="0.002"/>
	<path d="M -0.15075,0.06824999999999999 L -0.14775,0.06524999999999999" fill="none" stroke="black" stroke-width="0.002"/>
	<path d="M 0.024750000000000022,0.07125 L 0.017250000000000015,0.06674999999999999 L 0.014250000000000013,0.05925 L 0.026249999999999996,0.06974999999999999" fill="none" stroke="black" stroke-width="0.002"/>
	<path d="M -0.14775,0.07275 L -0.14925,0.07125" fill="none" stroke="black" stroke-width="0.002"/>
	<path d="M -0.12825,0.08024999999999999 L -0.14475,0.07125 L -0.12825,0.07874999999999999" fill="none" stroke="black" stroke-width="0.002"/>
	<path d="M -0.14175,0.09525 L -0.14475,0.09375 L -0.13874999999999998,0.09225 L -0.13724999999999998,0.08024999999999999 L -0.13724999999999998,0.09225 L -0.14024999999999999,0.09525" fill="none" stroke="black" stroke-width="0.002"/>
	<path d="M -0.13874999999999998,0.12225 L -0.13424999999999998,0.11925 L -0.13724999999999998,0.12225" fill="none" stroke="black" stroke-width="0.002"/>
	<path d="M -0.12525,0.12525 L -0.13274999999999998,0.11324999999999999 L -0.14175,0.10874999999999999 L -0.14024999999999999,0.09974999999999999 L -0.14024999999999999,0.10575 L -0.12225,0.12525" fill="none" stroke="black" stroke-width="0.002"/>
	<path d="M 0.11475000000000002,0.15075 L 0.12825000000000003,0.13274999999999998 L 0.12975000000000003,0.10275 L 0.14175,0.09225 L 0.14325,0.08324999999999999 L 0.14925,0.08024999999999999 L 0.14325,0.08474999999999999 L 0.14325,0.09225 L 0.13125000000000003,0.10275 L 0.12975000000000003,0.12675 L 0.12075000000000002,0.14475" fill="none" stroke="black" stroke-width="0.002"/>
	<path d="M -0.09525,0.15075 L -0.09375,0.13874999999999998 L -0.08625,0.13874999999999998 L -0.08024999999999999,0.14325 L -0.09225,0.13874999999999998 L -0.09525,0.14625" fill="none" stroke="black" stroke-width="0.002"/>
	<path d="M -0.11624999999999999,0.15075 L -0.12975,0.12975 L -0.11624999999999999,0.14775" fill="none" stroke="black" stroke-width="0.002"/>
	<path d="M -0.12975,0.15075 L -0.13574999999999998,0.13424999999999998 L -0.14775,0.12375 L -0.15075,0.11024999999999999 L -0.14775,0.11024999999999999 L -0.14625,0.10425 L -0.14925,0.09675 L -0.14625,0.10425 L -0.14775,0.12225 L -0.13724999999999998,0.13125 L -0.13125,0.14925" fill="none" stroke="black" stroke-width="0.002"/>
</svg>
