<?xml version="1.0" ?>
<svg xmlns="http://www.w3.org/2000/svg" xmlns:ev="http://www.w3.org/2001/xml-events" xmlns:xlink="http://www.w3.org/1999/xlink" baseProfile="full" height="600px" version="1.1" viewBox="-0.2655705 -0.2640705 0.529641 0.529641" width="600px">
	<defs/>
	<path d="M 0.15825,-0.21225 L 0.16125,-0.21975 L 0.15975,-0.21375" fill="none" stroke="black" stroke-width="0.002"/>
	<path d="M 0.13124999999999998,-0.21225 L 0.12975000000000003,-0.21975 L 0.13274999999999998,-0.21225" fill="none" stroke="black" stroke-width="0.002"/>
	<path d="M 0.14024999999999999,-0.20925 L 0.14175,-0.21375 L 0.14175,-0.20925" fill="none" stroke="black" stroke-width="0.002"/>
	<path d="M -0.19875,-0.20625 L -0.19125,-0.20925 L -0.19875,-0.20775" fill="none" stroke="black" stroke-width="0.002"/>
	<path d="M -0.20925,-0.20625 L -0.21225,-0.20925 L -0.20775,-0.21225 L -0.20325,-0.20775 L -0.20775,-0.21075 L -0.20775,-0.20625" fill="none" stroke="black" stroke-width="0.002"/>
	<path d="M -0.20775,-0.20024999999999998 L -0.20325,-0.20024999999999998 L -0.20775,-0.20174999999999998" fill="none" stroke="black" stroke-width="0.002"/>
	<path d="M -0.20775,-0.19724999999999998 L -0.20625,-0.20325 L -0.20325,-0.20174999999999998 L -0.20625,-0.19724999999999998" fill="none" stroke="black" stroke-width="0.002"/>
	<path d="M 0.13724999999999998,-0.18975000000000003 L 0.13874999999999998,-0.19574999999999998 L 0.13574999999999998,-0.19724999999999998 L 0.13874999999999998,-0.19574999999999998 L 0.14325,-0.20024999999999998 L 0.14175,-0.20625 L 0.14325,-0.20174999999999998 L 0.14775,-0.20325 L 0.13874999999999998,-0.19125000000000003" fill="none" stroke="black" stroke-width="0.002"/>
	<path d="M -0.19425,-0.18975000000000003 L -0.19725,-0.19275000000000003" fill="none" stroke="black" stroke-width="0.002"/>
	<path d="M -0.19275,-0.18675000000000003 L -0.18975,-0.18975000000000003 L -0.20625,-0.21975 L -0.20175,-0.21225 L -0.19725,-0.21675 L -0.19875,-0.20925 L -0.19425,-0.21225 L -0.18675,-0.20925 L -0.18525,-0.20325 L -0.18975,-0.21075 L -0.19725,-0.20475 L -0.19575,-0.19874999999999998 L -0.18675,-0.18825000000000003 L -0.18225,-0.19125000000000003 L -0.18675,-0.20024999999999998 L -0.18375,-0.19275000000000003 L -0.17775,-0.19125000000000003 L -0.18825,-0.18675000000000003 L -0.18975,-0.18975000000000003" fill="none" stroke="black" stroke-width="0.002"/>
	<path d="M -0.07575000000000001,-0.18375000000000002 L -0.07125000000000001,-0.19275000000000003 L -0.07275000000000001,-0.18675000000000003" fill="none" stroke="black" stroke-width="0.002"/>
	<path d="M -0.21675,-0.18225000000000002 L -0.22125,-0.18525000000000003 L -0.21525,-0.18675000000000003 L -0.22125,-0.19125000000000003 L -0.21525,-0.19724999999999998 L -0.21825,-0.19275000000000003 L -0.21375,-0.18675000000000003 L -0.21675,-0.18525000000000003 L -0.21525,-0.18225000000000002" fill="none" stroke="black" stroke-width="0.002"/>
	<path d="M -0.17925,-0.17775000000000002 L -0.17775,-0.17775000000000002" fill="none" stroke="black" stroke-width="0.002"/>
	<path d="M -0.21225,-0.17775000000000002 L -0.20925,-0.18525000000000003 L -0.21075,-0.19574999999999998 L -0.20925,-0.18375000000000002 L -0.21375,-0.17925000000000002" fill="none" stroke="black" stroke-width="0.002"/>
	<path d="M 0.13724999999999998,-0.17475000000000002 L 0.13574999999999998,-0.17775000000000002 L 0.14024999999999999,-0.18075000000000002 L 0.13724999999999998,-0.17775000000000002" fill="none" stroke="black" stroke-width="0.002"/>
	<path d="M -0.20775,-0.17325000000000002 L -0.22125,-0.17775000000000002 L -0.20775,-0.17325000000000002 L -0.20325,-0.17775000000000002 L -0.20475,-0.19125000000000003 L -0.20325,-0.17625000000000002 L -0.20025,-0.17475000000000002 L -0.19725,-0.17925000000000002 L -0.20025,-0.18525000000000003 L -0.19725,-0.17925000000000002 L -0.20025,-0.17475000000000002 L -0.20475,-0.17625000000000002" fill="none" stroke="black" stroke-width="0.002"/>
	<path d="M -0.19275,-0.17175 L -0.19575,-0.17325000000000002 L -0.19275,-0.17325000000000002" fill="none" stroke="black" stroke-width="0.002"/>
	<path d="M 0.12825000000000003,-0.17025 L 0.12825000000000003,-0.17175" fill="none" stroke="black" stroke-width="0.002"/>
	<path d="M -0.18825,-0.17025 L -0.19725,-0.18825000000000003 L -0.18825,-0.17325000000000002" fill="none" stroke="black" stroke-width="0.002"/>
	<path d="M 0.13424999999999998,-0.16575 L 0.13724999999999998,-0.16875" fill="none" stroke="black" stroke-width="0.002"/>
	<path d="M -0.18075,-0.16275 L -0.18525,-0.17325000000000002 L -0.18075,-0.16425 L -0.17775,-0.16725 L -0.18225,-0.17625000000000002 L -0.18675,-0.17775000000000002 L -0.18675,-0.18375000000000002 L -0.17625000000000002,-0.18675000000000003 L -0.17025,-0.18225000000000002 L -0.17025,-0.17325000000000002 L -0.16575,-0.17325000000000002 L -0.17475000000000002,-0.16875 L -0.17025,-0.17325000000000002 L -0.17025,-0.18075000000000002 L -0.17625000000000002,-0.18675000000000003 L -0.18375,-0.18525000000000003 L -0.18525,-0.18075000000000002 L -0.17775,-0.16875 L -0.17925,-0.16425" fill="none" stroke="black" stroke-width="0.002"/>
	<path d="M -0.16725,-0.15975 L -0.16725,-0.16125" fill="none" stroke="black" stroke-width="0.002"/>
	<path d="M -0.17775,-0.15675 L -0.18225,-0.15975 L -0.17775,-0.15825" fill="none" stroke="black" stroke-width="0.002"/>
	<path d="M -0.17025,-0.15075 L -0.17325000000000002,-0.16425 L -0.16275,-0.17025 L -0.17325000000000002,-0.16275 L -0.16875,-0.15075 L -0.15975,-0.15975 L -0.16875,-0.15075" fill="none" stroke="black" stroke-width="0.002"/>
	<path d="M 0.17775000000000002,-0.14625 L 0.17175,-0.16725 L 0.17775000000000002,-0.15075" fill="none" stroke="black" stroke-width="0.002"/>
	<path d="M -0.21675,-0.14625 L -0.21975,-0.14775 L -0.21675,-0.14775" fill="none" stroke="black" stroke-width="0.002"/>
	<path d="M 0.15675,-0.14024999999999999 L 0.16125,-0.15075 L 0.15825,-0.16725 L 0.16125,-0.14925 L 0.15675,-0.14175" fill="none" stroke="black" stroke-width="0.002"/>
	<path d="M 0.14775,-0.13874999999999998 L 0.15075,-0.14475 L 0.15375,-0.14024999999999999 L 0.15075,-0.14325 L 0.14925,-0.14024999999999999" fill="none" stroke="black" stroke-width="0.002"/>
	<path d="M -0.16425,-0.13724999999999998 L -0.15975,-0.14325 L -0.16575,-0.14625 L -0.15525,-0.15675 L -0.16425,-0.14775 L -0.16125,-0.14475 L -0.14775,-0.15375 L -0.16275,-0.13724999999999998" fill="none" stroke="black" stroke-width="0.002"/>
	<path d="M 0.13874999999999998,-0.13424999999999998 L 0.14475,-0.15525 L 0.15075,-0.16275 L 0.15675,-0.19275000000000003 L 0.15525,-0.20024999999999998 L 0.15825,-0.20625 L 0.15375,-0.21225 L 0.15825,-0.20625 L 0.14925,-0.16125 L 0.15375,-0.15675 L 0.14925,-0.16125 L 0.14625,-0.15825 L 0.14024999999999999,-0.13574999999999998" fill="none" stroke="black" stroke-width="0.002"/>
	<path d="M 0.16275,-0.13274999999999998 L 0.15675,-0.13424999999999998 L 0.16275,-0.13874999999999998 L 0.16725,-0.15375 L 0.16425,-0.17175 L 0.16875,-0.15525 L 0.15975,-0.13574999999999998 L 0.16725,-0.13274999999999998" fill="none" stroke="black" stroke-width="0.002"/>
	<path d="M 0.02024999999999999,-0.12525000000000003 L 0.017250000000000015,-0.12975000000000003 L 0.024749999999999994,-0.12525000000000003" fill="none" stroke="black" stroke-width="0.002"/>
	<path d="M 0.12675000000000003,-0.12375000000000003 L 0.13274999999999998,-0.14475 L 0.13124999999999998,-0.16425 L 0.13424999999999998,-0.14625 L 0.12975000000000003,-0.13724999999999998 L 0.13274999999999998,-0.12975000000000003 L 0.12825000000000003,-0.12975000000000003 L 0.12825000000000003,-0.12375000000000003" fill="none" stroke="black" stroke-width="0.002"/>
	<path d="M 0.15075,-0.12225000000000003 L 0.15225,-0.12375000000000003" fill="none" stroke="black" stroke-width="0.002"/>
	<path d="M -0.029249999999999998,-0.12225000000000003 L -0.024749999999999994,-0.13124999999999998 L -0.024749999999999994,-0.12675000000000003" fill="none" stroke="black" stroke-width="0.002"/>
	<path d="M -0.19275,-0.12225000000000003 L -0.18975,-0.12225000000000003" fill="none" stroke="black" stroke-width="0.002"/>
	<path d="M 0.13724999999999998,-0.12075000000000002 L 0.14325,-0.13274999999999998 L 0.14625,-0.13574999999999998 L 0.14775,-0.13274999999999998 L 0.14325,-0.13124999999999998 L 0.14325,-0.12675000000000003" fill="none" stroke="black" stroke-width="0.002"/>
	<path d="M -0.15525,-0.11925000000000002 L -0.15825,-0.12975000000000003 L -0.16125,-0.13274999999999998 L -0.16575,-0.12975000000000003 L -0.15075,-0.14024999999999999 L -0.16125,-0.13274999999999998 L -0.15825,-0.12975000000000003 L -0.15075,-0.13274999999999998 L -0.14775,-0.12525000000000003 L -0.15225,-0.13274999999999998 L -0.15825,-0.12975000000000003 L -0.15525,-0.12075000000000002" fill="none" stroke="black" stroke-width="0.002"/>
	<path d="M -0.21225,-0.11625000000000002 L -0.19425,-0.14024999999999999 L -0.18825,-0.14325 L -0.18975,-0.14775 L -0.19875,-0.15075 L -0.18525,-0.14625 L -0.21075,-0.11625000000000002" fill="none" stroke="black" stroke-width="0.002"/>
	<path d="M -0.22125,-0.11625000000000002 L -0.21825,-0.12225000000000003 L -0.21825,-0.13874999999999998 L -0.22125,-0.14325 L -0.21825,-0.14325 L -0.21975,-0.11775000000000002" fill="none" stroke="black" stroke-width="0.002"/>
	<path d="M -0.15825,-0.11475000000000002 L -0.15825,-0.11775000000000002 L -0.15675,-0.11475000000000002" fill="none" stroke="black" stroke-width="0.002"/>
	<path d="M -0.15375,-0.11325000000000002 L -0.14475,-0.11325000000000002 L -0.14325,-0.12225000000000003 L -0.14325,-0.11325000000000002 L -0.15225,-0.11325000000000002" fill="none" stroke="black" stroke-width="0.002"/>
	<path d="M -0.06225,-0.11175000000000002 L -0.038250000000000006,-0.11625000000000002 L -0.03975000000000001,-0.12075000000000002 L -0.03075,-0.11775000000000002 L -0.002250000000000002,-0.12675000000000003 L 0.01125000000000001,-0.12675000000000003 L 0.01874999999999999,-0.12075000000000002 L 0.05025000000000002,-0.12225000000000003 L 0.04425000000000001,-0.12375000000000003 L 0.038250000000000006,-0.11925000000000002 L 0.017250000000000015,-0.12075000000000002 L 0.009750000000000009,-0.12675000000000003 L -0.002250000000000002,-0.12675000000000003 L -0.06075,-0.11175000000000002" fill="none" stroke="black" stroke-width="0.002"/>
	<path d="M -0.22125,-0.10875000000000001 L -0.20475,-0.13424999999999998 L -0.20625,-0.13724999999999998 L -0.21525,-0.12975000000000003 L -0.20925,-0.13724999999999998 L -0.20325,-0.13574999999999998 L -0.21975,-0.10875000000000001" fill="none" stroke="black" stroke-width="0.002"/>
	<path d="M -0.18675,-0.10425000000000001 L -0.18975,-0.11475000000000002 L -0.19725,-0.12075000000000002 L -0.20775,-0.11025000000000001 L -0.21525,-0.10875000000000001 L -0.19575,-0.12225000000000003 L -0.18525,-0.10725000000000001 L -0.17625000000000002,-0.12375000000000003 L -0.17475000000000002,-0.13574999999999998 L -0.19125,-0.16875 L -0.18525,-0.16275 L -0.18675,-0.15825 L -0.17775,-0.14175 L -0.17175,-0.14625 L -0.17475000000000002,-0.15225 L -0.17175,-0.14775 L -0.17625000000000002,-0.14024999999999999 L -0.17625000000000002,-0.12225000000000003 L -0.18675,-0.10575000000000001" fill="none" stroke="black" stroke-width="0.002"/>
	<path d="M -0.19725,-0.10425000000000001 L -0.19575,-0.10425000000000001" fill="none" stroke="black" stroke-width="0.002"/>
	<path d="M -0.17925,-0.10125 L -0.18225,-0.10425000000000001 L -0.17925,-0.10125 L -0.17625000000000002,-0.10725000000000001 L -0.17475000000000002,-0.10275000000000001 L -0.17775,-0.10125" fill="none" stroke="black" stroke-width="0.002"/>
	<path d="M -0.017249999999999988,-0.09675 L -0.009750000000000009,-0.09975 L -0.0007500000000000007,-0.09975 L -0.015749999999999986,-0.09675" fill="none" stroke="black" stroke-width="0.002"/>
	<path d="M 0.06675000000000003,-0.08775 L 0.07124999999999998,-0.09225" fill="none" stroke="black" stroke-width="0.002"/>
	<path d="M -0.029249999999999998,-0.08625 L -0.03375,-0.09075 L -0.03225,-0.08775 L -0.024749999999999994,-0.08775 L 0.005250000000000005,-0.09525 L 0.009750000000000009,-0.09075 L -0.0007500000000000007,-0.09375 L -0.027749999999999997,-0.08775" fill="none" stroke="black" stroke-width="0.002"/>
	<path d="M -0.15375,-0.08174999999999999 L -0.17025,-0.09075 L -0.22125,-0.10425000000000001 L -0.17025,-0.09075 L -0.15375,-0.08174999999999999 L -0.14325,-0.08324999999999999 L -0.16275,-0.11325000000000002 L -0.16575,-0.10875000000000001 L -0.15825,-0.09525 L -0.17025,-0.09825 L -0.17175,-0.12525000000000003 L -0.17175,-0.10275000000000001 L -0.16425,-0.09525 L -0.15825,-0.09675 L -0.16575,-0.10875000000000001 L -0.17025,-0.13874999999999998 L -0.16725,-0.11925000000000002 L -0.16125,-0.11925000000000002 L -0.16575,-0.11475000000000002 L -0.16125,-0.11325000000000002 L -0.14175,-0.08474999999999999 L -0.15225,-0.08324999999999999" fill="none" stroke="black" stroke-width="0.002"/>
	<path d="M -0.17025,-0.07724999999999999 L -0.17175,-0.08174999999999999 L -0.16875,-0.08324999999999999 L -0.16875,-0.07724999999999999 L -0.15975,-0.07724999999999999" fill="none" stroke="black" stroke-width="0.002"/>
	<path d="M -0.06675,-0.07424999999999998 L -0.07125000000000001,-0.07874999999999999 L -0.06525,-0.07424999999999998" fill="none" stroke="black" stroke-width="0.002"/>
	<path d="M 0.035250000000000004,-0.07274999999999998 L 0.036750000000000005,-0.07724999999999999 L 0.04125000000000001,-0.07724999999999999 L 0.05025000000000002,-0.08625 L 0.035250000000000004,-0.07424999999999998" fill="none" stroke="black" stroke-width="0.002"/>
	<path d="M -0.04425000000000001,-0.07124999999999998 L -0.05324999999999999,-0.07874999999999999 L -0.04275000000000001,-0.07124999999999998" fill="none" stroke="black" stroke-width="0.002"/>
	<path d="M -0.04275000000000001,-0.06225000000000003 L -0.04425000000000001,-0.06824999999999998 L -0.04125000000000001,-0.06225000000000003" fill="none" stroke="black" stroke-width="0.002"/>
	<path d="M -0.14325,-0.05625000000000002 L -0.14325,-0.060750000000000026 L -0.14175,-0.05625000000000002" fill="none" stroke="black" stroke-width="0.002"/>
	<path d="M -0.13424999999999998,-0.05475000000000002 L -0.13125,-0.08925 L -0.12675,-0.10125 L -0.13125,-0.08925 L -0.13424999999999998,-0.057750000000000024" fill="none" stroke="black" stroke-width="0.002"/>
	<path d="M 0.035250000000000004,-0.05175000000000002 L 0.023249999999999993,-0.060750000000000026 L 0.03975000000000001,-0.05325000000000002 L 0.036750000000000005,-0.05175000000000002" fill="none" stroke="black" stroke-width="0.002"/>
	<path d="M -0.04275000000000001,-0.04425000000000001 L -0.035250000000000004,-0.05475000000000002 L -0.04125000000000001,-0.04425000000000001" fill="none" stroke="black" stroke-width="0.002"/>
	<path d="M -0.15825,-0.04425000000000001 L -0.15375,-0.04425000000000001 L -0.15225,-0.048750000000000016 L -0.14325,-0.05325000000000002 L -0.15225,-0.047250000000000014 L -0.14775,-0.04425000000000001" fill="none" stroke="black" stroke-width="0.002"/>
	<path d="M -0.16425,-0.04125000000000001 L -0.16425,-0.047250000000000014 L -0.14775,-0.06525000000000003 L -0.13724999999999998,-0.06375000000000003 L -0.13724999999999998,-0.05475000000000002 L -0.13724999999999998,-0.06225000000000003 L -0.14775,-0.06525000000000003 L -0.15375,-0.059250000000000025 L -0.15075,-0.05325000000000002 L -0.15225,-0.057750000000000024 L -0.16575,-0.04425000000000001 L -0.16275,-0.04125000000000001" fill="none" stroke="black" stroke-width="0.002"/>
	<path d="M 0.02174999999999999,-0.036750000000000005 L 0.008250000000000007,-0.04425000000000001 L -0.0007500000000000007,-0.05625000000000002 L 0.01874999999999999,-0.038250000000000006 L 0.029249999999999998,-0.036750000000000005 L 0.035250000000000004,-0.03975000000000001 L 0.03075,-0.036750000000000005" fill="none" stroke="black" stroke-width="0.002"/>
	<path d="M 0.01125000000000001,-0.036750000000000005 L 0.01125000000000001,-0.038250000000000006" fill="none" stroke="black" stroke-width="0.002"/>
	<path d="M 0.14175,-0.03375 L 0.14175,-0.038250000000000006" fill="none" stroke="black" stroke-width="0.002"/>
	<path d="M -0.029249999999999998,-0.03075 L -0.035250000000000004,-0.03375 L -0.029249999999999998,-0.03075 L -0.02174999999999999,-0.04275000000000001 L -0.01874999999999999,-0.03975000000000001 L -0.027749999999999997,-0.03075" fill="none" stroke="black" stroke-width="0.002"/>
	<path d="M -0.15975,-0.029249999999999998 L -0.15825,-0.035250000000000004 L -0.16275,-0.03225" fill="none" stroke="black" stroke-width="0.002"/>
	<path d="M -0.15975,-0.029249999999999998 L -0.16275,-0.035250000000000004 L -0.15975,-0.036750000000000005 L -0.15825,-0.03075" fill="none" stroke="black" stroke-width="0.002"/>
	<path d="M -0.15225,-0.026249999999999996 L -0.14775,-0.038250000000000006 L -0.14775,-0.027749999999999997 L -0.14925,-0.03375 L -0.15225,-0.03075" fill="none" stroke="black" stroke-width="0.002"/>
	<path d="M -0.023249999999999993,-0.02024999999999999 L -0.02174999999999999,-0.029249999999999998 L -0.014249999999999985,-0.036750000000000005 L -0.023249999999999993,-0.024749999999999994" fill="none" stroke="black" stroke-width="0.002"/>
	<path d="M 0.20625,-0.01874999999999999 L 0.21225,-0.01874999999999999 L 0.20775,-0.02024999999999999" fill="none" stroke="black" stroke-width="0.002"/>
	<path d="M 0.03375,-0.01874999999999999 L 0.04275000000000001,-0.03075 L 0.035250000000000004,-0.01874999999999999" fill="none" stroke="black" stroke-width="0.002"/>
	<path d="M 0.14475,-0.017250000000000015 L 0.13724999999999998,-0.023249999999999993 L 0.13724999999999998,-0.04275000000000001 L 0.14325,-0.05175000000000002 L 0.13874999999999998,-0.060750000000000026 L 0.13724999999999998,-0.05025000000000002 L 0.13874999999999998,-0.060750000000000026 L 0.13424999999999998,-0.06824999999999998 L 0.13124999999999998,-0.10875000000000001 L 0.21975,-0.14625 L 0.13574999999999998,-0.11175000000000002 L 0.13124999999999998,-0.10725000000000001 L 0.13424999999999998,-0.10425000000000001 L 0.13124999999999998,-0.09975 L 0.13424999999999998,-0.06824999999999998 L 0.14175,-0.059250000000000025 L 0.14325,-0.05175000000000002 L 0.13724999999999998,-0.04275000000000001 L 0.13724999999999998,-0.023249999999999993 L 0.14175,-0.02024999999999999 L 0.14325,-0.027749999999999997 L 0.14175,-0.02024999999999999 L 0.14625,-0.017250000000000015 L 0.16275,-0.02024999999999999 L 0.18825000000000003,-0.01874999999999999 L 0.16275,-0.02024999999999999 L 0.14775,-0.017250000000000015" fill="none" stroke="black" stroke-width="0.002"/>
	<path d="M -0.17175,-0.012750000000000011 L -0.17175,-0.014250000000000013" fill="none" stroke="black" stroke-width="0.002"/>
	<path d="M 0.19125000000000003,-0.006750000000000006 L 0.18075000000000002,-0.01125000000000001 L 0.18975000000000003,-0.015750000000000014 L 0.21975,-0.015750000000000014 L 0.21675,-0.009750000000000009 L 0.21525,-0.015750000000000014 L 0.21375,-0.009750000000000009 L 0.21225,-0.015750000000000014 L 0.18975000000000003,-0.015750000000000014 L 0.18225000000000002,-0.01125000000000001 L 0.18975000000000003,-0.008250000000000007" fill="none" stroke="black" stroke-width="0.002"/>
	<path d="M -0.16125,-0.0037500000000000033 L -0.16425,-0.006750000000000006 L -0.16125,-0.005250000000000005" fill="none" stroke="black" stroke-width="0.002"/>
	<path d="M 0.17325000000000002,-0.0007500000000000007 L 0.17775000000000002,-0.0037500000000000033 L 0.17025,-0.0037500000000000033" fill="none" stroke="black" stroke-width="0.002"/>
	<path d="M 0.17175,-0.0007500000000000007 L 0.16875,-0.0037500000000000033 L 0.17325000000000002,-0.006750000000000006 L 0.17925000000000002,-0.005250000000000005 L 0.17625000000000002,-0.0007500000000000007" fill="none" stroke="black" stroke-width="0.002"/>
	<path d="M 0.21075,0.0007500000000000007 L 0.20925,-0.006750000000000006 L 0.19125000000000003,-0.0007500000000000007 L 0.19275000000000003,-0.0037500000000000033 L 0.21075,-0.006750000000000006" fill="none" stroke="black" stroke-width="0.002"/>
	<path d="M -0.17625000000000002,0.002250000000000002 L -0.17475000000000002,0.0007500000000000007" fill="none" stroke="black" stroke-width="0.002"/>
	<path d="M -0.17775,0.005250000000000005 L -0.17325000000000002,-0.0007500000000000007 L -0.17625000000000002,-0.02024999999999999 L -0.17325000000000002,-0.005250000000000005 L -0.17325000000000002,0.002250000000000002 L -0.17625000000000002,0.0037500000000000033" fill="none" stroke="black" stroke-width="0.002"/>
	<path d="M -0.18375,0.008250000000000007 L -0.18075,0.005250000000000005" fill="none" stroke="black" stroke-width="0.002"/>
	<path d="M 0.18075000000000002,0.015749999999999986 L 0.20174999999999998,0.008250000000000007 L 0.20024999999999998,0.0037500000000000033 L 0.17775000000000002,0.009750000000000009 L 0.18525000000000003,0.005250000000000005 L 0.20925,0.0037500000000000033 L 0.20174999999999998,0.006750000000000006 L 0.21075,0.009750000000000009 L 0.20174999999999998,0.008250000000000007 L 0.20024999999999998,0.012750000000000011 L 0.19275000000000003,0.009750000000000009 L 0.18225000000000002,0.014249999999999985" fill="none" stroke="black" stroke-width="0.002"/>
	<path d="M -0.20325,0.017249999999999988 L -0.19875,0.017249999999999988" fill="none" stroke="black" stroke-width="0.002"/>
	<path d="M 0.19874999999999998,0.01874999999999999 L 0.20024999999999998,0.015749999999999986 L 0.20024999999999998,0.01874999999999999" fill="none" stroke="black" stroke-width="0.002"/>
	<path d="M 0.20325,0.02024999999999999 L 0.20475,0.02024999999999999" fill="none" stroke="black" stroke-width="0.002"/>
	<path d="M 0.13724999999999998,0.02174999999999999 L 0.13724999999999998,0.017249999999999988" fill="none" stroke="black" stroke-width="0.002"/>
	<path d="M 0.014250000000000013,0.023249999999999993 L 0.014250000000000013,0.008250000000000007 L 0.024749999999999994,-0.014250000000000013 L 0.017250000000000015,-0.002250000000000002 L 0.014250000000000013,0.02174999999999999" fill="none" stroke="black" stroke-width="0.002"/>
	<path d="M -0.006750000000000006,0.023249999999999993 L -0.009750000000000009,0.012750000000000011 L -0.02174999999999999,0.0007500000000000007 L -0.026249999999999996,-0.017250000000000015 L -0.02174999999999999,-0.0007500000000000007 L -0.014249999999999985,0.009750000000000009 L -0.009750000000000009,0.006750000000000006 L -0.014249999999999985,-0.002250000000000002 L -0.01125000000000001,-0.008250000000000007 L -0.014249999999999985,-0.002250000000000002 L -0.008250000000000007,0.005250000000000005 L -0.01125000000000001,0.009750000000000009 L -0.006750000000000006,0.012750000000000011 L -0.009750000000000009,0.01874999999999999 L -0.005250000000000005,0.023249999999999993" fill="none" stroke="black" stroke-width="0.002"/>
	<path d="M -0.18975,0.026249999999999996 L -0.19575,0.01874999999999999 L -0.19125,0.014249999999999985 L -0.17475000000000002,0.012750000000000011 L -0.17475000000000002,0.017249999999999988 L -0.18075,0.015749999999999986 L -0.17475000000000002,0.014249999999999985 L -0.17775,0.01125000000000001 L -0.18975,0.014249999999999985 L -0.19275,0.017249999999999988 L -0.18975,0.024749999999999994" fill="none" stroke="black" stroke-width="0.002"/>
	<path d="M 0.20325,0.03225 L 0.19425000000000003,0.027749999999999997 L 0.19425000000000003,0.01874999999999999 L 0.19275000000000003,0.024749999999999994 L 0.20625,0.03225" fill="none" stroke="black" stroke-width="0.002"/>
	<path d="M -0.06525,0.04425000000000001 L -0.06225,0.03975000000000001 L -0.06525,0.04275000000000001 L -0.06075,0.04425000000000001" fill="none" stroke="black" stroke-width="0.002"/>
	<path d="M -0.09075,0.045749999999999985 L -0.07575000000000001,0.038250000000000006 L -0.08625,0.045749999999999985 L -0.08925,0.04425000000000001" fill="none" stroke="black" stroke-width="0.002"/>
	<path d="M -0.19275,0.04874999999999999 L -0.19125,0.04275000000000001 L -0.17925,0.045749999999999985 L -0.19275,0.045749999999999985" fill="none" stroke="black" stroke-width="0.002"/>
	<path d="M -0.07275000000000001,0.05024999999999999 L -0.06825,0.045749999999999985 L -0.06825,0.05024999999999999" fill="none" stroke="black" stroke-width="0.002"/>
	<path d="M 0.08024999999999999,0.05174999999999999 L 0.09075,0.047249999999999986 L 0.09075,0.04125000000000001 L 0.08024999999999999,0.03375 L 0.07574999999999998,0.036750000000000005 L 0.08024999999999999,0.04275000000000001" fill="none" stroke="black" stroke-width="0.002"/>
	<path d="M 0.048750000000000016,0.05174999999999999 L 0.04575000000000001,0.04125000000000001 L 0.05175000000000002,0.035250000000000004 L 0.04575000000000001,0.04125000000000001 L 0.05025000000000002,0.05174999999999999 L 0.05475000000000002,0.036750000000000005 L 0.057750000000000024,0.036750000000000005 L 0.05175000000000002,0.05174999999999999" fill="none" stroke="black" stroke-width="0.002"/>
	<path d="M -0.008250000000000007,0.05174999999999999 L -0.015749999999999986,0.035250000000000004 L -0.02024999999999999,0.03225 L -0.017249999999999988,0.03075 L -0.008250000000000007,0.05024999999999999" fill="none" stroke="black" stroke-width="0.002"/>
	<path d="M 0.08174999999999999,0.05324999999999999 L 0.07874999999999999,0.03975000000000001 L 0.07424999999999998,0.036750000000000005 L 0.07274999999999998,0.04275000000000001 L 0.07574999999999998,0.04275000000000001 L 0.07274999999999998,0.04425000000000001 L 0.07424999999999998,0.036750000000000005 L 0.07124999999999998,0.03375 L 0.07574999999999998,0.036750000000000005 L 0.08024999999999999,0.03375 L 0.09225,0.04125000000000001 L 0.09075,0.04874999999999999 L 0.08324999999999999,0.05174999999999999" fill="none" stroke="black" stroke-width="0.002"/>
	<path d="M 0.060750000000000026,0.05324999999999999 L 0.06675000000000003,0.05324999999999999 L 0.06675000000000003,0.05024999999999999 L 0.06225000000000003,0.05024999999999999 L 0.06974999999999998,0.05324999999999999" fill="none" stroke="black" stroke-width="0.002"/>
	<path d="M 0.014250000000000013,0.05474999999999999 L 0.02174999999999999,0.029249999999999998 L 0.014250000000000013,0.05324999999999999" fill="none" stroke="black" stroke-width="0.002"/>
	<path d="M -0.047249999999999986,0.05474999999999999 L -0.04275000000000001,0.05024999999999999 L -0.04425000000000001,0.047249999999999986 L -0.04125000000000001,0.04874999999999999 L -0.045749999999999985,0.05474999999999999" fill="none" stroke="black" stroke-width="0.002"/>
	<path d="M -0.08775,0.05474999999999999 L -0.09075,0.05174999999999999 L -0.08775,0.05324999999999999" fill="none" stroke="black" stroke-width="0.002"/>
	<path d="M -0.19125,0.05474999999999999 L -0.19725,0.04874999999999999 L -0.19575,0.023249999999999993 L -0.19425,0.03225 L -0.18525,0.03075 L -0.18075,0.026249999999999996 L -0.17925,0.029249999999999998 L -0.18525,0.03075 L -0.17175,0.03975000000000001 L -0.18975,0.029249999999999998 L -0.19275,0.03075 L -0.19725,0.047249999999999986 L -0.19425,0.05324999999999999 L -0.18375,0.05324999999999999 L -0.18975,0.05324999999999999" fill="none" stroke="black" stroke-width="0.002"/>
	<path d="M -0.05024999999999999,0.056249999999999994 L -0.05024999999999999,0.045749999999999985 L -0.05925,0.038250000000000006 L -0.05174999999999999,0.04275000000000001 L -0.04425000000000001,0.04125000000000001 L -0.04275000000000001,0.04425000000000001 L -0.05024999999999999,0.04125000000000001 L -0.05024999999999999,0.045749999999999985" fill="none" stroke="black" stroke-width="0.002"/>
	<path d="M -0.06075,0.057749999999999996 L -0.05925,0.05324999999999999 L -0.06525,0.05474999999999999 L -0.05925,0.05324999999999999 L -0.056249999999999994,0.05474999999999999 L -0.05925,0.056249999999999994" fill="none" stroke="black" stroke-width="0.002"/>
	<path d="M -0.08174999999999999,0.057749999999999996 L -0.08474999999999999,0.05324999999999999 L -0.07724999999999999,0.057749999999999996 L -0.07575000000000001,0.04275000000000001 L -0.06825,0.036750000000000005 L -0.07575000000000001,0.04425000000000001 L -0.07724999999999999,0.057749999999999996" fill="none" stroke="black" stroke-width="0.002"/>
	<path d="M 0.20775,0.06375 L 0.20325,0.056249999999999994 L 0.20775,0.05474999999999999 L 0.20775,0.04874999999999999 L 0.20775,0.06225" fill="none" stroke="black" stroke-width="0.002"/>
	<path d="M 0.19275000000000003,0.06975 L 0.20475,0.06525 L 0.19425000000000003,0.06825" fill="none" stroke="black" stroke-width="0.002"/>
	<path d="M -0.20925,0.07724999999999999 L -0.20775,0.07724999999999999" fill="none" stroke="black" stroke-width="0.002"/>
	<path d="M 0.21075,0.08024999999999999 L 0.21525,0.057749999999999996 L 0.21075,0.01874999999999999 L 0.21675,-0.006750000000000006 L 0.21975,-0.002250000000000002 L 0.21525,-0.0007500000000000007 L 0.21375,0.017249999999999988 L 0.21075,0.02024999999999999 L 0.21525,0.057749999999999996 L 0.20925,0.07724999999999999 L 0.21375,0.08024999999999999" fill="none" stroke="black" stroke-width="0.002"/>
	<path d="M -0.18525,0.08024999999999999 L -0.19575,0.07425000000000001 L -0.18675,0.07874999999999999" fill="none" stroke="black" stroke-width="0.002"/>
	<path d="M -0.08625,0.08324999999999999 L -0.07575000000000001,0.07874999999999999 L -0.05324999999999999,0.07724999999999999 L -0.08474999999999999,0.08174999999999999" fill="none" stroke="black" stroke-width="0.002"/>
	<path d="M -0.15075,0.08474999999999999 L -0.15825,0.07425000000000001 L -0.14925,0.08174999999999999 L -0.15075,0.07125000000000001 L -0.14925,0.08474999999999999" fill="none" stroke="black" stroke-width="0.002"/>
	<path d="M 0.21675,0.09075 L 0.21675,0.07724999999999999 L 0.21975,0.08775 L 0.21675,0.08925" fill="none" stroke="black" stroke-width="0.002"/>
	<path d="M -0.17775,0.09075 L -0.19125,0.08324999999999999 L -0.19425,0.08474999999999999 L -0.18975,0.08324999999999999 L -0.17625000000000002,0.09075" fill="none" stroke="black" stroke-width="0.002"/>
	<path d="M 0.20925,0.09225 L 0.21225,0.08775 L 0.20475,0.08024999999999999 L 0.19874999999999998,0.08024999999999999 L 0.20475,0.07874999999999999 L 0.20475,0.06825 L 0.20475,0.08024999999999999 L 0.21225,0.08474999999999999 L 0.21225,0.08925" fill="none" stroke="black" stroke-width="0.002"/>
	<path d="M -0.15075,0.09525 L -0.15525,0.08925 L -0.16425,0.08925 L -0.17925,0.07125000000000001 L -0.18525,0.06825 L -0.19275,0.06975 L -0.19725,0.06525 L -0.17775,0.07125000000000001 L -0.16275,0.08925 L -0.15525,0.08925 L -0.14925,0.09525" fill="none" stroke="black" stroke-width="0.002"/>
	<path d="M -0.20325,0.09975 L -0.20475,0.06525 L -0.20025,0.04275000000000001 L -0.20325,0.05925 L -0.20025,0.06075 L -0.19875,0.05474999999999999 L -0.19875,0.06075 L -0.20325,0.06225 L -0.20475,0.06825 L -0.20175,0.07275000000000001 L -0.20025,0.06675 L -0.20325,0.07575000000000001 L -0.19275,0.08024999999999999 L -0.19725,0.08174999999999999 L -0.19575,0.09075 L -0.19725,0.08174999999999999 L -0.20175,0.07724999999999999 L -0.20475,0.07874999999999999 L -0.20475,0.09825" fill="none" stroke="black" stroke-width="0.002"/>
	<path d="M 0.19425000000000003,0.10425 L 0.20775,0.09525 L 0.19574999999999998,0.10425" fill="none" stroke="black" stroke-width="0.002"/>
	<path d="M -0.16575,0.11025 L -0.15825,0.10425 L -0.16575,0.10875" fill="none" stroke="black" stroke-width="0.002"/>
	<path d="M -0.18225,0.11175 L -0.19725,0.10275 L -0.18525,0.10875 L -0.17775,0.10275 L -0.18225,0.11025" fill="none" stroke="black" stroke-width="0.002"/>
	<path d="M 0.21525,0.11625 L 0.21075,0.11025 L 0.21825,0.10125 L 0.21975,0.10425 L 0.21075,0.11025 L 0.21825,0.11625" fill="none" stroke="black" stroke-width="0.002"/>
	<path d="M -0.19725,0.11775 L -0.19575,0.11625" fill="none" stroke="black" stroke-width="0.002"/>
	<path d="M 0.18675000000000003,0.12225 L 0.19425000000000003,0.11325 L 0.19874999999999998,0.11325 L 0.19275000000000003,0.11475 L 0.18825000000000003,0.12225" fill="none" stroke="black" stroke-width="0.002"/>
	<path d="M -0.14625,0.12225 L -0.15375,0.11775 L -0.14175,0.12225" fill="none" stroke="black" stroke-width="0.002"/>
	<path d="M -0.17325000000000002,0.13125 L -0.18225,0.12225 L -0.17175,0.12975" fill="none" stroke="black" stroke-width="0.002"/>
	<path d="M -0.18075,0.13724999999999998 L -0.19125,0.13125 L -0.18075,0.13574999999999998" fill="none" stroke="black" stroke-width="0.002"/>
	<path d="M -0.16275,0.14475 L -0.15975,0.12525 L -0.16275,0.14024999999999999" fill="none" stroke="black" stroke-width="0.002"/>
	<path d="M -0.17175,0.16875 L -0.17325000000000002,0.15525 L -0.17925,0.14775 L -0.17325000000000002,0.15375 L -0.17325000000000002,0.16725" fill="none" stroke="black" stroke-width="0.002"/>
	<path d="M -0.18075,0.17025 L -0.18375,0.15975 L -0.19875,0.13724999999999998 L -0.19875,0.12675 L -0.20325,0.11775 L -0.20025,0.10125 L -0.20325,0.11775 L -0.19875,0.13574999999999998 L -0.17775,0.17025" fill="none" stroke="black" stroke-width="0.002"/>
	<path d="M -0.16425,0.18675 L -0.17175,0.17475000000000002 L -0.17025,0.17175 L -0.16875,0.18075 L -0.16275,0.18675" fill="none" stroke="black" stroke-width="0.002"/>
	<path d="M 0.14475,0.21225 L 0.14625,0.20175 L 0.15675,0.18975 L 0.14475,0.20625" fill="none" stroke="black" stroke-width="0.002"/>
	<path d="M -0.02024999999999999,0.21225 L -0.02024999999999999,0.19725 L -0.02174999999999999,0.20925 L -0.01874999999999999,0.21075" fill="none" stroke="black" stroke-width="0.002"/>
	<path d="M -0.12225,0.21375 L -0.13275,0.20475 L -0.14925,0.20025 L -0.14325,0.19875 L -0.12375,0.21225" fill="none" stroke="black" stroke-width="0.002"/>
	<path d="M -0.005250000000000005,0.21525 L -0.009750000000000009,0.21225 L -0.006750000000000006,0.21375 L -0.002250000000000002,0.20775 L -0.005250000000000005,0.21375" fill="none" stroke="black" stroke-width="0.002"/>
	<path d="M -0.14625,0.21525 L -0.15825,0.21225 L -0.16425,0.20325 L -0.15675,0.21225 L -0.14625,0.21525 L -0.14024999999999999,0.21075 L -0.14775,0.20325 L -0.13874999999999998,0.21075 L -0.14175,0.21525" fill="none" stroke="black" stroke-width="0.002"/>
	<path d="M 0.15825,0.22125 L 0.15525,0.21975 L 0.16425,0.21525 L 0.17325000000000002,0.20175 L 0.17325000000000002,0.18825 L 0.18225000000000002,0.15675 L 0.18075000000000002,0.14625 L 0.20024999999999998,0.13424999999999998 L 0.20174999999999998,0.12075 L 0.20925,0.11475 L 0.20174999999999998,0.12225 L 0.20024999999999998,0.13574999999999998 L 0.18075000000000002,0.14775 L 0.18225000000000002,0.15675 L 0.17475000000000002,0.18075 L 0.17325000000000002,0.20175 L 0.17025,0.21075 L 0.15675,0.21975" fill="none" stroke="black" stroke-width="0.002"/>
	<path d="M -0.16425,0.22125 L -0.17475000000000002,0.20025 L -0.17925,0.18675 L -0.17775,0.18075 L -0.18675,0.17625000000000002 L -0.18375,0.17175 L -0.18525,0.17475000000000002 L -0.17775,0.18075 L -0.17925,0.18675 L -0.16425,0.21825" fill="none" stroke="black" stroke-width="0.002"/>
</svg>
