<?xml version="1.0" ?>
<svg xmlns="http://www.w3.org/2000/svg" xmlns:ev="http://www.w3.org/2001/xml-events" xmlns:xlink="http://www.w3.org/1999/xlink" baseProfile="full" height="569px" version="1.1" viewBox="-0.242151 -0.238551 0.48280200000000006 0.457602" width="600px">
	<defs/>
	<path d="M 0.15374999999999997,-0.18975 L 0.16724999999999998,-0.19575 L 0.15524999999999997,-0.19125" fill="none" stroke="black" stroke-width="0.002"/>
	<path d="M -0.13125,-0.18675 L -0.13125,-0.19275" fill="none" stroke="black" stroke-width="0.002"/>
	<path d="M 0.15524999999999997,-0.18525 L 0.17174999999999999,-0.19425 L 0.16724999999999998,-0.18975 L 0.15824999999999997,-0.18825" fill="none" stroke="black" stroke-width="0.002"/>
	<path d="M -0.18825,-0.17925 L -0.19125,-0.20025 L -0.18975,-0.18225 L -0.18675000000000003,-0.17925" fill="none" stroke="black" stroke-width="0.002"/>
	<path d="M -0.16875,-0.15824999999999997 L -0.20175,-0.17775 L -0.19875,-0.17925 L -0.18525000000000003,-0.16724999999999998 L -0.16725,-0.15974999999999998" fill="none" stroke="black" stroke-width="0.002"/>
	<path d="M -0.15225,-0.15224999999999997 L -0.15975,-0.16274999999999998 L -0.15075,-0.18675 L -0.15975,-0.16574999999999998 L -0.15225,-0.15374999999999997" fill="none" stroke="black" stroke-width="0.002"/>
	<path d="M 0.09224999999999997,-0.14175000000000001 L 0.09674999999999997,-0.15074999999999997 L 0.09374999999999997,-0.15374999999999997 L 0.11024999999999999,-0.17325 L 0.11474999999999999,-0.20025 L 0.10724999999999998,-0.16274999999999998 L 0.09374999999999997,-0.15374999999999997 L 0.09674999999999997,-0.15074999999999997 L 0.12075,-0.17174999999999999 L 0.12825,-0.19275 L 0.12675,-0.20025 L 0.12825,-0.19275 L 0.12075,-0.17024999999999998 L 0.09224999999999997,-0.14625000000000002" fill="none" stroke="black" stroke-width="0.002"/>
	<path d="M -0.015750000000000014,-0.13425 L -0.02175000000000002,-0.13875 L -0.015750000000000014,-0.13425 L 0.01874999999999999,-0.13425 L -0.012750000000000011,-0.13425" fill="none" stroke="black" stroke-width="0.002"/>
	<path d="M -0.13275,-0.13425 L -0.13875,-0.14025 L -0.14325000000000002,-0.15524999999999997 L -0.14175000000000001,-0.17325 L -0.13275,-0.20025 L -0.14325000000000002,-0.16124999999999998 L -0.14175000000000001,-0.14625000000000002 L -0.13275,-0.13575" fill="none" stroke="black" stroke-width="0.002"/>
	<path d="M -0.11625,-0.12675 L -0.12525000000000003,-0.16124999999999998 L -0.12375000000000001,-0.20025 L -0.12525000000000003,-0.16124999999999998 L -0.11625,-0.13275" fill="none" stroke="black" stroke-width="0.002"/>
	<path d="M -0.11025000000000001,-0.11775 L -0.10275000000000001,-0.12825 L -0.10875000000000001,-0.11775" fill="none" stroke="black" stroke-width="0.002"/>
	<path d="M 0.027749999999999997,-0.09824999999999998 L 0.015749999999999986,-0.10274999999999998 L 0.027749999999999997,-0.09824999999999998 L 0.047249999999999986,-0.09974999999999998 L 0.03075,-0.09824999999999998" fill="none" stroke="black" stroke-width="0.002"/>
	<path d="M -0.07875000000000001,-0.08625000000000002 L -0.08025000000000002,-0.08774999999999997" fill="none" stroke="black" stroke-width="0.002"/>
	<path d="M -0.11175000000000002,-0.07875000000000001 L -0.10125,-0.10724999999999998 L -0.10875000000000001,-0.08175000000000002" fill="none" stroke="black" stroke-width="0.002"/>
	<path d="M -0.13275,-0.07275000000000001 L -0.12225000000000001,-0.08774999999999997 L -0.11325000000000002,-0.11775 L -0.13425,-0.12975 L -0.14925000000000002,-0.14475000000000002 L -0.20175,-0.16874999999999998 L -0.14775000000000002,-0.14475000000000002 L -0.13275,-0.12975 L -0.11325000000000002,-0.11925 L -0.12375000000000001,-0.08325000000000002 L -0.13125,-0.07275000000000001" fill="none" stroke="black" stroke-width="0.002"/>
	<path d="M -0.07725000000000001,-0.06375 L -0.07875000000000001,-0.08025000000000002 L -0.08625000000000001,-0.08774999999999997 L -0.07875000000000001,-0.08175000000000002 L -0.07725000000000001,-0.06825" fill="none" stroke="black" stroke-width="0.002"/>
	<path d="M -0.12825000000000003,-0.05174999999999999 L -0.12525000000000003,-0.06075 L -0.12525000000000003,-0.07425000000000001 L -0.12825000000000003,-0.056249999999999994" fill="none" stroke="black" stroke-width="0.002"/>
	<path d="M 0.035250000000000004,-0.04124999999999998 L 0.024749999999999994,-0.05474999999999999 L 0.024749999999999994,-0.06675 L 0.029249999999999998,-0.06975 L 0.024749999999999994,-0.06525 L 0.024749999999999994,-0.057749999999999996 L 0.035250000000000004,-0.04274999999999998" fill="none" stroke="black" stroke-width="0.002"/>
	<path d="M -0.13875,-0.03824999999999998 L -0.13725,-0.03974999999999998" fill="none" stroke="black" stroke-width="0.002"/>
	<path d="M -0.12525000000000003,-0.036750000000000005 L -0.12675000000000003,-0.04874999999999999 L -0.12375000000000001,-0.03824999999999998" fill="none" stroke="black" stroke-width="0.002"/>
	<path d="M 0.027749999999999997,-0.03225 L 0.017249999999999988,-0.036750000000000005 L 0.002250000000000002,-0.05474999999999999 L -0.0037500000000000033,-0.056249999999999994 L -0.012750000000000011,-0.04874999999999999 L -0.008250000000000007,-0.05474999999999999 L 0.0037500000000000033,-0.05474999999999999 L 0.01874999999999999,-0.036750000000000005 L 0.027749999999999997,-0.03225 L 0.03375,-0.035250000000000004 L 0.035250000000000004,-0.03225 L 0.029249999999999998,-0.03225" fill="none" stroke="black" stroke-width="0.002"/>
	<path d="M -0.035250000000000004,-0.03075 L -0.035250000000000004,-0.03225" fill="none" stroke="black" stroke-width="0.002"/>
	<path d="M -0.027749999999999997,-0.029249999999999998 L -0.026249999999999996,-0.03075" fill="none" stroke="black" stroke-width="0.002"/>
	<path d="M -0.14775000000000002,-0.026249999999999996 L -0.14175000000000001,-0.03225 L -0.13725,-0.029249999999999998 L -0.13275,-0.03225 L -0.13725,-0.035250000000000004 L -0.13125,-0.03974999999999998 L -0.12975,-0.047249999999999986 L -0.13125,-0.03824999999999998 L -0.13575,-0.035250000000000004 L -0.13275,-0.03075 L -0.13875,-0.029249999999999998 L -0.14025,-0.03225 L -0.14625000000000002,-0.026249999999999996" fill="none" stroke="black" stroke-width="0.002"/>
	<path d="M -0.15525,-0.026249999999999996 L -0.15525,-0.027749999999999997" fill="none" stroke="black" stroke-width="0.002"/>
	<path d="M -0.19125,-0.01874999999999999 L -0.19725,-0.024749999999999994 L -0.19425,-0.02024999999999999 L -0.18975,-0.02024999999999999" fill="none" stroke="black" stroke-width="0.002"/>
	<path d="M -0.009750000000000009,-0.011249999999999982 L -0.005250000000000005,-0.01874999999999999 L 0.00824999999999998,-0.023249999999999993 L 0.014249999999999985,-0.03225 L 0.006749999999999978,-0.02174999999999999 L -0.0037500000000000033,-0.01874999999999999 L -0.009750000000000009,-0.012749999999999984" fill="none" stroke="black" stroke-width="0.002"/>
	<path d="M 0.12975,-0.009749999999999981 L 0.13275,-0.014249999999999985 L 0.13125,-0.03974999999999998 L 0.12375,-0.07125000000000001 L 0.10874999999999999,-0.10724999999999998 L 0.09524999999999997,-0.12525 L 0.09224999999999997,-0.13725 L 0.13575,-0.15674999999999997 L 0.15974999999999998,-0.17325 L 0.20025,-0.18975 L 0.16124999999999998,-0.17325 L 0.13725,-0.15674999999999997 L 0.09374999999999997,-0.13725 L 0.09524999999999997,-0.12525 L 0.10874999999999999,-0.10874999999999999 L 0.12375,-0.07125000000000001 L 0.13125,-0.03974999999999998 L 0.13125,-0.017249999999999988 L 0.13725,-0.011249999999999982 L 0.13425,-0.014249999999999985 L 0.13125,-0.011249999999999982" fill="none" stroke="black" stroke-width="0.002"/>
	<path d="M -0.03375,-0.009749999999999981 L -0.035250000000000004,-0.012749999999999984 L -0.03225,-0.009749999999999981" fill="none" stroke="black" stroke-width="0.002"/>
	<path d="M -0.14625000000000002,-0.009749999999999981 L -0.15075,-0.012749999999999984 L -0.14775000000000002,-0.014249999999999985 L -0.14925000000000002,-0.023249999999999993 L -0.15975,-0.02024999999999999 L -0.15675,-0.017249999999999988 L -0.15825,-0.011249999999999982 L -0.17025,-0.024749999999999994 L -0.17025,-0.03225 L -0.18525000000000003,-0.03075 L -0.17475000000000002,-0.03375 L -0.16275,-0.03225 L -0.13125,-0.05174999999999999 L -0.13425,-0.047249999999999986 L -0.16875,-0.029249999999999998 L -0.16875,-0.023249999999999993 L -0.15825,-0.011249999999999982 L -0.15825,-0.02174999999999999 L -0.14325000000000002,-0.02174999999999999 L -0.13875,-0.026249999999999996 L -0.14775000000000002,-0.02024999999999999 L -0.14625000000000002,-0.011249999999999982 L -0.14175000000000001,-0.01874999999999999 L -0.14475000000000002,-0.011249999999999982" fill="none" stroke="black" stroke-width="0.002"/>
	<path d="M -0.17625000000000002,-0.00824999999999998 L -0.16725,-0.012749999999999984 L -0.17775000000000002,-0.02174999999999999 L -0.19275,-0.027749999999999997 L -0.17325000000000002,-0.02024999999999999 L -0.16575,-0.012749999999999984 L -0.17475000000000002,-0.00824999999999998" fill="none" stroke="black" stroke-width="0.002"/>
	<path d="M -0.02175000000000002,-0.0007500000000000007 L -0.018750000000000017,-0.006749999999999978 L -0.02175000000000002,-0.02174999999999999 L -0.036750000000000005,-0.026249999999999996 L -0.02175000000000002,-0.023249999999999993 L -0.018750000000000017,-0.017249999999999988 L -0.020250000000000018,-0.002250000000000002" fill="none" stroke="black" stroke-width="0.002"/>
	<path d="M -0.17475000000000002,0.002250000000000002 L -0.18975,-0.014249999999999985 L -0.18225000000000002,-0.00824999999999998 L -0.17625000000000002,-0.015749999999999986 L -0.18075000000000002,-0.009749999999999981 L -0.17775000000000002,-0.0007500000000000007" fill="none" stroke="black" stroke-width="0.002"/>
	<path d="M -0.19275,0.002250000000000002 L -0.19125,-0.00824999999999998 L -0.19575,-0.006749999999999978 L -0.18975,-0.006749999999999978 L -0.19125,0.002250000000000002" fill="none" stroke="black" stroke-width="0.002"/>
	<path d="M 0.18675,0.008250000000000007 L 0.16874999999999998,-0.0007500000000000007 L 0.15524999999999997,0.0007500000000000007 L 0.16874999999999998,-0.0007500000000000007 L 0.18675,0.006750000000000006" fill="none" stroke="black" stroke-width="0.002"/>
	<path d="M -0.17775000000000002,0.012750000000000011 L -0.17475000000000002,0.009750000000000009 L -0.18075000000000002,0.0037500000000000033 L -0.18225000000000002,0.008250000000000007" fill="none" stroke="black" stroke-width="0.002"/>
	<path d="M -0.17925000000000002,0.012750000000000011 L -0.18225000000000002,0.009750000000000009 L -0.18075000000000002,0.002250000000000002 L -0.17175,0.009750000000000009 L -0.17325000000000002,0.012750000000000011" fill="none" stroke="black" stroke-width="0.002"/>
	<path d="M 0.014249999999999985,0.014250000000000013 L 0.024749999999999994,-0.009749999999999981 L 0.03974999999999998,-0.024749999999999994 L 0.03974999999999998,-0.03375 L 0.03824999999999998,-0.02024999999999999 L 0.023249999999999993,-0.005250000000000005 L 0.02174999999999999,0.002250000000000002 L 0.014249999999999985,0.01125000000000001" fill="none" stroke="black" stroke-width="0.002"/>
	<path d="M -0.014250000000000013,0.02325000000000002 L -0.012750000000000011,0.014250000000000013 L -0.020250000000000018,0.005250000000000005 L -0.012750000000000011,0.014250000000000013 L -0.012750000000000011,0.02325000000000002" fill="none" stroke="black" stroke-width="0.002"/>
	<path d="M -0.12525000000000003,0.02325000000000002 L -0.11775000000000001,0.015750000000000014 L -0.11775000000000001,0.008250000000000007 L -0.11775000000000001,0.015750000000000014 L -0.12375000000000001,0.02325000000000002" fill="none" stroke="black" stroke-width="0.002"/>
	<path d="M -0.12975,0.026249999999999996 L -0.13125,0.012750000000000011 L -0.12825000000000003,0.026249999999999996" fill="none" stroke="black" stroke-width="0.002"/>
	<path d="M 0.19275,0.027749999999999997 L 0.20025,0.027749999999999997" fill="none" stroke="black" stroke-width="0.002"/>
	<path d="M 0.09824999999999998,0.03975000000000001 L 0.08325000000000002,0.024750000000000022 L 0.09224999999999997,0.029249999999999998 L 0.09824999999999998,0.038250000000000006" fill="none" stroke="black" stroke-width="0.002"/>
	<path d="M -0.017250000000000015,0.04125000000000001 L -0.027749999999999997,0.008250000000000007 L -0.026249999999999996,-0.012749999999999984 L -0.03075,-0.017249999999999988 L -0.036750000000000005,-0.017249999999999988 L -0.04125000000000001,-0.023249999999999993 L -0.038250000000000006,-0.03225 L -0.04125000000000001,-0.023249999999999993 L -0.026249999999999996,-0.014249999999999985 L -0.027749999999999997,0.008250000000000007 L -0.02325000000000002,0.02325000000000002 L -0.017250000000000015,0.027749999999999997 L -0.017250000000000015,0.03375" fill="none" stroke="black" stroke-width="0.002"/>
	<path d="M -0.13575,0.04425000000000001 L -0.13725,0.038250000000000006 L -0.14175000000000001,0.038250000000000006 L -0.13875,0.036750000000000005 L -0.13425,-0.006749999999999978 L -0.12525000000000003,-0.03375 L -0.13725,0.006750000000000006 L -0.13725,0.04275000000000001" fill="none" stroke="black" stroke-width="0.002"/>
	<path d="M 0.19275,0.047250000000000014 L 0.20025,0.04425000000000001 L 0.19425,0.047250000000000014" fill="none" stroke="black" stroke-width="0.002"/>
	<path d="M -0.08175000000000002,0.047250000000000014 L -0.07125000000000001,0.04125000000000001 L -0.08025000000000002,0.04575000000000001" fill="none" stroke="black" stroke-width="0.002"/>
	<path d="M 0.08175000000000002,0.05025000000000002 L 0.07875000000000001,0.047250000000000014 L 0.08475000000000002,0.05025000000000002" fill="none" stroke="black" stroke-width="0.002"/>
	<path d="M 0.012749999999999984,0.05025000000000002 L 0.02174999999999999,0.03975000000000001 L 0.029249999999999998,0.020250000000000018 L 0.014249999999999985,0.05025000000000002" fill="none" stroke="black" stroke-width="0.002"/>
	<path d="M -0.09675000000000002,0.05025000000000002 L -0.09975,0.04575000000000001 L -0.09675000000000002,0.05025000000000002 L -0.09075000000000001,0.04425000000000001 L -0.09525000000000002,0.05025000000000002" fill="none" stroke="black" stroke-width="0.002"/>
	<path d="M 0.09524999999999997,0.05325000000000002 L 0.09824999999999998,0.05025000000000002 L 0.09674999999999997,0.04275000000000001 L 0.09974999999999998,0.04425000000000001 L 0.09674999999999997,0.05325000000000002" fill="none" stroke="black" stroke-width="0.002"/>
	<path d="M 0.056249999999999994,0.05325000000000002 L 0.057749999999999996,0.04275000000000001 L 0.06075,0.04275000000000001 L 0.056249999999999994,0.05025000000000002" fill="none" stroke="black" stroke-width="0.002"/>
	<path d="M -0.07125000000000001,0.05625000000000002 L -0.08325,0.05025000000000002 L -0.07125000000000001,0.05325000000000002 L -0.06975,0.04425000000000001 L -0.06675,0.04425000000000001 L -0.06975,0.05625000000000002" fill="none" stroke="black" stroke-width="0.002"/>
	<path d="M 0.17174999999999999,0.057749999999999996 L 0.17174999999999999,0.05175000000000002 L 0.18225,0.04275000000000001 L 0.17174999999999999,0.05625000000000002" fill="none" stroke="black" stroke-width="0.002"/>
	<path d="M -0.19725,0.057749999999999996 L -0.20025,-0.01874999999999999 L -0.19875,0.0037500000000000033 L -0.18975,0.017250000000000015 L -0.19725,0.006750000000000006 L -0.20025,0.008250000000000007 L -0.19575,0.047250000000000014 L -0.19875,0.05625000000000002" fill="none" stroke="black" stroke-width="0.002"/>
	<path d="M -0.09675000000000002,0.06375 L -0.10275000000000001,0.05925 L -0.08625000000000001,0.06075 L -0.09975,0.05925 L -0.09975,0.06225 L -0.09375000000000001,0.06375" fill="none" stroke="black" stroke-width="0.002"/>
	<path d="M 0.17325,0.06525 L 0.17024999999999998,0.06225 L 0.17325,0.06525 L 0.18975,0.05475000000000002 L 0.17475,0.06525" fill="none" stroke="black" stroke-width="0.002"/>
	<path d="M -0.09075000000000001,0.06525 L -0.08775000000000001,0.06525" fill="none" stroke="black" stroke-width="0.002"/>
	<path d="M 0.18825,0.07125000000000001 L 0.19125,0.06825 L 0.20025,0.06975 L 0.18975,0.07125000000000001" fill="none" stroke="black" stroke-width="0.002"/>
	<path d="M 0.18975,0.07425000000000001 L 0.19275,0.07425000000000001" fill="none" stroke="black" stroke-width="0.002"/>
	<path d="M 0.16874999999999998,0.07725000000000001 L 0.16874999999999998,0.07575000000000001" fill="none" stroke="black" stroke-width="0.002"/>
	<path d="M 0.14175000000000001,0.08175000000000002 L 0.13575,0.08025000000000002 L 0.14325000000000002,0.08175000000000002 L 0.14775000000000002,0.07275000000000001 L 0.15974999999999998,0.06225 L 0.14325000000000002,0.08175000000000002" fill="none" stroke="black" stroke-width="0.002"/>
	<path d="M -0.12075000000000001,0.08175000000000002 L -0.12375000000000001,0.07725000000000001 L -0.12075000000000001,0.08175000000000002 L -0.10275000000000001,0.07425000000000001 L -0.11925000000000001,0.08025000000000002" fill="none" stroke="black" stroke-width="0.002"/>
	<path d="M 0.16274999999999998,0.08325 L 0.16874999999999998,0.08025000000000002 L 0.16424999999999998,0.08325" fill="none" stroke="black" stroke-width="0.002"/>
	<path d="M 0.15824999999999997,0.08775000000000001 L 0.15974999999999998,0.08625000000000001" fill="none" stroke="black" stroke-width="0.002"/>
	<path d="M 0.16724999999999998,0.09675000000000002 L 0.15974999999999998,0.08625000000000001 L 0.16874999999999998,0.09675000000000002" fill="none" stroke="black" stroke-width="0.002"/>
	<path d="M 0.18375,0.10425000000000001 L 0.19725,0.09525000000000002 L 0.18525,0.10425000000000001" fill="none" stroke="black" stroke-width="0.002"/>
	<path d="M 0.17174999999999999,0.12375000000000001 L 0.19275,0.11775000000000001 L 0.20025,0.11925000000000001 L 0.19275,0.11775000000000001 L 0.17475,0.12375000000000001" fill="none" stroke="black" stroke-width="0.002"/>
	<path d="M 0.19275,0.15825 L 0.18825,0.15375 L 0.16874999999999998,0.15375 L 0.18975,0.15375 L 0.19275,0.15675" fill="none" stroke="black" stroke-width="0.002"/>
	<path d="M 0.18225,0.17925000000000002 L 0.18525,0.17175 L 0.18225,0.17775000000000002" fill="none" stroke="black" stroke-width="0.002"/>
	<path d="M 0.16574999999999998,0.18075000000000002 L 0.16424999999999998,0.16275 L 0.17174999999999999,0.15975 L 0.18075,0.16275 L 0.17174999999999999,0.15975 L 0.16424999999999998,0.16425 L 0.16724999999999998,0.17925000000000002" fill="none" stroke="black" stroke-width="0.002"/>
</svg>
