<?xml version="1.0" ?>
<svg xmlns="http://www.w3.org/2000/svg" xmlns:ev="http://www.w3.org/2001/xml-events" xmlns:xlink="http://www.w3.org/1999/xlink" baseProfile="full" height="600px" version="1.1" viewBox="-0.17729775 -0.17669775 0.34409550000000005 0.3548955" width="582px">
	<defs/>
	<path d="M -0.087,-0.141 L -0.087,-0.147" fill="none" stroke="black" stroke-width="0.002"/>
	<path d="M 0.09000000000000002,-0.13800000000000004 L 0.0915,-0.13950000000000004" fill="none" stroke="black" stroke-width="0.002"/>
	<path d="M -0.13499999999999998,-0.13800000000000004 L -0.1485,-0.1425 L -0.13499999999999998,-0.13800000000000004 L -0.13649999999999998,-0.144 L -0.1335,-0.13800000000000004" fill="none" stroke="black" stroke-width="0.002"/>
	<path d="M 0.09000000000000002,-0.13350000000000004 L 0.10500000000000001,-0.141 L 0.12150000000000002,-0.144 L 0.0915,-0.13350000000000004" fill="none" stroke="black" stroke-width="0.002"/>
	<path d="M -0.1305,-0.13200000000000003 L -0.147,-0.13800000000000004 L -0.129,-0.13200000000000003" fill="none" stroke="black" stroke-width="0.002"/>
	<path d="M 0.08400000000000002,-0.12750000000000003 L 0.12600000000000003,-0.141 L 0.13500000000000004,-0.147 L 0.12750000000000003,-0.141 L 0.08700000000000002,-0.12750000000000003" fill="none" stroke="black" stroke-width="0.002"/>
	<path d="M 0.06,-0.11250000000000002 L 0.06,-0.12150000000000002" fill="none" stroke="black" stroke-width="0.002"/>
	<path d="M 0.066,-0.0945 L 0.0645,-0.1005 L 0.0615,-0.1005 L 0.066,-0.10650000000000001 L 0.063,-0.11100000000000002 L 0.07800000000000001,-0.13200000000000003 L 0.08250000000000002,-0.147 L 0.07800000000000001,-0.13200000000000003 L 0.0645,-0.11250000000000002 L 0.066,-0.10800000000000001 L 0.08850000000000002,-0.1455 L 0.08100000000000002,-0.12750000000000003 L 0.0645,-0.10350000000000001 L 0.066,-0.0975" fill="none" stroke="black" stroke-width="0.002"/>
	<path d="M -0.07799999999999999,-0.0945 L -0.07949999999999999,-0.10950000000000001 L -0.08549999999999999,-0.11550000000000002 L -0.093,-0.13500000000000004 L -0.09,-0.13950000000000004 L -0.0915,-0.147 L -0.09,-0.144 L -0.093,-0.13500000000000004 L -0.08549999999999999,-0.11700000000000002 L -0.07949999999999999,-0.11100000000000002 L -0.07799999999999999,-0.10200000000000001" fill="none" stroke="black" stroke-width="0.002"/>
	<path d="M -0.072,-0.09000000000000002 L -0.0705,-0.099 L -0.06599999999999999,-0.10200000000000001 L -0.072,-0.0915" fill="none" stroke="black" stroke-width="0.002"/>
	<path d="M -0.022499999999999992,-0.08400000000000002 L -0.004499999999999976,-0.0915 L 0.01200000000000001,-0.08550000000000002 L -0.004499999999999976,-0.0915 L -0.02099999999999999,-0.08550000000000002" fill="none" stroke="black" stroke-width="0.002"/>
	<path d="M 0.013500000000000012,-0.07800000000000001 L 0.009000000000000008,-0.07950000000000002 L 0.013500000000000012,-0.07950000000000002" fill="none" stroke="black" stroke-width="0.002"/>
	<path d="M -0.08099999999999999,-0.07800000000000001 L -0.08099999999999999,-0.08700000000000002 L -0.09749999999999999,-0.0975 L -0.1245,-0.12750000000000003 L -0.129,-0.144 L -0.1245,-0.12900000000000003 L -0.096,-0.0975 L -0.08249999999999999,-0.09000000000000002 L -0.11549999999999999,-0.12600000000000003 L -0.1185,-0.147 L -0.11549999999999999,-0.12600000000000003 L -0.0945,-0.10200000000000001 L -0.07649999999999998,-0.09000000000000002 L -0.07799999999999999,-0.07800000000000001 L -0.075,-0.08700000000000002 L -0.07949999999999999,-0.0915 L -0.08249999999999999,-0.09000000000000002 L -0.08099999999999999,-0.08700000000000002" fill="none" stroke="black" stroke-width="0.002"/>
	<path d="M -0.028499999999999998,-0.07200000000000001 L -0.041999999999999996,-0.07800000000000001 L -0.026999999999999996,-0.07200000000000001 L 0.0,-0.07800000000000001 L 0.01050000000000001,-0.07500000000000001 L 0.025500000000000023,-0.07650000000000001 L 0.01050000000000001,-0.07500000000000001 L 0.0,-0.07800000000000001 L -0.023999999999999994,-0.07200000000000001" fill="none" stroke="black" stroke-width="0.002"/>
	<path d="M 0.08100000000000002,-0.0675 L 0.069,-0.09000000000000002 L 0.08250000000000002,-0.0675" fill="none" stroke="black" stroke-width="0.002"/>
	<path d="M -0.028499999999999998,-0.05100000000000002 L -0.029999999999999985,-0.05250000000000002" fill="none" stroke="black" stroke-width="0.002"/>
	<path d="M -0.03599999999999999,-0.049500000000000016 L -0.04799999999999999,-0.06 L -0.04949999999999999,-0.07500000000000001 L -0.04799999999999999,-0.0615 L -0.03899999999999999,-0.05100000000000002 L -0.03299999999999999,-0.049500000000000016" fill="none" stroke="black" stroke-width="0.002"/>
	<path d="M 0.015000000000000013,-0.04350000000000001 L 0.02400000000000002,-0.05400000000000002 L 0.027000000000000024,-0.05250000000000002 L 0.03900000000000001,-0.06 L 0.04350000000000001,-0.069 L 0.04200000000000001,-0.07350000000000001 L 0.04050000000000001,-0.0615 L 0.016500000000000015,-0.04500000000000001" fill="none" stroke="black" stroke-width="0.002"/>
	<path d="M -0.123,-0.04200000000000001 L -0.10799999999999998,-0.06 L -0.08549999999999999,-0.07650000000000001 L -0.10649999999999998,-0.06 L -0.1215,-0.04200000000000001" fill="none" stroke="black" stroke-width="0.002"/>
	<path d="M -0.022499999999999992,-0.03900000000000001 L -0.022499999999999992,-0.04500000000000001 L -0.029999999999999985,-0.048000000000000015 L -0.025499999999999995,-0.049500000000000016 L -0.02099999999999999,-0.04200000000000001 L -0.016499999999999987,-0.04200000000000001 L -0.01949999999999999,-0.04200000000000001" fill="none" stroke="black" stroke-width="0.002"/>
	<path d="M 0.025500000000000023,-0.03 L 0.018000000000000016,-0.03900000000000001 L 0.025500000000000023,-0.0315" fill="none" stroke="black" stroke-width="0.002"/>
	<path d="M -0.09899999999999999,-0.03 L -0.096,-0.0345 L -0.09,-0.033 L -0.0945,-0.0345" fill="none" stroke="black" stroke-width="0.002"/>
	<path d="M -0.1485,-0.03 L -0.144,-0.03 L -0.13649999999999998,-0.03900000000000001 L -0.1335,-0.037500000000000006 L -0.1425,-0.03" fill="none" stroke="black" stroke-width="0.002"/>
	<path d="M 0.10350000000000001,-0.025500000000000023 L 0.10350000000000001,-0.036000000000000004" fill="none" stroke="black" stroke-width="0.002"/>
	<path d="M 0.018000000000000016,-0.02400000000000002 L 0.004500000000000004,-0.033 L 0.018000000000000016,-0.02400000000000002 L 0.019500000000000017,-0.028499999999999998 L 0.02250000000000002,-0.025500000000000023 L 0.019500000000000017,-0.02400000000000002" fill="none" stroke="black" stroke-width="0.002"/>
	<path d="M 0.006000000000000005,-0.02250000000000002 L 0.007500000000000007,-0.02250000000000002" fill="none" stroke="black" stroke-width="0.002"/>
	<path d="M -0.1305,-0.02250000000000002 L -0.126,-0.02100000000000002 L -0.1215,-0.027000000000000024 L -0.13649999999999998,-0.027000000000000024 L -0.13499999999999998,-0.02250000000000002" fill="none" stroke="black" stroke-width="0.002"/>
	<path d="M 0.01200000000000001,-0.02100000000000002 L 0.01200000000000001,-0.02250000000000002" fill="none" stroke="black" stroke-width="0.002"/>
	<path d="M -0.13499999999999998,-0.02100000000000002 L -0.13799999999999998,-0.02400000000000002 L -0.13649999999999998,-0.028499999999999998 L -0.12,-0.027000000000000024 L -0.12,-0.02400000000000002 L -0.126,-0.02100000000000002 L -0.1335,-0.02250000000000002" fill="none" stroke="black" stroke-width="0.002"/>
	<path d="M -0.144,-0.019500000000000017 L -0.1425,-0.02250000000000002 L -0.1485,-0.025500000000000023 L -0.1425,-0.02400000000000002 L -0.144,-0.02100000000000002" fill="none" stroke="black" stroke-width="0.002"/>
	<path d="M 0.018000000000000016,-0.018000000000000016 L 0.019500000000000017,-0.019500000000000017" fill="none" stroke="black" stroke-width="0.002"/>
	<path d="M -0.011999999999999983,-0.015000000000000013 L -0.013499999999999984,-0.019500000000000017 L -0.00899999999999998,-0.02250000000000002 L -0.011999999999999983,-0.018000000000000016" fill="none" stroke="black" stroke-width="0.002"/>
	<path d="M -0.016499999999999987,-0.015000000000000013 L -0.02099999999999999,-0.027000000000000024 L -0.026999999999999996,-0.027000000000000024 L -0.014999999999999986,-0.037500000000000006 L -0.022499999999999992,-0.028499999999999998 L -0.014999999999999986,-0.02250000000000002 L -0.007499999999999979,-0.03 L -0.016499999999999987,-0.02100000000000002" fill="none" stroke="black" stroke-width="0.002"/>
	<path d="M -0.1185,-0.015000000000000013 L -0.11699999999999999,-0.018000000000000016 L -0.12,-0.019500000000000017 L -0.11699999999999999,-0.016500000000000015" fill="none" stroke="black" stroke-width="0.002"/>
	<path d="M 0.01200000000000001,-0.01200000000000001 L 0.01200000000000001,-0.016500000000000015" fill="none" stroke="black" stroke-width="0.002"/>
	<path d="M -0.13799999999999998,-0.01200000000000001 L -0.13649999999999998,-0.013500000000000012" fill="none" stroke="black" stroke-width="0.002"/>
	<path d="M -0.0030000000000000027,-0.009000000000000008 L -0.007499999999999979,-0.01200000000000001 L -0.0015000000000000013,-0.009000000000000008" fill="none" stroke="black" stroke-width="0.002"/>
	<path d="M -0.017999999999999988,-0.009000000000000008 L -0.022499999999999992,-0.016500000000000015 L -0.02099999999999999,-0.019500000000000017 L -0.022499999999999992,-0.016500000000000015 L -0.016499999999999987,-0.009000000000000008" fill="none" stroke="black" stroke-width="0.002"/>
	<path d="M 0.12300000000000003,-0.004500000000000004 L 0.11850000000000002,-0.016500000000000015 L 0.12450000000000003,-0.004500000000000004" fill="none" stroke="black" stroke-width="0.002"/>
	<path d="M 0.10800000000000001,-0.004500000000000004 L 0.1005,-0.007500000000000007 L 0.099,-0.01050000000000001 L 0.10350000000000001,-0.015000000000000013 L 0.0945,-0.02100000000000002 L 0.12000000000000002,-0.019500000000000017 L 0.0975,-0.02250000000000002 L 0.0945,-0.019500000000000017 L 0.10350000000000001,-0.015000000000000013 L 0.099,-0.01050000000000001 L 0.10650000000000001,-0.006000000000000005" fill="none" stroke="black" stroke-width="0.002"/>
	<path d="M -0.1485,-0.004500000000000004 L -0.1455,-0.009000000000000008 L -0.1485,-0.009000000000000008 L -0.144,-0.009000000000000008 L -0.1455,-0.004500000000000004" fill="none" stroke="black" stroke-width="0.002"/>
	<path d="M -0.010499999999999982,-0.0030000000000000027 L -0.011999999999999983,-0.004500000000000004" fill="none" stroke="black" stroke-width="0.002"/>
	<path d="M -0.025499999999999995,-0.0030000000000000027 L -0.029999999999999985,-0.02250000000000002 L -0.022499999999999992,-0.006000000000000005" fill="none" stroke="black" stroke-width="0.002"/>
	<path d="M -0.12,-0.0015000000000000013 L -0.1245,-0.007500000000000007 L -0.11699999999999999,-0.006000000000000005 L -0.1245,-0.006000000000000005 L -0.11549999999999999,-0.0015000000000000013" fill="none" stroke="black" stroke-width="0.002"/>
	<path d="M -0.028499999999999998,0.0030000000000000027 L -0.03299999999999999,-0.0 L -0.044999999999999984,0.0015000000000000013 L -0.03749999999999999,-0.0030000000000000027 L -0.03899999999999999,0.0015000000000000013 L -0.028499999999999998,0.0015000000000000013" fill="none" stroke="black" stroke-width="0.002"/>
	<path d="M 0.11550000000000002,0.005999999999999978 L 0.11850000000000002,0.0015000000000000013 L 0.12600000000000003,0.0030000000000000027 L 0.12000000000000002,0.0015000000000000013 L 0.11700000000000002,0.005999999999999978" fill="none" stroke="black" stroke-width="0.002"/>
	<path d="M 0.12600000000000003,0.007499999999999979 L 0.12150000000000002,0.005999999999999978 L 0.12900000000000003,0.007499999999999979 L 0.13350000000000004,0.0030000000000000027 L 0.12900000000000003,0.007499999999999979" fill="none" stroke="black" stroke-width="0.002"/>
	<path d="M 0.10350000000000001,0.010499999999999982 L 0.10500000000000001,0.0030000000000000027 L 0.10950000000000001,0.0030000000000000027 L 0.10350000000000001,0.005999999999999978 L 0.10650000000000001,0.00899999999999998 L 0.10950000000000001,0.005999999999999978 L 0.10500000000000001,0.010499999999999982" fill="none" stroke="black" stroke-width="0.002"/>
	<path d="M 0.06,0.011999999999999983 L 0.05250000000000002,0.005999999999999978 L 0.04050000000000001,0.007499999999999979 L 0.05250000000000002,0.005999999999999978 L 0.05700000000000002,0.00899999999999998" fill="none" stroke="black" stroke-width="0.002"/>
	<path d="M -0.005999999999999978,0.011999999999999983 L -0.005999999999999978,-0.0030000000000000027 L -0.010499999999999982,-0.009000000000000008 L -0.005999999999999978,-0.0030000000000000027 L -0.005999999999999978,0.010499999999999982" fill="none" stroke="black" stroke-width="0.002"/>
	<path d="M -0.02099999999999999,0.011999999999999983 L -0.03299999999999999,0.005999999999999978 L -0.041999999999999996,0.00899999999999998 L -0.028499999999999998,0.005999999999999978 L -0.01949999999999999,0.010499999999999982" fill="none" stroke="black" stroke-width="0.002"/>
	<path d="M 0.13200000000000003,0.013499999999999984 L 0.13800000000000004,0.0015000000000000013 L 0.13350000000000004,-0.0030000000000000027 L 0.12750000000000003,-0.0 L 0.12750000000000003,-0.0030000000000000027 L 0.13500000000000004,-0.0030000000000000027 L 0.13800000000000004,0.007499999999999979" fill="none" stroke="black" stroke-width="0.002"/>
	<path d="M 0.01050000000000001,0.013499999999999984 L 0.007500000000000007,0.010499999999999982 L 0.01050000000000001,-0.0015000000000000013 L 0.015000000000000013,-0.01200000000000001 L 0.02400000000000002,-0.02100000000000002 L 0.02250000000000002,-0.015000000000000013 L 0.015000000000000013,-0.01050000000000001 L 0.007500000000000007,0.010499999999999982" fill="none" stroke="black" stroke-width="0.002"/>
	<path d="M -0.061499999999999985,0.016499999999999987 L -0.058499999999999996,0.010499999999999982 L -0.044999999999999984,0.007499999999999979 L -0.061499999999999985,0.014999999999999986" fill="none" stroke="black" stroke-width="0.002"/>
	<path d="M 0.049500000000000016,0.022499999999999992 L 0.05250000000000002,0.02099999999999999 L 0.046500000000000014,0.01949999999999999" fill="none" stroke="black" stroke-width="0.002"/>
	<path d="M -0.05249999999999999,0.022499999999999992 L -0.04949999999999999,0.023999999999999994 L -0.046499999999999986,0.02099999999999999 L -0.04949999999999999,0.01949999999999999" fill="none" stroke="black" stroke-width="0.002"/>
	<path d="M 0.049500000000000016,0.023999999999999994 L 0.046500000000000014,0.01949999999999999 L 0.05400000000000002,0.01949999999999999 L 0.05100000000000002,0.022499999999999992" fill="none" stroke="black" stroke-width="0.002"/>
	<path d="M -0.06899999999999999,0.023999999999999994 L -0.061499999999999985,0.01949999999999999 L -0.06749999999999999,0.023999999999999994" fill="none" stroke="black" stroke-width="0.002"/>
	<path d="M -0.04949999999999999,0.025499999999999995 L -0.05399999999999999,0.023999999999999994 L -0.05249999999999999,0.02099999999999999 L -0.046499999999999986,0.01949999999999999 L -0.046499999999999986,0.022499999999999992" fill="none" stroke="black" stroke-width="0.002"/>
	<path d="M 0.07650000000000001,0.03299999999999999 L 0.08250000000000002,-0.015000000000000013 L 0.07800000000000001,0.031499999999999986" fill="none" stroke="black" stroke-width="0.002"/>
	<path d="M -0.0030000000000000027,0.03299999999999999 L -0.016499999999999987,0.010499999999999982 L -0.013499999999999984,0.014999999999999986 L -0.010499999999999982,0.010499999999999982 L -0.007499999999999979,0.026999999999999996 L 0.0030000000000000027,0.03299999999999999 L 0.01200000000000001,0.023999999999999994 L 0.018000000000000016,0.007499999999999979 L 0.01200000000000001,0.025499999999999995 L 0.004500000000000004,0.03299999999999999" fill="none" stroke="black" stroke-width="0.002"/>
	<path d="M 0.04350000000000001,0.03449999999999999 L 0.04200000000000001,0.029999999999999985 L 0.05100000000000002,0.026999999999999996 L 0.04200000000000001,0.031499999999999986 L 0.04500000000000001,0.03449999999999999 L 0.05250000000000002,0.03299999999999999 L 0.048000000000000015,0.03449999999999999" fill="none" stroke="black" stroke-width="0.002"/>
	<path d="M 0.12900000000000003,0.03599999999999999 L 0.13650000000000004,0.025499999999999995 L 0.13650000000000004,0.014999999999999986 L 0.13650000000000004,0.025499999999999995 L 0.13050000000000003,0.03449999999999999" fill="none" stroke="black" stroke-width="0.002"/>
	<path d="M -0.04949999999999999,0.03599999999999999 L -0.055499999999999994,0.03449999999999999 L -0.05249999999999999,0.03299999999999999 L -0.056999999999999995,0.029999999999999985 L -0.0435,0.031499999999999986 L -0.05249999999999999,0.03299999999999999 L -0.046499999999999986,0.03599999999999999" fill="none" stroke="black" stroke-width="0.002"/>
	<path d="M -0.08249999999999999,0.03599999999999999 L -0.0885,0.0015000000000000013 L -0.08549999999999999,-0.013500000000000012 L -0.0885,0.0015000000000000013 L -0.08099999999999999,0.03599999999999999" fill="none" stroke="black" stroke-width="0.002"/>
	<path d="M -0.132,0.05399999999999999 L -0.13649999999999998,0.04949999999999999 L -0.1305,0.05399999999999999" fill="none" stroke="black" stroke-width="0.002"/>
	<path d="M 0.025500000000000023,0.06 L 0.05400000000000002,0.06" fill="none" stroke="black" stroke-width="0.002"/>
	<path d="M -0.023999999999999994,0.06 L -0.02099999999999999,0.056999999999999995" fill="none" stroke="black" stroke-width="0.002"/>
	<path d="M -0.06449999999999999,0.06 L -0.07649999999999998,0.05249999999999999 L -0.06449999999999999,0.06 L -0.031499999999999986,0.06 L -0.026999999999999996,0.056999999999999995 L -0.031499999999999986,0.06" fill="none" stroke="black" stroke-width="0.002"/>
	<path d="M -0.1185,0.11249999999999999 L -0.129,0.09749999999999999 L -0.1185,0.11099999999999999" fill="none" stroke="black" stroke-width="0.002"/>
	<path d="M -0.13649999999999998,0.123 L -0.1305,0.10799999999999998 L -0.13799999999999998,0.10049999999999999 L -0.1335,0.09749999999999999 L -0.144,0.061499999999999985 L -0.1485,0.056999999999999995 L -0.147,0.05399999999999999 L -0.13949999999999999,0.0735 L -0.13499999999999998,0.102 L -0.1305,0.10799999999999998 L -0.13499999999999998,0.1215" fill="none" stroke="black" stroke-width="0.002"/>
	<path d="M -0.123,0.1485 L -0.1245,0.1305 L -0.1305,0.123 L -0.1245,0.129 L -0.123,0.144" fill="none" stroke="black" stroke-width="0.002"/>
</svg>
